<svg width="42" height="42" viewBox="0 0 42 42" fill="none" xmlns="http://www.w3.org/2000/svg">
<path d="M11.2504 9.00002H27.1504C27.5221 10.8211 28.5568 12.4393 30.0538 13.5408C31.5508 14.6424 33.4035 15.1488 35.2527 14.962C37.1019 14.7752 38.8159 13.9085 40.0623 12.5297C41.3088 11.151 41.9989 9.35863 41.9989 7.50002C41.9989 5.6414 41.3088 3.84899 40.0623 2.47029C38.8159 1.09158 37.1019 0.224803 35.2527 0.0379958C33.4035 -0.148812 31.5508 0.35766 30.0538 1.45922C28.5568 2.56078 27.5221 4.17895 27.1504 6.00002H11.2504C9.06239 6.00002 6.96397 6.86921 5.41679 8.41639C3.86962 9.96356 3.00042 12.062 3.00042 14.25C3.00042 16.4381 3.86962 18.5365 5.41679 20.0836C6.96397 21.6308 9.06239 22.5 11.2504 22.5H27.7504C29.1428 22.5 30.4782 23.0531 31.4627 24.0377C32.4473 25.0223 33.0004 26.3576 33.0004 27.75C33.0004 29.1424 32.4473 30.4778 31.4627 31.4623C30.4782 32.4469 29.1428 33 27.7504 33H14.8504C14.4787 31.179 13.444 29.5608 11.947 28.4592C10.45 27.3577 8.59734 26.8512 6.74814 27.038C4.89893 27.2248 3.18496 28.0916 1.93852 29.4703C0.692073 30.849 0.00195313 32.6414 0.00195312 34.5C0.00195312 36.3586 0.692073 38.151 1.93852 39.5297C3.18496 40.9085 4.89893 41.7752 6.74814 41.962C8.59734 42.1488 10.45 41.6424 11.947 40.5408C13.444 39.4393 14.4787 37.8211 14.8504 36H27.7504C29.9385 36 32.0369 35.1308 33.5841 33.5836C35.1312 32.0365 36.0004 29.9381 36.0004 27.75C36.0004 25.562 35.1312 23.4636 33.5841 21.9164C32.0369 20.3692 29.9385 19.5 27.7504 19.5H11.2504C9.85804 19.5 8.52268 18.9469 7.53811 17.9623C6.55355 16.9778 6.00042 15.6424 6.00042 14.25C6.00042 12.8576 6.55355 11.5223 7.53811 10.5377C8.52268 9.55314 9.85804 9.00002 11.2504 9.00002ZM34.5004 3.00002C35.3904 3.00002 36.2605 3.26394 37.0005 3.7584C37.7405 4.25287 38.3173 4.95567 38.6579 5.77794C38.9985 6.60021 39.0876 7.50501 38.914 8.37792C38.7403 9.25084 38.3117 10.0527 37.6824 10.682C37.0531 11.3113 36.2512 11.7399 35.3783 11.9136C34.5054 12.0872 33.6006 11.9981 32.7784 11.6575C31.9561 11.3169 31.2533 10.7401 30.7588 10.0001C30.2643 9.26006 30.0004 8.39003 30.0004 7.50002C30.0004 6.30654 30.4745 5.16195 31.3184 4.31804C32.1624 3.47412 33.3069 3.00002 34.5004 3.00002ZM7.50042 39C6.61041 39 5.74038 38.7361 5.00036 38.2416C4.26034 37.7472 3.68356 37.0444 3.34297 36.2221C3.00237 35.3998 2.91326 34.495 3.08689 33.6221C3.26052 32.7492 3.68911 31.9474 4.31844 31.318C4.94778 30.6887 5.7496 30.2601 6.62252 30.0865C7.49543 29.9128 8.40023 30.002 9.2225 30.3426C10.0448 30.6832 10.7476 31.2599 11.242 32C11.7365 32.74 12.0004 33.61 12.0004 34.5C12.0004 35.6935 11.5263 36.8381 10.6824 37.682C9.83849 38.5259 8.6939 39 7.50042 39Z" fill="#FA541C"/>
</svg>
