<svg width="42" height="42" viewBox="0 0 42 42" fill="none" xmlns="http://www.w3.org/2000/svg">
<path d="M20.9995 25.5001C19.2669 25.5016 17.561 25.0737 16.0341 24.2547C14.5073 23.4358 13.2072 22.2513 12.25 20.8071L14.749 19.146C15.4333 20.1773 16.3621 21.0233 17.4527 21.6086C18.5433 22.1938 19.7618 22.5001 20.9995 22.5001C22.2372 22.5001 23.4557 22.1938 24.5463 21.6086C25.6369 21.0233 26.5658 20.1773 27.25 19.146L29.749 20.8071C28.7918 22.2513 27.4917 23.4358 25.9649 24.2547C24.4381 25.0737 22.7321 25.5016 20.9995 25.5001Z" fill="#FA541C"/>
<path d="M27 8.99995C26.4067 8.99995 25.8266 9.1759 25.3333 9.50554C24.8399 9.83519 24.4554 10.3037 24.2284 10.8519C24.0013 11.4001 23.9419 12.0033 24.0576 12.5852C24.1734 13.1672 24.4591 13.7017 24.8787 14.1213C25.2982 14.5408 25.8328 14.8266 26.4147 14.9423C26.9967 15.0581 27.5999 14.9987 28.148 14.7716C28.6962 14.5445 29.1648 14.16 29.4944 13.6667C29.824 13.1733 30 12.5933 30 12C30.0039 11.6049 29.9289 11.2131 29.7796 10.8473C29.6302 10.4816 29.4093 10.1493 29.13 9.86997C28.8506 9.59061 28.5184 9.36978 28.1526 9.22039C27.7869 9.07101 27.395 8.99606 27 8.99995Z" fill="#FA541C"/>
<path d="M15 8.99995C14.4067 8.99995 13.8266 9.1759 13.3333 9.50554C12.8399 9.83519 12.4554 10.3037 12.2284 10.8519C12.0013 11.4001 11.9419 12.0033 12.0576 12.5852C12.1734 13.1672 12.4591 13.7017 12.8787 14.1213C13.2982 14.5408 13.8328 14.8266 14.4147 14.9423C14.9967 15.0581 15.5999 14.9987 16.1481 14.7716C16.6962 14.5445 17.1648 14.16 17.4944 13.6667C17.8241 13.1733 18 12.5933 18 12C18.0039 11.6049 17.9289 11.2131 17.7796 10.8473C17.6302 10.4816 17.4093 10.1493 17.13 9.86997C16.8506 9.59061 16.5184 9.36978 16.1526 9.22039C15.7869 9.07101 15.395 8.99606 15 8.99995Z" fill="#FA541C"/>
<path d="M23.6037 42L21 40.5L27 30H36C36.3942 30.0007 36.7846 29.9235 37.1488 29.773C37.5131 29.6225 37.8441 29.4015 38.1228 29.1228C38.4015 28.8441 38.6225 28.5131 38.773 28.1488C38.9235 27.7846 39.0007 27.3942 39 27V6C39.0007 5.60585 38.9235 5.21544 38.773 4.85116C38.6225 4.48688 38.4015 4.15589 38.1228 3.87718C37.8441 3.59847 37.5131 3.37752 37.1488 3.22699C36.7846 3.07647 36.3942 2.99933 36 3H6C5.60585 2.99933 5.21544 3.07647 4.85116 3.22699C4.48688 3.37752 4.15589 3.59847 3.87718 3.87718C3.59847 4.15589 3.37752 4.48688 3.22699 4.85116C3.07647 5.21544 2.99933 5.60585 3 6V27C2.99933 27.3942 3.07647 27.7846 3.22699 28.1488C3.37752 28.5131 3.59847 28.8441 3.87718 29.1228C4.15589 29.4015 4.48688 29.6225 4.85116 29.773C5.21544 29.9235 5.60585 30.0007 6 30H19.5V33H6C5.21203 33.0001 4.43175 32.845 3.70374 32.5436C2.97572 32.2421 2.31423 31.8001 1.75705 31.2429C1.19987 30.6858 0.757922 30.0243 0.456442 29.2963C0.154963 28.5682 -0.000137661 27.788 2.702e-07 27V6C-0.000236236 5.212 0.154797 4.43168 0.456242 3.70362C0.757686 2.97556 1.19963 2.31403 1.75683 1.75683C2.31403 1.19963 2.97556 0.757686 3.70362 0.456242C4.43168 0.154797 5.212 -0.000236236 6 2.70187e-07H36C36.788 -0.000236236 37.5683 0.154797 38.2964 0.456242C39.0244 0.757686 39.686 1.19963 40.2432 1.75683C40.8004 2.31403 41.2423 2.97556 41.5438 3.70362C41.8452 4.43168 42.0002 5.212 42 6V27C42.0001 27.788 41.845 28.5682 41.5436 29.2963C41.2421 30.0243 40.8001 30.6858 40.243 31.2429C39.6858 31.8001 39.0243 32.2421 38.2963 32.5436C37.5682 32.845 36.788 33.0001 36 33H28.7469L23.6037 42Z" fill="#FA541C"/>
</svg>
