<svg width="42" height="42" viewBox="0 0 42 42" fill="none" xmlns="http://www.w3.org/2000/svg">
<path d="M42 19.5H32.895C32.5585 16.8605 31.3552 14.4075 29.4738 12.5259C27.5924 10.6443 25.1394 9.44067 22.5 9.10395V0H19.5V9.10395C16.8606 9.44067 14.4076 10.6443 12.5262 12.5259C10.6448 14.4075 9.44145 16.8605 9.105 19.5H0V22.5H9.105C9.44145 25.1395 10.6448 27.5925 12.5262 29.4741C14.4076 31.3557 16.8606 32.5593 19.5 32.896V42H22.5V32.896C25.1396 32.5595 27.5927 31.3559 29.4742 29.4743C31.3558 27.5927 32.5593 25.1396 32.8958 22.5H42V19.5ZM21 30C19.22 30 17.4799 29.4722 15.9999 28.4832C14.5198 27.4943 13.3663 26.0887 12.6851 24.4442C12.0039 22.7996 11.8257 20.99 12.1729 19.2442C12.5202 17.4984 13.3774 15.8947 14.636 14.636C15.8947 13.3774 17.4984 12.5202 19.2442 12.1729C20.99 11.8257 22.7996 12.0039 24.4442 12.6851C26.0887 13.3663 27.4943 14.5198 28.4832 15.9999C29.4722 17.4799 30 19.22 30 21C29.9974 23.3861 29.0483 25.6738 27.3611 27.3611C25.6738 29.0483 23.3861 29.9974 21 30Z" fill="#FA541C"/>
</svg>
