<svg width="178" height="49" viewBox="0 0 178 49" fill="none" xmlns="http://www.w3.org/2000/svg">
<path d="M32.44 18.863L28.6 29.333H26.05L22.21 18.863H24.46L27.34 27.188L30.205 18.863H32.44ZM34.7641 20.033C34.3941 20.033 34.0841 19.918 33.8341 19.688C33.5941 19.448 33.4741 19.153 33.4741 18.803C33.4741 18.453 33.5941 18.163 33.8341 17.933C34.0841 17.693 34.3941 17.573 34.7641 17.573C35.1341 17.573 35.4391 17.693 35.6791 17.933C35.9291 18.163 36.0541 18.453 36.0541 18.803C36.0541 19.153 35.9291 19.448 35.6791 19.688C35.4391 19.918 35.1341 20.033 34.7641 20.033ZM35.7991 21.023V29.333H33.6991V21.023H35.7991ZM45.5989 24.998C45.5989 25.298 45.5789 25.568 45.5389 25.808H39.4639C39.5139 26.408 39.7239 26.878 40.0939 27.218C40.4639 27.558 40.9189 27.728 41.4589 27.728C42.2389 27.728 42.7939 27.393 43.1239 26.723H45.3889C45.1489 27.523 44.6889 28.183 44.0089 28.703C43.3289 29.213 42.4939 29.468 41.5039 29.468C40.7039 29.468 39.9839 29.293 39.3439 28.943C38.7139 28.583 38.2189 28.078 37.8589 27.428C37.5089 26.778 37.3339 26.028 37.3339 25.178C37.3339 24.318 37.5089 23.563 37.8589 22.913C38.2089 22.263 38.6989 21.763 39.3289 21.413C39.9589 21.063 40.6839 20.888 41.5039 20.888C42.2939 20.888 42.9989 21.058 43.6189 21.398C44.2489 21.738 44.7339 22.223 45.0739 22.853C45.4239 23.473 45.5989 24.188 45.5989 24.998ZM43.4239 24.398C43.4139 23.858 43.2189 23.428 42.8389 23.108C42.4589 22.778 41.9939 22.613 41.4439 22.613C40.9239 22.613 40.4839 22.773 40.1239 23.093C39.7739 23.403 39.5589 23.838 39.4789 24.398H43.4239ZM58.6517 21.023L56.2217 29.333H53.9567L52.4417 23.528L50.9267 29.333H48.6467L46.2017 21.023H48.3317L49.8017 27.353L51.3917 21.023H53.6117L55.1717 27.338L56.6417 21.023H58.6517ZM69.7821 27.338H65.6121L64.9221 29.333H62.7171L66.4821 18.848H68.9271L72.6921 29.333H70.4721L69.7821 27.338ZM69.2121 25.658L67.6971 21.278L66.1821 25.658H69.2121ZM76.1995 18.233V29.333H74.0995V18.233H76.1995ZM80.3743 18.233V29.333H78.2743V18.233H80.3743ZM93.1483 18.863V20.558H90.3583V29.333H88.2583V20.558H85.4683V18.863H93.1483ZM102.406 24.998C102.406 25.298 102.386 25.568 102.346 25.808H96.2705C96.3205 26.408 96.5305 26.878 96.9005 27.218C97.2705 27.558 97.7255 27.728 98.2655 27.728C99.0455 27.728 99.6005 27.393 99.9305 26.723H102.196C101.956 27.523 101.496 28.183 100.816 28.703C100.136 29.213 99.3005 29.468 98.3105 29.468C97.5105 29.468 96.7905 29.293 96.1505 28.943C95.5205 28.583 95.0255 28.078 94.6655 27.428C94.3155 26.778 94.1405 26.028 94.1405 25.178C94.1405 24.318 94.3155 23.563 94.6655 22.913C95.0155 22.263 95.5055 21.763 96.1355 21.413C96.7655 21.063 97.4905 20.888 98.3105 20.888C99.1005 20.888 99.8055 21.058 100.426 21.398C101.056 21.738 101.541 22.223 101.881 22.853C102.231 23.473 102.406 24.188 102.406 24.998ZM100.231 24.398C100.221 23.858 100.026 23.428 99.6455 23.108C99.2655 22.778 98.8005 22.613 98.2505 22.613C97.7305 22.613 97.2905 22.773 96.9305 23.093C96.5805 23.403 96.3655 23.838 96.2855 24.398H100.231ZM103.398 25.148C103.398 24.308 103.563 23.563 103.893 22.913C104.233 22.263 104.688 21.763 105.258 21.413C105.838 21.063 106.483 20.888 107.193 20.888C107.813 20.888 108.353 21.013 108.813 21.263C109.283 21.513 109.658 21.828 109.938 22.208V21.023H112.053V29.333H109.938V28.118C109.668 28.508 109.293 28.833 108.813 29.093C108.343 29.343 107.798 29.468 107.178 29.468C106.478 29.468 105.838 29.288 105.258 28.928C104.688 28.568 104.233 28.063 103.893 27.413C103.563 26.753 103.398 25.998 103.398 25.148ZM109.938 25.178C109.938 24.668 109.838 24.233 109.638 23.873C109.438 23.503 109.168 23.223 108.828 23.033C108.488 22.833 108.123 22.733 107.733 22.733C107.343 22.733 106.983 22.828 106.653 23.018C106.323 23.208 106.053 23.488 105.843 23.858C105.643 24.218 105.543 24.648 105.543 25.148C105.543 25.648 105.643 26.088 105.843 26.468C106.053 26.838 106.323 27.123 106.653 27.323C106.993 27.523 107.353 27.623 107.733 27.623C108.123 27.623 108.488 27.528 108.828 27.338C109.168 27.138 109.438 26.858 109.638 26.498C109.838 26.128 109.938 25.688 109.938 25.178ZM113.564 25.178C113.564 24.318 113.739 23.568 114.089 22.928C114.439 22.278 114.924 21.778 115.544 21.428C116.164 21.068 116.874 20.888 117.674 20.888C118.704 20.888 119.554 21.148 120.224 21.668C120.904 22.178 121.359 22.898 121.589 23.828H119.324C119.204 23.468 118.999 23.188 118.709 22.988C118.429 22.778 118.079 22.673 117.659 22.673C117.059 22.673 116.584 22.893 116.234 23.333C115.884 23.763 115.709 24.378 115.709 25.178C115.709 25.968 115.884 26.583 116.234 27.023C116.584 27.453 117.059 27.668 117.659 27.668C118.509 27.668 119.064 27.288 119.324 26.528H121.589C121.359 27.428 120.904 28.143 120.224 28.673C119.544 29.203 118.694 29.468 117.674 29.468C116.874 29.468 116.164 29.293 115.544 28.943C114.924 28.583 114.439 28.083 114.089 27.443C113.739 26.793 113.564 26.038 113.564 25.178ZM127.808 20.903C128.438 20.903 128.998 21.043 129.488 21.323C129.978 21.593 130.358 21.998 130.628 22.538C130.908 23.068 131.048 23.708 131.048 24.458V29.333H128.948V24.743C128.948 24.083 128.783 23.578 128.453 23.228C128.123 22.868 127.673 22.688 127.103 22.688C126.523 22.688 126.063 22.868 125.723 23.228C125.393 23.578 125.228 24.083 125.228 24.743V29.333H123.128V18.233H125.228V22.058C125.498 21.698 125.858 21.418 126.308 21.218C126.758 21.008 127.258 20.903 127.808 20.903ZM140.77 24.998C140.77 25.298 140.75 25.568 140.71 25.808H134.635C134.685 26.408 134.895 26.878 135.265 27.218C135.635 27.558 136.09 27.728 136.63 27.728C137.41 27.728 137.965 27.393 138.295 26.723H140.56C140.32 27.523 139.86 28.183 139.18 28.703C138.5 29.213 137.665 29.468 136.675 29.468C135.875 29.468 135.155 29.293 134.515 28.943C133.885 28.583 133.39 28.078 133.03 27.428C132.68 26.778 132.505 26.028 132.505 25.178C132.505 24.318 132.68 23.563 133.03 22.913C133.38 22.263 133.87 21.763 134.5 21.413C135.13 21.063 135.855 20.888 136.675 20.888C137.465 20.888 138.17 21.058 138.79 21.398C139.42 21.738 139.905 22.223 140.245 22.853C140.595 23.473 140.77 24.188 140.77 24.998ZM138.595 24.398C138.585 23.858 138.39 23.428 138.01 23.108C137.63 22.778 137.165 22.613 136.615 22.613C136.095 22.613 135.655 22.773 135.295 23.093C134.945 23.403 134.73 23.838 134.65 24.398H138.595ZM144.403 22.313C144.673 21.873 145.023 21.528 145.453 21.278C145.893 21.028 146.393 20.903 146.953 20.903V23.108H146.398C145.738 23.108 145.238 23.263 144.898 23.573C144.568 23.883 144.403 24.423 144.403 25.193V29.333H142.303V21.023H144.403V22.313ZM151.547 29.468C150.867 29.468 150.257 29.348 149.717 29.108C149.177 28.858 148.747 28.523 148.427 28.103C148.117 27.683 147.947 27.218 147.917 26.708H150.032C150.072 27.028 150.227 27.293 150.497 27.503C150.777 27.713 151.122 27.818 151.532 27.818C151.932 27.818 152.242 27.738 152.462 27.578C152.692 27.418 152.807 27.213 152.807 26.963C152.807 26.693 152.667 26.493 152.387 26.363C152.117 26.223 151.682 26.073 151.082 25.913C150.462 25.763 149.952 25.608 149.552 25.448C149.162 25.288 148.822 25.043 148.532 24.713C148.252 24.383 148.112 23.938 148.112 23.378C148.112 22.918 148.242 22.498 148.502 22.118C148.772 21.738 149.152 21.438 149.642 21.218C150.142 20.998 150.727 20.888 151.397 20.888C152.387 20.888 153.177 21.138 153.767 21.638C154.357 22.128 154.682 22.793 154.742 23.633H152.732C152.702 23.303 152.562 23.043 152.312 22.853C152.072 22.653 151.747 22.553 151.337 22.553C150.957 22.553 150.662 22.623 150.452 22.763C150.252 22.903 150.152 23.098 150.152 23.348C150.152 23.628 150.292 23.843 150.572 23.993C150.852 24.133 151.287 24.278 151.877 24.428C152.477 24.578 152.972 24.733 153.362 24.893C153.752 25.053 154.087 25.303 154.367 25.643C154.657 25.973 154.807 26.413 154.817 26.963C154.817 27.443 154.682 27.873 154.412 28.253C154.152 28.633 153.772 28.933 153.272 29.153C152.782 29.363 152.207 29.468 151.547 29.468Z" fill="#212B36"/>
<rect x="0.5" y="0.833008" width="177" height="47" rx="7.5" stroke="#919EAB" stroke-opacity="0.32"/>
</svg>
