<svg width="19" height="19" viewBox="0 0 19 19" fill="none" xmlns="http://www.w3.org/2000/svg">
<path d="M12.125 13.3749C12.8154 13.3749 13.375 12.8153 13.375 12.1249C13.375 11.4346 12.8154 10.8749 12.125 10.8749C11.4346 10.8749 10.875 11.4346 10.875 12.1249C10.875 12.8153 11.4346 13.3749 12.125 13.3749Z" fill="#212B36"/>
<path d="M3.375 4.62495C4.06536 4.62495 4.625 4.0653 4.625 3.37495C4.625 2.68459 4.06536 2.12495 3.375 2.12495C2.68464 2.12495 2.125 2.68459 2.125 3.37495C2.125 4.0653 2.68464 4.62495 3.375 4.62495Z" fill="#212B36"/>
<path d="M15.875 18.3749C15.3805 18.3749 14.8972 18.2283 14.4861 17.9536C14.075 17.6789 13.7545 17.2885 13.5653 16.8317C13.3761 16.3748 13.3266 15.8722 13.423 15.3872C13.5195 14.9023 13.7576 14.4568 14.1072 14.1072C14.4569 13.7575 14.9023 13.5194 15.3873 13.423C15.8722 13.3265 16.3749 13.376 16.8317 13.5652C17.2885 13.7545 17.679 14.0749 17.9537 14.486C18.2284 14.8971 18.375 15.3805 18.375 15.8749C18.3731 16.5374 18.109 17.1721 17.6406 17.6406C17.1722 18.109 16.5374 18.373 15.875 18.3749ZM15.875 14.6249C15.6278 14.6249 15.3861 14.6983 15.1805 14.8356C14.975 14.973 14.8148 15.1682 14.7201 15.3966C14.6255 15.625 14.6008 15.8763 14.649 16.1188C14.6972 16.3613 14.8163 16.584 14.9911 16.7588C15.1659 16.9336 15.3887 17.0527 15.6311 17.1009C15.8736 17.1492 16.1249 17.1244 16.3534 17.0298C16.5818 16.9352 16.777 16.775 16.9143 16.5694C17.0517 16.3638 17.125 16.1222 17.125 15.8749C17.124 15.5437 16.992 15.2263 16.7578 14.9921C16.5236 14.7579 16.2062 14.6259 15.875 14.6249Z" fill="#212B36"/>
<path d="M17.75 8.99998C17.7432 6.68142 16.8192 4.45977 15.1797 2.8203C13.5402 1.18082 11.3186 0.256769 9 0.249976C7.50704 0.228667 6.0369 0.617821 4.75 1.37498L5.4375 2.43748C5.92605 2.20266 6.42676 1.99403 6.9375 1.81248C5.90431 3.85117 5.32841 6.09076 5.25 8.37498H1.5C1.57003 7.343 1.86893 6.33956 2.375 5.43748L1.4375 4.62498C0.659819 5.95183 0.249911 7.46201 0.25 8.99998C0.249861 10.1491 0.476091 11.287 0.91577 12.3486C1.35545 13.4103 1.99996 14.3749 2.8125 15.1875C3.62504 16 4.58969 16.6445 5.65135 17.0842C6.71302 17.5239 7.85089 17.7501 9 17.75C10.1142 17.7605 11.2192 17.548 12.25 17.125L11.875 15.9375C10.8503 16.3757 9.73736 16.5683 8.625 16.5C7.29217 14.45 6.55637 12.0695 6.5 9.62498H17.6875C17.7392 9.42089 17.7602 9.21025 17.75 8.99998ZM7 16.25C5.75716 15.8775 4.62142 15.2132 3.6875 14.3125C2.44742 13.0436 1.67598 11.3905 1.5 9.62498H5.25C5.336 11.9356 5.93371 14.1983 7 16.25ZM6.5 8.37498C6.54972 5.93842 7.26278 3.56153 8.5625 1.49998H9.4375C10.7372 3.56153 11.4503 5.93842 11.5 8.37498H6.5ZM12.75 8.37498C12.7025 6.05881 12.1025 3.78748 11 1.74998C12.4705 2.17383 13.7778 3.03416 14.7487 4.21714C15.7196 5.40012 16.3085 6.85 16.4375 8.37498H12.75Z" fill="#212B36"/>
</svg>
