<svg width="75" height="20" viewBox="0 0 75 20" fill="none" xmlns="http://www.w3.org/2000/svg">
<ellipse cx="69.1667" cy="14.1667" rx="4.16669" ry="4.16666" fill="#FA541C"/>
<path d="M49.4443 18.3333H45.3599L38.5287 8.05314V18.3333H34.4443V1.66663H38.5287L45.3599 11.9943V1.66663H49.4443V18.3333Z" fill="#212B36"/>
<path d="M55.6432 4.91924V8.29056H61.111V11.4245H55.6432V15.0807H61.6665V18.3333H51.6665V1.66663H61.6665V4.91924H55.6432Z" fill="#212B36"/>
<path d="M23.9119 18.3333C22.3841 18.3333 20.9798 17.9779 19.6989 17.267C18.4335 16.5561 17.4227 15.5671 16.6665 14.2999C15.9258 13.0173 15.5554 11.5801 15.5554 9.98837C15.5554 8.39665 15.9258 6.9672 16.6665 5.70001C17.4227 4.43281 18.4335 3.44379 19.6989 2.73292C20.9798 2.02206 22.3841 1.66663 23.9119 1.66663C25.4397 1.66663 26.8363 2.02206 28.1017 2.73292C29.3826 3.44379 30.3856 4.43281 31.111 5.70001C31.8517 6.9672 32.2221 8.39665 32.2221 9.98837C32.2221 11.5801 31.8517 13.0173 31.111 14.2999C30.3702 15.5671 29.3671 16.5561 28.1017 17.267C26.8363 17.9779 25.4397 18.3333 23.9119 18.3333ZM23.9119 14.7172C25.2082 14.7172 26.2421 14.2845 27.0137 13.4191C27.8008 12.5537 28.1943 11.4101 28.1943 9.98837C28.1943 8.55119 27.8008 7.40762 27.0137 6.55768C26.2421 5.69228 25.2082 5.25958 23.9119 5.25958C22.6001 5.25958 21.5508 5.68455 20.7637 6.5345C19.9921 7.38444 19.6063 8.53573 19.6063 9.98837C19.6063 11.4256 19.9921 12.5768 20.7637 13.4422C21.5508 14.2922 22.6001 14.7172 23.9119 14.7172Z" fill="#212B36"/>
<path d="M6.22968 15.0095H13.3332V18.3333H1.6665V15.2469L8.72296 4.99046H1.6665V1.66663H13.3332V4.75305L6.22968 15.0095Z" fill="#212B36"/>
</svg>
