<svg width="18" height="18" viewBox="0 0 18 18" fill="none" xmlns="http://www.w3.org/2000/svg">
<path d="M17.1251 16.2411L12.4051 11.521C13.5393 10.1594 14.1049 8.41288 13.9842 6.64485C13.8635 4.87682 13.0658 3.22339 11.7571 2.02851C10.4483 0.833631 8.72934 0.189302 6.95765 0.229562C5.18597 0.269822 3.49801 0.991571 2.24491 2.24467C0.991816 3.49776 0.270067 5.18572 0.229807 6.95741C0.189547 8.7291 0.833875 10.4481 2.02876 11.7568C3.22363 13.0655 4.87707 13.8632 6.6451 13.9839C8.41313 14.1046 10.1596 13.539 11.5213 12.4048L16.2413 17.1249L17.1251 16.2411ZM1.50015 7.1249C1.50015 6.01238 1.83005 4.92485 2.44813 3.99982C3.06621 3.0748 3.94472 2.35382 4.97255 1.92808C6.00039 1.50234 7.13139 1.39094 8.22253 1.60799C9.31367 1.82503 10.316 2.36076 11.1026 3.14743C11.8893 3.9341 12.425 4.93638 12.6421 6.02752C12.8591 7.11866 12.7477 8.24966 12.322 9.2775C11.8962 10.3053 11.1753 11.1838 10.2502 11.8019C9.3252 12.42 8.23767 12.7499 7.12515 12.7499C5.63381 12.7483 4.20403 12.1551 3.1495 11.1006C2.09497 10.046 1.5018 8.61624 1.50015 7.1249Z" fill="#212B36"/>
</svg>
