<svg width="18" height="16" viewBox="0 0 18 16" fill="none" xmlns="http://www.w3.org/2000/svg">
<path d="M14 8.625L15.195 10.9394L17.75 11.3106L15.875 13L16.3569 15.5L14 14.0938L11.6431 15.5L12.125 13L10.25 11.3106L12.875 10.9394L14 8.625Z" fill="#212B36"/>
<path d="M6.5 8H2.75V9.25H6.5V8Z" fill="#212B36"/>
<path d="M9 5.5H2.75V6.75H9V5.5Z" fill="#212B36"/>
<path d="M9 3H2.75V4.25H9V3Z" fill="#212B36"/>
<path d="M9 14.25H1.5V1.75H16.5V8H17.75V1.75C17.75 1.41848 17.6183 1.10054 17.3839 0.866116C17.1495 0.631696 16.8315 0.5 16.5 0.5H1.5C1.16848 0.5 0.850537 0.631696 0.616116 0.866116C0.381696 1.10054 0.25 1.41848 0.25 1.75V14.25C0.25 14.5815 0.381696 14.8995 0.616116 15.1339C0.850537 15.3683 1.16848 15.5 1.5 15.5H9V14.25Z" fill="#212B36"/>
</svg>
