<svg width="18" height="18" viewBox="0 0 18 18" fill="none" xmlns="http://www.w3.org/2000/svg">
<path d="M16.5 11.5H15.25V12.75H16.5V16.5H1.5V12.75H2.75V11.5H1.5C1.1686 11.5004 0.850889 11.6322 0.616555 11.8666C0.382221 12.1009 0.250397 12.4186 0.25 12.75V16.5C0.250397 16.8314 0.382221 17.1491 0.616555 17.3834C0.850889 17.6178 1.1686 17.7496 1.5 17.75H16.5C16.8314 17.7496 17.1491 17.6178 17.3834 17.3834C17.6178 17.1491 17.7496 16.8314 17.75 16.5V12.75C17.7496 12.4186 17.6178 12.1009 17.3834 11.8666C17.1491 11.6322 16.8314 11.5004 16.5 11.5Z" fill="#212B36"/>
<path d="M3.375 15.25C3.72018 15.25 4 14.9702 4 14.625C4 14.2798 3.72018 14 3.375 14C3.02982 14 2.75 14.2798 2.75 14.625C2.75 14.9702 3.02982 15.25 3.375 15.25Z" fill="#212B36"/>
<path d="M12.125 7.125C11.8465 7.12641 11.5719 7.19067 11.3216 7.313L9.88381 5.875L11.3213 4.437C11.5716 4.55937 11.8464 4.62364 12.125 4.625C12.4958 4.625 12.8584 4.51503 13.1667 4.30901C13.475 4.10298 13.7154 3.81014 13.8573 3.46753C13.9992 3.12492 14.0363 2.74792 13.964 2.38421C13.8916 2.02049 13.713 1.6864 13.4508 1.42418C13.1886 1.16195 12.8545 0.983376 12.4908 0.911028C12.1271 0.838681 11.7501 0.875812 11.4075 1.01773C11.0649 1.15964 10.772 1.39996 10.566 1.70831C10.36 2.01665 10.25 2.37916 10.25 2.75C10.2514 3.02843 10.3155 3.30298 10.4375 3.55325L9 4.99119L7.5625 3.55325C7.68452 3.30298 7.74861 3.02843 7.75 2.75C7.75 2.37916 7.64003 2.01665 7.43401 1.70831C7.22798 1.39996 6.93514 1.15964 6.59253 1.01773C6.24992 0.875812 5.87292 0.838681 5.50921 0.911028C5.14549 0.983376 4.8114 1.16195 4.54917 1.42418C4.28695 1.6864 4.10837 2.02049 4.03603 2.38421C3.96368 2.74792 4.00081 3.12492 4.14273 3.46753C4.28464 3.81014 4.52496 4.10298 4.83331 4.30901C5.14165 4.51503 5.50416 4.625 5.875 4.625C6.15353 4.62359 6.42814 4.55933 6.67838 4.437L8.11619 5.875L6.67838 7.313C6.42814 7.19067 6.15353 7.12641 5.875 7.125C5.50416 7.125 5.14165 7.23497 4.83331 7.441C4.52496 7.64702 4.28464 7.93986 4.14273 8.28247C4.00081 8.62508 3.96368 9.00208 4.03603 9.3658C4.10837 9.72951 4.28695 10.0636 4.54917 10.3258C4.8114 10.5881 5.14549 10.7666 5.50921 10.839C5.87292 10.9113 6.24992 10.8742 6.59253 10.7323C6.93514 10.5904 7.22798 10.35 7.43401 10.0417C7.64003 9.73335 7.75 9.37084 7.75 9C7.74861 8.72157 7.68452 8.44703 7.5625 8.19675L9 6.75881L10.4375 8.19675C10.3155 8.44703 10.2514 8.72157 10.25 9C10.25 9.37084 10.36 9.73335 10.566 10.0417C10.772 10.35 11.0649 10.5904 11.4075 10.7323C11.7501 10.8742 12.1271 10.9113 12.4908 10.839C12.8545 10.7666 13.1886 10.5881 13.4508 10.3258C13.713 10.0636 13.8916 9.72951 13.964 9.3658C14.0363 9.00208 13.9992 8.62508 13.8573 8.28247C13.7154 7.93986 13.475 7.64702 13.1667 7.441C12.8584 7.23497 12.4958 7.125 12.125 7.125ZM12.125 2.125C12.2486 2.125 12.3695 2.16166 12.4722 2.23033C12.575 2.29901 12.6551 2.39662 12.7024 2.51082C12.7497 2.62503 12.7621 2.75069 12.738 2.87193C12.7139 2.99317 12.6544 3.10453 12.5669 3.19194C12.4795 3.27935 12.3682 3.33888 12.2469 3.36299C12.1257 3.38711 12 3.37473 11.8858 3.32743C11.7716 3.28012 11.674 3.20001 11.6053 3.09723C11.5367 2.99445 11.5 2.87361 11.5 2.75C11.5001 2.58429 11.566 2.4254 11.6832 2.30822C11.8004 2.19105 11.9593 2.12515 12.125 2.125ZM5.25 2.75C5.25 2.62639 5.28666 2.50555 5.35533 2.40277C5.42401 2.29999 5.52162 2.21988 5.63582 2.17258C5.75003 2.12527 5.87569 2.11289 5.99693 2.13701C6.11817 2.16113 6.22953 2.22065 6.31694 2.30806C6.40435 2.39547 6.46387 2.50683 6.48799 2.62807C6.51211 2.74931 6.49973 2.87497 6.45242 2.98918C6.40512 3.10338 6.32501 3.20099 6.22223 3.26967C6.11945 3.33835 5.99861 3.375 5.875 3.375C5.70929 3.37485 5.5504 3.30896 5.43322 3.19178C5.31604 3.0746 5.25015 2.91572 5.25 2.75ZM5.875 9.625C5.75139 9.625 5.63055 9.58835 5.52777 9.51967C5.42499 9.451 5.34488 9.35338 5.29757 9.23918C5.25027 9.12498 5.23789 8.99931 5.26201 8.87807C5.28612 8.75683 5.34565 8.64547 5.43306 8.55806C5.52047 8.47065 5.63183 8.41113 5.75307 8.38701C5.87431 8.3629 5.99997 8.37527 6.11418 8.42258C6.22838 8.46988 6.32599 8.54999 6.39467 8.65277C6.46334 8.75555 6.5 8.87639 6.5 9C6.49985 9.16572 6.43396 9.3246 6.31678 9.44178C6.1996 9.55896 6.04071 9.62485 5.875 9.625ZM12.125 9.625C12.0014 9.625 11.8805 9.58835 11.7778 9.51967C11.675 9.451 11.5949 9.35338 11.5476 9.23918C11.5003 9.12498 11.4879 8.99931 11.512 8.87807C11.5361 8.75683 11.5957 8.64547 11.6831 8.55806C11.7705 8.47065 11.8818 8.41113 12.0031 8.38701C12.1243 8.3629 12.25 8.37527 12.3642 8.42258C12.4784 8.46988 12.576 8.54999 12.6447 8.65277C12.7133 8.75555 12.75 8.87639 12.75 9C12.7499 9.16572 12.684 9.3246 12.5668 9.44178C12.4496 9.55896 12.2907 9.62485 12.125 9.625Z" fill="#212B36"/>
</svg>
