<svg width="18" height="17" viewBox="0 0 18 17" fill="none" xmlns="http://www.w3.org/2000/svg">
<path d="M5.25 16.75H1.5C1.16848 16.75 0.850537 16.6183 0.616116 16.3839C0.381696 16.1495 0.25 15.8315 0.25 15.5V8C0.25 7.66848 0.381696 7.35054 0.616116 7.11612C0.850537 6.8817 1.16848 6.75 1.5 6.75H5.25C5.58152 6.75 5.89946 6.8817 6.13388 7.11612C6.3683 7.35054 6.5 7.66848 6.5 8V15.5C6.5 15.8315 6.3683 16.1495 6.13388 16.3839C5.89946 16.6183 5.58152 16.75 5.25 16.75ZM1.5 8V15.5H5.25V8H1.5Z" fill="#212B36"/>
<path d="M16.5 0.5H2.75C2.41848 0.5 2.10054 0.631696 1.86612 0.866116C1.6317 1.10054 1.5 1.41848 1.5 1.75V5.5H2.75V1.75H16.5V10.5H7.75V11.75H9V14.25H7.75V15.5H13.375V14.25H10.25V11.75H16.5C16.8315 11.75 17.1495 11.6183 17.3839 11.3839C17.6183 11.1495 17.75 10.8315 17.75 10.5V1.75C17.75 1.41848 17.6183 1.10054 17.3839 0.866116C17.1495 0.631696 16.8315 0.5 16.5 0.5Z" fill="#212B36"/>
</svg>
