<svg width="16" height="18" viewBox="0 0 16 18" fill="none" xmlns="http://www.w3.org/2000/svg">
<path d="M15.75 14.6249L14.8663 13.7412L13.25 15.3574V10.2499H12V15.3574L10.3837 13.7412L9.5 14.6249L12.625 17.7499L15.75 14.6249Z" fill="#212B36"/>
<path d="M8.25 16.5H2V1.49997H7V5.24997C7.00096 5.5812 7.13296 5.89858 7.36717 6.1328C7.60139 6.36701 7.91877 6.49901 8.25 6.49997H12V8.37497H13.25V5.24997C13.2522 5.16783 13.2366 5.08617 13.2043 5.01064C13.1719 4.93511 13.1235 4.8675 13.0625 4.81247L8.6875 0.437471C8.63248 0.376426 8.56487 0.328048 8.48934 0.295676C8.41381 0.263305 8.33215 0.247711 8.25 0.249971H2C1.66877 0.250927 1.35139 0.38293 1.11717 0.617144C0.882959 0.851357 0.750956 1.16874 0.75 1.49997V16.5C0.750956 16.8312 0.882959 17.1486 1.11717 17.3828C1.35139 17.617 1.66877 17.749 2 17.75H8.25V16.5ZM8.25 1.74997L11.75 5.24997H8.25V1.74997Z" fill="#212B36"/>
</svg>
