<svg width="9" height="14" viewBox="0 0 9 14" fill="none" xmlns="http://www.w3.org/2000/svg">
<path d="M8.75 0.62504C8.75 0.525584 8.71049 0.430201 8.64017 0.359875C8.56984 0.289549 8.47446 0.25004 8.375 0.25004H6.5C5.55584 0.203008 4.63145 0.531584 3.92879 1.16397C3.22613 1.79637 2.80234 2.68116 2.75 3.62504V5.65004H0.875C0.775544 5.65004 0.680161 5.68955 0.609835 5.75988C0.539509 5.8302 0.5 5.92558 0.5 6.02504V7.97504C0.5 8.0745 0.539509 8.16988 0.609835 8.2402C0.680161 8.31053 0.775544 8.35004 0.875 8.35004H2.75V13.375C2.75 13.4745 2.78951 13.5699 2.85983 13.6402C2.93016 13.7105 3.02554 13.75 3.125 13.75H5.375C5.47446 13.75 5.56984 13.7105 5.64017 13.6402C5.71049 13.5699 5.75 13.4745 5.75 13.375V8.35004H7.715C7.79839 8.35124 7.8798 8.3246 7.94636 8.27434C8.01292 8.22409 8.06082 8.15308 8.0825 8.07254L8.6225 6.12254C8.63742 6.06713 8.63943 6.00904 8.62836 5.95273C8.6173 5.89643 8.59346 5.84341 8.55869 5.79777C8.52391 5.75212 8.47912 5.71507 8.42777 5.68946C8.37642 5.66385 8.31988 5.65036 8.2625 5.65004H5.75V3.62504C5.76866 3.4394 5.85584 3.26737 5.99452 3.14256C6.1332 3.01775 6.31343 2.94911 6.5 2.95004H8.375C8.47446 2.95004 8.56984 2.91053 8.64017 2.8402C8.71049 2.76988 8.75 2.6745 8.75 2.57504V0.62504Z" fill="#1877F2"/>
</svg>
