<svg width="14" height="14" viewBox="0 0 14 14" fill="none" xmlns="http://www.w3.org/2000/svg">
<path d="M12.7375 0.25H1.2625C0.7 0.25 0.25 0.7 0.25 1.20625V12.7375C0.25 13.2438 0.7 13.6937 1.2625 13.6937H12.7375C13.3 13.6937 13.75 13.2438 13.75 12.7375V1.20625C13.75 0.7 13.3 0.25 12.7375 0.25ZM4.24375 11.725H2.275V5.3125H4.24375V11.725ZM3.2875 4.4125C2.66875 4.4125 2.10625 3.90625 2.10625 3.23125C2.10625 2.55625 2.6125 2.05 3.2875 2.05C3.90625 2.05 4.46875 2.55625 4.46875 3.23125C4.46875 3.90625 3.90625 4.4125 3.2875 4.4125ZM11.7812 11.6687H9.8125V8.51875C9.8125 7.7875 9.8125 6.775 8.74375 6.775C7.675 6.775 7.5625 7.61875 7.5625 8.40625V11.6125H5.59375V5.3125H7.45V6.15625H7.50625C7.7875 5.65 8.4625 5.0875 9.41875 5.0875C11.4437 5.0875 11.8375 6.4375 11.8375 8.18125V11.6687H11.7812Z" fill="#007EBB"/>
</svg>
