<svg width="14" height="14" viewBox="0 0 14 14" fill="none" xmlns="http://www.w3.org/2000/svg">
<path fill-rule="evenodd" clip-rule="evenodd" d="M4 1.75C2.75736 1.75 1.75 2.75736 1.75 4V10C1.75 11.2426 2.75736 12.25 4 12.25H10C11.2426 12.25 12.25 11.2426 12.25 10V4C12.25 2.75736 11.2426 1.75 10 1.75H4ZM0.25 4C0.25 1.92893 1.92893 0.25 4 0.25H10C12.0711 0.25 13.75 1.92893 13.75 4V10C13.75 12.0711 12.0711 13.75 10 13.75H4C1.92893 13.75 0.25 12.0711 0.25 10V4ZM7 5.5C6.17157 5.5 5.5 6.17157 5.5 7C5.5 7.82843 6.17157 8.5 7 8.5C7.82843 8.5 8.5 7.82843 8.5 7C8.5 6.17157 7.82843 5.5 7 5.5ZM4 7C4 5.34315 5.34315 4 7 4C8.65685 4 10 5.34315 10 7C10 8.65685 8.65685 10 7 10C5.34315 10 4 8.65685 4 7Z" fill="#E02D69"/>
</svg>
