<svg width="18" height="14" viewBox="0 0 18 14" fill="none" xmlns="http://www.w3.org/2000/svg">
<path d="M15.25 3.25H10.875V4.5H15.25V3.25Z" fill="#919EAB"/>
<path d="M15.25 6.375H10.875V7.625H15.25V6.375Z" fill="#919EAB"/>
<path d="M15.25 9.5H10.875V10.75H15.25V9.5Z" fill="#919EAB"/>
<path d="M16.5 0.125H1.5C1.16858 0.125331 0.850831 0.257133 0.616482 0.491482C0.382133 0.725831 0.250331 1.04358 0.25 1.375V12.625C0.25038 12.9564 0.382199 13.2741 0.616537 13.5085C0.850875 13.7428 1.1686 13.8746 1.5 13.875H16.5C16.8314 13.8746 17.1491 13.7427 17.3834 13.5084C17.6177 13.2741 17.7496 12.9564 17.75 12.625V1.375C17.7496 1.0436 17.6178 0.725875 17.3835 0.491537C17.1491 0.257199 16.8314 0.12538 16.5 0.125ZM1.5 1.375H8.375V12.625H1.5V1.375ZM9.625 12.625V1.375H16.5L16.5013 12.625H9.625Z" fill="#919EAB"/>
</svg>
