<svg width="12" height="7" viewBox="0 0 12 7" fill="none" xmlns="http://www.w3.org/2000/svg">
<path d="M5.99992 6.33342C5.80521 6.3338 5.61652 6.26599 5.46659 6.14175L0.46659 1.97509C0.112207 1.68053 0.0637046 1.15447 0.358257 0.800086C0.652808 0.445703 1.17887 0.397201 1.53326 0.691753L5.99992 4.42509L10.4666 0.825086C10.6388 0.685277 10.8595 0.619862 11.0801 0.643323C11.3006 0.666784 11.5027 0.777186 11.6416 0.950086C11.7959 1.1233 11.871 1.35298 11.8488 1.58389C11.8267 1.81479 11.7093 2.02601 11.5249 2.16675L6.52492 6.19175C6.37069 6.29635 6.18584 6.34623 5.99992 6.33342Z" fill="#637381"/>
</svg>
