<svg width="17" height="19" viewBox="0 0 17 19" fill="none" xmlns="http://www.w3.org/2000/svg">
<path d="M1.25 18.8321C1.05109 18.8321 0.860322 18.7531 0.71967 18.6124C0.579018 18.4718 0.5 18.281 0.5 18.0821L0.5 1.58209C0.49999 1.45175 0.533947 1.32366 0.598521 1.21045C0.663096 1.09723 0.75606 1.0028 0.868249 0.936457C0.980438 0.870116 1.10798 0.834156 1.2383 0.832123C1.36862 0.830089 1.49722 0.862053 1.61143 0.924862L16.6114 9.17486C16.7291 9.23958 16.8273 9.3347 16.8956 9.45031C16.964 9.56591 17 9.69775 17 9.83205C17 9.96635 16.964 10.0982 16.8956 10.2138C16.8273 10.3294 16.7291 10.4245 16.6114 10.4892L1.61143 18.7392C1.50069 18.8001 1.37637 18.8321 1.25 18.8321ZM2 2.85026L2 16.8137L14.6936 9.83209L2 2.85026Z" fill="#FA541C"/>
</svg>
