<svg width="20" height="18" viewBox="0 0 20 18" fill="none" xmlns="http://www.w3.org/2000/svg">
<path d="M16.25 7.75H15V9H16.25C16.7471 9.00055 17.2237 9.19827 17.5752 9.54978C17.9267 9.90129 18.1245 10.3779 18.125 10.875V13.375H19.375V10.875C19.374 10.0465 19.0445 9.25219 18.4586 8.66635C17.8728 8.08051 17.0785 7.75096 16.25 7.75Z" fill="#919EAB"/>
<path d="M15 1.5C15.3708 1.5 15.7334 1.60997 16.0417 1.81599C16.35 2.02202 16.5904 2.31486 16.7323 2.65747C16.8742 3.00008 16.9113 3.37708 16.839 3.74079C16.7666 4.10451 16.588 4.4386 16.3258 4.70083C16.0636 4.96305 15.7295 5.14163 15.3658 5.21397C15.0021 5.28632 14.6251 5.24919 14.2825 5.10727C13.9399 4.96536 13.647 4.72504 13.441 4.41669C13.235 4.10835 13.125 3.74584 13.125 3.375C13.125 2.87772 13.3225 2.40081 13.6742 2.04917C14.0258 1.69754 14.5027 1.5 15 1.5ZM15 0.25C14.3819 0.25 13.7777 0.433278 13.2638 0.776657C12.7499 1.12004 12.3494 1.6081 12.1129 2.17911C11.8764 2.75013 11.8145 3.37847 11.935 3.98466C12.0556 4.59085 12.3533 5.14767 12.7903 5.58471C13.2273 6.02175 13.7842 6.31938 14.3903 6.43995C14.9965 6.56053 15.6249 6.49865 16.1959 6.26212C16.7669 6.0256 17.255 5.62506 17.5983 5.11116C17.9417 4.59725 18.125 3.99307 18.125 3.375C18.125 2.5462 17.7958 1.75134 17.2097 1.16529C16.6237 0.57924 15.8288 0.25 15 0.25Z" fill="#919EAB"/>
<path d="M14.375 17.75H13.125V16.5C13.1245 16.0029 12.9267 15.5263 12.5752 15.1748C12.2237 14.8233 11.7471 14.6255 11.25 14.625H8.75C8.25289 14.6255 7.77629 14.8233 7.42478 15.1748C7.07326 15.5263 6.87555 16.0029 6.875 16.5V17.75H5.625V16.5C5.62598 15.6715 5.95553 14.8772 6.54137 14.2914C7.12721 13.7055 7.9215 13.376 8.75 13.375H11.25C12.0785 13.376 12.8728 13.7055 13.4586 14.2914C14.0445 14.8772 14.374 15.6715 14.375 16.5V17.75Z" fill="#919EAB"/>
<path d="M10 7.125C10.3708 7.125 10.7334 7.23497 11.0417 7.44099C11.35 7.64702 11.5904 7.93986 11.7323 8.28247C11.8742 8.62508 11.9113 9.00208 11.839 9.36579C11.7666 9.72951 11.588 10.0636 11.3258 10.3258C11.0636 10.588 10.7295 10.7666 10.3658 10.839C10.0021 10.9113 9.62508 10.8742 9.28247 10.7323C8.93986 10.5904 8.64702 10.35 8.44099 10.0417C8.23497 9.73335 8.125 9.37084 8.125 9C8.125 8.50272 8.32254 8.02581 8.67417 7.67417C9.0258 7.32254 9.50272 7.125 10 7.125ZM10 5.875C9.38193 5.875 8.77775 6.05828 8.26384 6.40166C7.74994 6.74504 7.3494 7.2331 7.11288 7.80411C6.87635 8.37513 6.81447 9.00347 6.93504 9.60966C7.05562 10.2158 7.35325 10.7727 7.79029 11.2097C8.22733 11.6467 8.78415 11.9444 9.39034 12.065C9.99653 12.1855 10.6249 12.1236 11.1959 11.8871C11.7669 11.6506 12.255 11.2501 12.5983 10.7362C12.9417 10.2223 13.125 9.61807 13.125 9C13.125 8.1712 12.7958 7.37634 12.2097 6.79029C11.6237 6.20424 10.8288 5.875 10 5.875Z" fill="#919EAB"/>
<path d="M5 7.75H3.75C2.9215 7.75098 2.12721 8.08053 1.54137 8.66637C0.955529 9.25221 0.625976 10.0465 0.625 10.875V13.375H1.875V10.875C1.87555 10.3779 2.07327 9.90129 2.42478 9.54978C2.77629 9.19827 3.25289 9.00055 3.75 9H5V7.75Z" fill="#919EAB"/>
<path d="M5 1.5C5.37084 1.5 5.73335 1.60997 6.04169 1.81599C6.35004 2.02202 6.59036 2.31486 6.73227 2.65747C6.87419 3.00008 6.91132 3.37708 6.83897 3.74079C6.76662 4.10451 6.58805 4.4386 6.32583 4.70083C6.0636 4.96305 5.72951 5.14163 5.36579 5.21397C5.00208 5.28632 4.62508 5.24919 4.28247 5.10727C3.93986 4.96536 3.64702 4.72504 3.44099 4.41669C3.23497 4.10835 3.125 3.74584 3.125 3.375C3.125 2.87772 3.32254 2.40081 3.67417 2.04917C4.02581 1.69754 4.50272 1.5 5 1.5ZM5 0.25C4.38193 0.25 3.77775 0.433278 3.26384 0.776657C2.74994 1.12004 2.3494 1.6081 2.11288 2.17911C1.87635 2.75013 1.81447 3.37847 1.93505 3.98466C2.05562 4.59085 2.35325 5.14767 2.79029 5.58471C3.22733 6.02175 3.78415 6.31938 4.39034 6.43995C4.99653 6.56053 5.62487 6.49865 6.19589 6.26212C6.7669 6.0256 7.25496 5.62506 7.59834 5.11116C7.94172 4.59725 8.125 3.99307 8.125 3.375C8.125 2.5462 7.79576 1.75134 7.20971 1.16529C6.62366 0.57924 5.8288 0.25 5 0.25Z" fill="#919EAB"/>
</svg>
