<svg width="14" height="12" viewBox="0 0 14 12" fill="none" xmlns="http://www.w3.org/2000/svg">
<path d="M4.705 11.0289C5.65514 11.0348 6.59701 10.8521 7.47599 10.4913C8.35496 10.1304 9.15354 9.59863 9.8254 8.92676C10.4973 8.2549 11.029 7.45632 11.3899 6.57735C11.7507 5.69838 11.9335 4.7565 11.9275 3.80636C11.9275 3.69386 11.9275 3.58699 11.9275 3.47449C12.42 3.11364 12.8463 2.67021 13.1875 2.16386C12.7237 2.3667 12.233 2.50122 11.7306 2.56324C12.2633 2.24586 12.6629 1.7463 12.8556 1.15699C12.3592 1.4548 11.8149 1.66416 11.2469 1.77574C10.8643 1.36813 10.3581 1.09796 9.80657 1.00702C9.25502 0.916079 8.68887 1.00944 8.19573 1.27267C7.70258 1.53589 7.30993 1.9543 7.07853 2.46316C6.84713 2.97201 6.78987 3.54294 6.91563 4.08761C5.90651 4.03808 4.91915 3.77656 4.01783 3.32009C3.1165 2.86361 2.32143 2.22241 1.68438 1.43824C1.36314 1.99577 1.26578 2.65455 1.41199 3.28117C1.5582 3.90779 1.93707 4.45545 2.47187 4.81324C2.07734 4.79802 1.69194 4.69011 1.34687 4.49824V4.52636C1.34337 5.10902 1.53966 5.67528 1.90302 6.13076C2.26639 6.58625 2.77488 6.90345 3.34375 7.02949C2.9768 7.12818 2.59241 7.14356 2.21875 7.07449C2.38344 7.57139 2.69782 8.00518 3.11878 8.31637C3.53973 8.62755 4.04664 8.80089 4.57 8.81261C3.67518 9.53291 2.56305 9.92939 1.41438 9.93761C1.21297 9.93178 1.01205 9.91488 0.8125 9.88699C1.97516 10.6277 3.32643 11.0183 4.705 11.012" fill="#00AAEC"/>
</svg>
