<svg width="16" height="22" viewBox="0 0 16 22" fill="none" xmlns="http://www.w3.org/2000/svg">
<path d="M14 9.5H12.5V5C12.5 3.80653 12.0259 2.66193 11.182 1.81802C10.3381 0.974106 9.19347 0.5 8 0.5C6.80653 0.5 5.66193 0.974106 4.81802 1.81802C3.97411 2.66193 3.5 3.80653 3.5 5V9.5H2C1.60218 9.5 1.22064 9.65804 0.93934 9.93934C0.658035 10.2206 0.5 10.6022 0.5 11V20C0.5 20.3978 0.658035 20.7794 0.93934 21.0607C1.22064 21.342 1.60218 21.5 2 21.5H14C14.3978 21.5 14.7794 21.342 15.0607 21.0607C15.342 20.7794 15.5 20.3978 15.5 20V11C15.5 10.6022 15.342 10.2206 15.0607 9.93934C14.7794 9.65804 14.3978 9.5 14 9.5ZM5 5C5 4.20435 5.31607 3.44129 5.87868 2.87868C6.44129 2.31607 7.20435 2 8 2C8.79565 2 9.55871 2.31607 10.1213 2.87868C10.6839 3.44129 11 4.20435 11 5V9.5H5V5ZM14 20H2V11H14V20Z" fill="#919EAB"/>
</svg>
