<svg width="94" height="29" viewBox="0 0 94 29" fill="none" xmlns="http://www.w3.org/2000/svg">
<path fill-rule="evenodd" clip-rule="evenodd" d="M27.0533 20.1181C27.1014 20.236 27.1495 20.3539 27.1976 20.4686C27.5748 21.5356 27.6908 22.5442 27.4603 23.553C27.1408 25.6865 25.7189 27.5308 23.6871 28.3386C22.9616 28.656 22.1492 28.8 21.3365 28.8C21.1043 28.8 20.8138 28.7715 20.5815 28.7421C19.6239 28.6269 18.6375 28.3101 17.6793 27.7624C16.5184 27.0991 15.3574 26.1481 14.0806 24.7643C12.8037 26.1481 11.6718 27.0991 10.4819 27.7624C9.52391 28.3101 8.53726 28.6269 7.5793 28.7421C7.34677 28.7712 7.05684 28.8 6.8246 28.8C6.01219 28.8 5.22849 28.656 4.47379 28.3386C2.4709 27.5308 1.02006 25.7153 0.700835 23.553C0.555286 22.5148 0.671551 21.5057 1.04905 20.4392C1.19402 20.0646 1.33899 19.7187 1.48395 19.4013C1.58717 19.1709 1.69045 18.9461 1.79116 18.727C1.91705 18.453 2.03893 18.1877 2.15168 17.9311L2.18096 17.8738C4.18356 13.5496 6.36012 9.16772 8.59495 4.84377L8.68222 4.6704C8.91979 4.22155 9.15185 3.76985 9.37836 3.31539C9.6683 2.79614 9.98781 2.24837 10.4233 1.72969C11.3807 0.634451 12.6865 0 14.138 0C15.5598 0 16.895 0.634451 17.8237 1.78758C18.2518 2.26619 18.5316 2.76852 18.8003 3.25085L18.8686 3.37328C19.0945 3.82802 19.3266 4.27973 19.5647 4.72829L19.6517 4.90166C21.9158 9.22561 24.0631 13.6072 26.066 17.9317L26.095 17.9605C26.2084 18.2184 26.331 18.4856 26.4578 18.7618C26.5576 18.9792 26.66 19.2022 26.7624 19.4307C26.8593 19.6428 26.9563 19.8805 27.0533 20.1181ZM49.6021 7.23649C49.6021 8.27442 48.7601 9.11018 47.7152 9.11018C46.6702 9.11018 45.8288 8.27442 45.8288 7.23649C45.8288 6.19856 46.6415 5.3628 47.7152 5.3628C48.7897 5.3916 49.6021 6.22765 49.6021 7.23649ZM41.8232 11.0131V11.4744C41.8232 11.4744 40.9238 10.3207 39.0082 10.3207C35.845 10.3207 33.3776 12.7137 33.3776 16.0288C33.3776 19.3154 35.816 21.7368 39.0082 21.7368C40.9528 21.7368 41.8232 20.5549 41.8232 20.5549V21.0448C41.8232 21.2755 41.9978 21.448 42.2297 21.448H44.5802V10.6082H42.2297C41.9978 10.609 41.8232 10.8112 41.8232 11.0131ZM39.4741 19.1427C40.5188 19.1427 41.3897 18.5949 41.8246 17.9605V14.0973C41.4187 13.492 40.4901 12.9154 39.4741 12.9154C37.6168 12.9154 36.1944 14.0685 36.1944 16.0289C36.1944 17.9896 37.6168 19.1427 39.4741 19.1427ZM46.3233 10.6091H49.1093V21.4489H46.3233V10.6091ZM85.1268 11.4743C85.1268 11.4743 86.0267 10.3206 87.9423 10.3206C91.0766 10.3206 93.5434 12.7432 93.5434 16.0298C93.5434 19.3163 91.0766 21.7372 87.9128 21.7372C85.9977 21.7372 85.0978 20.5553 85.0978 20.5553V21.0452C85.0978 21.2471 84.9241 21.4489 84.6919 21.4489H82.3408V5.39154H85.1268V11.4743ZM87.4779 19.1136C86.4036 19.1136 85.5623 18.5664 85.1268 17.9317V14.0685C85.5623 13.492 86.4909 12.8866 87.4779 12.8866C89.3352 12.8866 90.7573 14.0397 90.7573 16.0001C90.7573 17.9605 89.3355 19.1136 87.4779 19.1136ZM80.8889 21.4776V15.0202C80.8889 13.2039 80.5111 12.1662 79.5247 11.359C78.712 10.6672 77.6961 10.3207 76.4769 10.3207C75.4032 10.3207 74.3296 10.6381 73.5169 11.4744V11.0131C73.5169 10.8112 73.3427 10.6093 73.1104 10.6093H70.9054V21.4491H73.6909V13.8959C74.2432 13.2614 75.1142 12.8289 75.9556 12.8289C77.5218 12.8289 78.1023 13.55 78.1023 15.337V21.4776H80.8889ZM64.1431 10.3206C62.2281 10.3206 61.3281 11.4743 61.3281 11.4743V5.39154H58.5421V21.4489H60.8927C61.1249 21.4489 61.2991 21.2471 61.2991 21.0452V20.5553C61.2991 20.5553 62.1991 21.7372 64.1142 21.7372C67.2779 21.7372 69.7447 19.3163 69.7447 16.0298C69.7737 12.7429 67.3069 10.3206 64.1431 10.3206ZM61.3281 17.9317C61.7636 18.5664 62.605 19.1136 63.6787 19.1136C65.5366 19.1136 66.9584 17.9605 66.9584 16.0001C66.9584 14.0397 65.5366 12.8866 63.6787 12.8866C62.6923 12.8866 61.7636 13.492 61.3281 14.0685V17.9317ZM56.133 10.3206C56.9744 10.3206 57.4099 10.4651 57.4099 10.4651V13.0306C57.4099 13.0306 55.0881 12.2521 53.6373 13.8957V21.4775H50.8507V10.6091H53.2018C53.434 10.6091 53.6077 10.811 53.6077 11.0129V11.4743C54.1307 10.8686 55.2627 10.3206 56.133 10.3206ZM14.1087 21.9676C12.5413 20.0072 11.5253 18.1624 11.1774 16.606C11.0325 15.9428 11.0032 15.3662 11.0904 14.8473C11.1481 14.3859 11.3227 13.9821 11.5549 13.6362C12.1064 12.8584 13.0351 12.3679 14.109 12.3679C15.1832 12.3679 16.1409 12.8293 16.6633 13.6362C16.8956 13.9821 17.0695 14.3862 17.1281 14.8473C17.2148 15.3665 17.1858 15.9716 17.0408 16.606C16.6914 18.1336 15.6755 19.9787 14.1087 21.9676ZM23.0475 26.6959C24.4693 26.1193 25.4852 24.8216 25.6882 23.3226C25.8045 22.5733 25.7175 21.8521 25.4858 21.1034C25.4253 20.9027 25.3367 20.7023 25.2395 20.4828C25.197 20.3866 25.1528 20.2867 25.1086 20.1815C24.9928 19.9511 24.8843 19.7067 24.7757 19.4623C24.6666 19.2166 24.5575 18.9708 24.4409 18.7392V18.7104C22.4047 14.3468 20.2856 10.0218 18.0849 5.73771L17.9976 5.56434C17.884 5.35245 17.7702 5.13349 17.6563 4.91433C17.5381 4.68668 17.4197 4.45881 17.3012 4.23841C17.0689 3.77791 16.808 3.34534 16.4885 2.96951C15.879 2.27832 15.0666 1.90307 14.1667 1.90307C13.2667 1.90307 12.4543 2.27832 11.8449 2.96951C11.5253 3.34448 11.2644 3.77704 11.0322 4.23841C10.9196 4.4484 10.8069 4.66518 10.6942 4.88209C10.5747 5.112 10.4551 5.34206 10.3354 5.56434L10.2485 5.73771C8.01363 10.0041 5.86607 14.3859 3.86376 18.6816L3.83448 18.7389C3.60195 19.2288 3.37029 19.7193 3.16704 20.1806C3.12253 20.2868 3.07797 20.3875 3.03508 20.4845C2.93825 20.7034 2.84991 20.9031 2.78983 21.1031C2.49931 21.9103 2.44162 22.6309 2.5286 23.3514C2.73155 24.8504 3.74749 26.1481 5.16935 26.7247C5.83678 26.9839 6.59178 27.0994 7.37519 27.0127C8.10061 26.9266 8.82574 26.6959 9.58045 26.2633C10.6254 25.6868 11.6993 24.7928 12.8892 23.4666C11.0029 21.1316 9.81298 18.9693 9.37778 17.0671C9.14554 16.202 9.11684 15.3662 9.23282 14.6163C9.34879 13.8957 9.61031 13.2325 10.0165 12.6559C10.9162 11.3876 12.4256 10.6091 14.1084 10.6091C15.7912 10.6091 17.3006 11.3582 18.2009 12.6559C18.6071 13.2325 18.8686 13.8957 18.9843 14.6163C19.0718 15.3662 19.0425 16.1732 18.8393 17.0671C18.4038 18.9693 17.2429 21.1031 15.3276 23.4378C16.5468 24.7643 17.5914 25.6574 18.6363 26.2345C19.3905 26.6665 20.1165 26.8972 20.8419 26.9839C21.596 27.0706 22.351 26.9839 23.0475 26.6959Z" fill="#212B36"/>
</svg>
