<svg width="93" height="26" viewBox="0 0 93 26" fill="none" xmlns="http://www.w3.org/2000/svg">
<path d="M21.6452 0H3.27715C1.99715 0 0.973145 1.024 0.973145 2.304V23.296C0.973145 24.576 1.99715 25.6 3.27715 25.6H21.6452C22.9252 25.6 23.9492 24.576 23.9492 23.296V2.304C23.9492 1.024 22.9252 0 21.6452 0ZM22.6692 23.296C22.6692 23.872 22.2212 24.32 21.6452 24.32H3.27715C2.70115 24.32 2.25315 23.872 2.25315 23.296V2.304C2.25315 1.728 2.70115 1.28 3.27715 1.28H21.6452C22.2212 1.28 22.6692 1.728 22.6692 2.304V23.296ZM6.73315 21.76L9.61316 19.2L6.73315 16.64V21.76ZM17.1012 11.392C16.5892 10.88 15.6292 10.24 14.0292 10.24C12.3012 10.24 10.5092 10.688 9.22916 11.136V3.84H6.73315V14.912L8.52516 14.08C8.52516 14.08 11.4692 12.736 14.0292 12.736C15.3092 12.736 15.6292 13.44 15.6292 14.08V21.76H18.1892V14.08C18.1892 13.888 18.1892 12.48 17.1012 11.392ZM13.7092 8H16.2692C17.4212 6.656 17.9972 5.312 18.1892 3.84H15.6292C15.3732 5.312 14.7332 6.656 13.7092 8ZM84.4293 14.016V8.32H86.9893V13.952C86.9893 15.232 87.4373 15.872 88.4613 15.872C89.4853 15.872 89.8693 15.296 89.8693 13.952V8.32H92.3653V14.016C92.3653 16.512 91.1493 17.984 88.3973 17.984C85.6453 17.984 84.4293 16.512 84.4293 14.016ZM73.6772 8.384H76.2372V11.84L78.8613 8.384H81.8053L78.6053 12.096L82.0613 17.856H79.1813L76.9412 14.08L76.2372 14.912V17.856H73.6772V8.384ZM61.5172 13.056C61.5172 9.6 63.8852 8.128 66.1892 8.128C68.4932 8.128 70.8612 9.6 70.8612 13.056C70.8612 16.512 68.4932 17.984 66.1892 17.984C63.8852 17.984 61.5172 16.576 61.5172 13.056ZM68.2372 13.056C68.2372 11.328 67.4692 10.24 66.1252 10.24C64.7812 10.24 64.0132 11.328 64.0132 13.056C64.0132 14.784 64.7812 15.936 66.1252 15.936C67.4692 15.936 68.2372 14.848 68.2372 13.056ZM51.2132 8.384H54.9252C57.3572 8.384 58.8292 9.216 58.8292 11.456C58.8292 12.928 58.1892 13.824 56.9732 14.208L58.9572 17.856H56.2692L54.4132 14.592H53.7092V17.856H51.2132V8.384ZM54.8612 12.608C55.8852 12.608 56.3972 12.288 56.3972 11.52C56.3972 10.752 55.9492 10.432 54.8612 10.432H53.7732V12.608H54.8612ZM41.4212 8.384H48.2052V10.496H43.9812V12.032H46.9892V14.016H43.9812V15.744H48.3972V17.792H41.4212V8.384ZM29.8372 8.384H32.3972V11.904H35.5332V8.384H38.0932V17.856H35.5332V14.016H32.3972V17.856H29.8372V8.384Z" fill="#212B36"/>
</svg>
