<svg width="86" height="26" viewBox="0 0 86 26" fill="none" xmlns="http://www.w3.org/2000/svg">
<path d="M30.3605 10.0418C30.3605 7.50012 32.2137 5.72532 35.5815 5.72532C37.6364 5.72532 39.3179 6.38142 40.2289 7.02413C40.3593 7.1159 40.5919 7.33854 40.4524 7.75261C40.2737 8.19859 39.9459 8.86927 39.7107 9.30495C39.5738 9.55881 39.2243 9.52536 39.0452 9.43462C38.3963 9.1058 37.332 8.54954 36.3542 8.44696C36.1067 8.42001 35.8576 8.40924 35.6086 8.41471C34.7475 8.43393 34.0281 8.7329 33.7748 9.38985C33.7251 9.51416 33.6974 9.64614 33.693 9.77991C33.6693 10.6456 34.8741 10.9587 36.3337 11.2094C39.0471 11.6743 41.0999 12.4698 41.0999 15.2626C41.0999 17.6344 39.215 19.7778 35.5218 19.7121C33.0871 19.6629 31.3598 18.8402 30.4342 18.0419C30.4027 18.0148 30.0504 17.656 30.2392 17.2244C30.4553 16.6688 30.8202 16.0321 31.1065 15.694C31.2656 15.4769 31.6857 15.4424 31.9041 15.5777C32.667 16.0518 33.9226 16.8121 35.37 16.8625C35.4842 16.8664 35.5974 16.8671 35.7086 16.8642C37.0105 16.8326 37.7982 16.339 37.7817 15.5074C37.7676 14.7748 36.7354 14.3469 35.0916 14.0371C32.47 13.5432 30.3605 12.6791 30.3605 10.0418ZM54.1778 13.6609C52.3291 13.6851 50.634 14.1904 50.5852 15.6352C50.5846 16.7817 51.5147 17.3448 52.82 17.2711C54.0722 17.1505 55.0271 16.6074 55.4478 15.8868C55.6034 15.6198 55.6271 14.6204 55.6177 14.1933C55.6153 14.1024 55.4355 13.9304 55.3568 13.8973C54.964 13.7318 54.6734 13.681 54.1778 13.6609ZM48.0263 7.83924C48.8908 7.06564 50.6049 5.86151 53.3367 5.92498C56.9417 5.99994 58.8462 7.69001 59.0235 11.7329C59.0966 13.4002 58.9755 18.0507 58.9467 19.2093C58.9424 19.3756 58.8862 19.4905 58.6621 19.4948C58.0685 19.5186 56.6969 19.5092 56.0667 19.5009C55.7487 19.4855 55.7118 19.3277 55.7077 19.1625C55.705 19.0545 55.6957 18.734 55.689 18.4728C55.6854 18.3342 55.5552 18.3382 55.5219 18.3737C54.6763 19.2766 53.2914 19.7126 51.8186 19.7126C49.5802 19.7126 47.3486 18.3958 47.3554 15.788C47.3623 13.1173 49.256 11.8 51.3363 11.4894C52.6684 11.2911 54.17 11.4674 55.307 11.9192C55.3797 11.9484 55.5283 11.9062 55.5295 11.8031C55.5341 11.4628 55.5177 10.8142 55.4523 10.5068C55.2854 9.72365 54.6321 9.09345 53.2595 8.92364C52.9768 8.88882 52.6922 8.87733 52.4073 8.89997C51.3162 8.98573 50.0032 9.83652 49.4594 10.155C49.3315 10.2298 49.1311 10.1751 49.0663 10.0916C48.7489 9.68162 47.9513 8.48264 47.8885 8.29104C47.8258 8.09996 47.9146 7.93975 48.0263 7.83924ZM60.2122 12.8108C60.1908 9.08608 62.786 5.94385 67.0002 5.91623C69.6297 5.89908 71.54 7.0912 71.8769 7.65347C71.9454 7.78555 71.9102 7.89584 71.8629 8.02878C71.6402 8.49876 71.0779 9.40684 70.6772 9.92142C70.5066 10.1406 70.3213 9.95281 70.106 9.80958C69.5086 9.41164 68.3734 8.92501 67.2563 8.92501C65.2295 8.92535 63.7202 10.3151 63.737 12.8719C63.7528 15.3254 65.1984 16.6738 67.2633 16.7227C68.3427 16.7498 69.3885 16.1294 69.9512 15.6211C70.1278 15.4669 70.3107 15.5441 70.5126 15.7019C70.9088 16.1069 71.4771 16.7321 71.7922 17.1625C71.9985 17.4016 71.8442 17.6356 71.7699 17.7296C70.915 18.8114 69.2638 19.7219 67.0787 19.7342C62.5034 19.7663 60.2333 16.5488 60.2122 12.8108ZM82.0526 19.5663C82.2673 19.5502 84.5591 19.2339 85.2626 19.0728C85.4372 19.033 85.4993 18.8862 85.4017 18.7407C85.0089 18.1517 83.9761 16.479 82.8944 14.9815C81.8995 13.6047 80.851 12.3937 80.5119 11.9278C80.4292 11.8146 80.4337 11.7031 80.5237 11.6153C81.1688 10.984 83.8673 8.33821 84.8819 7.24558C85.2747 6.82053 85.0389 6.63768 84.7053 6.53836C84.0608 6.34625 83.0184 6.1068 82.4256 5.98176C82.1757 5.92892 81.8747 5.94745 81.6562 6.17215C80.6417 7.11813 77.5458 10.2254 76.6216 11.1542C76.4552 11.3218 76.3583 11.2846 76.3574 11.0451C76.3499 9.25435 76.3146 1.58737 76.2506 0.32629C76.2461 0.159564 76.0456 0.0329758 75.9326 0.0269723C75.3514 -0.00338824 73.8833 -0.0121363 73.3047 0.0218263C73.1426 0.0401799 72.9877 0.205362 72.9737 0.344986C72.8402 2.36147 73.0303 17.164 73.1095 19.2347C73.1152 19.3845 73.2267 19.5006 73.3689 19.509C73.9461 19.5424 75.3737 19.5402 76.0403 19.5277C76.3682 19.5277 76.4084 19.2972 76.4084 19.2972L76.4578 15.3251C76.4578 15.3251 76.4916 15.1484 76.5463 15.0901C76.7813 14.8371 77.4314 14.1403 77.7086 13.871C77.7751 13.8064 77.8801 13.811 77.948 13.9024C78.2774 14.3467 79.2165 15.791 80.087 17.0808C80.8868 18.2658 81.6335 19.3174 81.6856 19.3917C81.8061 19.5632 81.9465 19.5696 82.0526 19.5663ZM43.0754 19.5526C43.277 19.5593 44.8062 19.5575 45.4837 19.5567C45.7118 19.5611 45.8304 19.3884 45.8379 19.2359C45.9818 16.3326 45.9202 2.50985 45.8293 0.327147C45.8218 0.138466 45.741 0.0676247 45.6122 0.0504719C45.0307 -0.027402 43.3782 -0.0092202 42.8485 0.129375C42.7449 0.156305 42.6838 0.235036 42.6806 0.336238C42.5509 5.96237 42.6384 18.9334 42.6658 19.179C42.6931 19.425 42.8214 19.544 43.0754 19.5526Z" fill="#212B36"/>
<path d="M2.14976 13.78C1.20738 13.7872 0.40909 13.2256 0.114747 12.3491C0.103828 12.316 0.093648 12.2826 0.0842152 12.2491C-0.236543 11.1266 0.385419 9.9523 1.50018 9.57631L19.3803 3.586C19.5926 3.52459 19.8123 3.4925 20.0333 3.49063C21.0007 3.48309 21.821 4.05702 22.1225 4.95206L22.1493 5.03851C22.4838 6.20765 21.6527 7.25124 20.657 7.58572C20.6563 7.58623 20.4752 7.64747 2.87601 13.6563C2.64209 13.736 2.3969 13.7778 2.14976 13.78Z" fill="#212B36"/>
<path d="M5.12991 22.5734C4.18016 22.5802 3.37912 22.0265 3.08821 21.1626C3.07717 21.1297 3.06687 21.0966 3.05733 21.0632C2.73212 19.9274 3.35339 18.7407 4.47193 18.3642L22.3528 12.3191C22.5838 12.2419 22.8224 12.2024 23.0624 12.2002C24.0147 12.193 24.8514 12.7748 25.1466 13.6486L25.1741 13.7395C25.3468 14.3434 25.2447 15.0222 24.9013 15.5579C24.6454 15.9562 23.8382 16.3068 23.8382 16.3068L5.88944 22.4439C5.64465 22.5267 5.38833 22.5702 5.12991 22.5734Z" fill="#212B36"/>
<path d="M20.0147 22.6116C19.5513 22.6161 19.0983 22.4737 18.7207 22.205C18.3431 21.9362 18.0602 21.5548 17.9126 21.1154L11.9452 3.38965L11.9153 3.29016C11.592 2.15979 12.2138 0.980701 13.3282 0.605054C13.5512 0.530096 13.7817 0.490987 14.0138 0.488929C14.3586 0.486356 14.6922 0.564058 15.0064 0.719291C15.2653 0.847301 15.4963 1.02522 15.6861 1.24282C15.876 1.46042 16.0209 1.71341 16.1126 1.98723L22.0796 19.7114L22.0969 19.7684C22.4321 20.942 21.8117 22.1218 20.6972 22.4974C20.4771 22.5709 20.2468 22.6095 20.0147 22.6116Z" fill="#212B36"/>
<path d="M11.1444 25.5972C10.6806 25.6016 10.2274 25.4591 9.84963 25.1901C9.47186 24.9211 9.18894 24.5395 9.04143 24.0998L3.0755 6.3747C2.98306 6.10125 2.94546 5.81225 2.96486 5.52425C2.98426 5.23624 3.06027 4.95489 3.18854 4.6963C3.31682 4.43772 3.49483 4.20697 3.7124 4.01727C3.92997 3.82757 4.18282 3.68265 4.45647 3.59079C4.67693 3.5171 4.90758 3.47844 5.14002 3.47621C5.60356 3.47164 6.05665 3.61395 6.43434 3.88273C6.81202 4.15152 7.09491 4.53299 7.24244 4.97246L13.2085 22.6982C13.301 22.9718 13.3386 23.2609 13.3192 23.5491C13.2997 23.8372 13.2236 24.1187 13.0951 24.3773C12.9667 24.636 12.7885 24.8668 12.5707 25.0565C12.3529 25.2461 12.0999 25.391 11.826 25.4826C11.606 25.5564 11.3764 25.5952 11.1444 25.5972Z" fill="#212B36"/>
<path d="M17.0728 18.6198L21.2338 17.1972L19.8736 13.1577L15.7078 14.5654L17.0728 18.6198Z" fill="#212B36"/>
<path d="M8.2163 21.648L12.3769 20.2255L11.0064 16.1551L6.84167 17.5634L8.2163 21.648Z" fill="#212B36"/>
<path d="M14.1103 9.82102L18.2716 8.40026L16.9273 4.40794L12.7583 5.8047L14.1103 9.82102Z" fill="#212B36"/>
<path d="M5.25283 12.8451L9.4141 11.4244L8.05337 7.38112L3.88438 8.7777L5.25283 12.8451Z" fill="#212B36"/>
</svg>
