<svg width="85" height="24" viewBox="0 0 85 24" fill="none" xmlns="http://www.w3.org/2000/svg">
<path fill-rule="evenodd" clip-rule="evenodd" d="M22.4163 4.93806C22.6877 5.0917 23.1082 5.2088 23.5225 5.24586C23.7577 5.26671 24.2488 5.25333 24.4866 5.21935C25.2995 5.10303 25.9722 4.76408 26.6021 4.1531C27.1955 3.57738 27.5339 3.00424 27.6367 2.39995C27.6809 2.13924 27.6657 1.77096 27.6013 1.55709C27.4703 1.12086 27.1312 0.639075 26.7577 0.359064C26.3628 0.0628402 25.8962 -0.0434505 25.2509 0.0157429C24.201 0.111996 23.2377 0.595838 22.4243 1.43484C21.9883 1.88445 21.7324 2.3266 21.6363 2.79629C21.589 3.02637 21.5843 3.48756 21.6267 3.73C21.6807 4.04192 21.7875 4.31241 21.933 4.51032C22.0345 4.6475 22.2664 4.85313 22.4163 4.93806ZM70.8494 22.4145C71.8691 23.3716 73.1624 23.8853 74.8254 23.9945C75.0753 24.0107 76.1187 23.9888 76.3849 23.961C78.4493 23.7507 80.1606 22.9799 81.6586 21.585C82.6286 20.6822 83.4989 19.4865 84.0287 18.3284C84.6211 17.0346 84.9274 15.6739 84.9695 14.1493C85.0155 12.478 84.6227 11.0141 83.8292 9.89975C83.5002 9.43727 83.0559 8.96604 82.6984 8.69915C82.105 8.257 81.396 7.94637 80.6258 7.79118C80.0802 7.68128 79.6152 7.645 78.9303 7.65915C77.3206 7.69184 75.9187 8.02641 74.5902 8.69452C73.4242 9.28131 72.4767 10.0253 71.4785 11.1395C71.0117 11.6604 70.7181 12.0359 70.3899 12.5323C69.5765 13.761 69.1017 15.055 68.9598 16.4314C68.9055 16.9535 68.9068 17.6981 68.9624 18.2211L68.973 18.3214L68.5667 18.4949C66.5711 19.3468 64.873 19.8092 63.1403 19.9727C62.7265 20.0113 61.8477 20.0267 61.6063 19.9999C60.9761 19.9284 60.4711 19.704 60.0627 19.3128C59.9356 19.191 59.7309 18.9561 59.7526 18.9561C59.7877 18.9561 60.3357 18.8475 60.6316 18.7821C62.7934 18.3044 64.6949 17.3746 66.2372 16.0422C67.5507 14.9075 68.3602 13.8348 68.7169 12.7565C68.8768 12.2729 68.9244 11.9466 68.9094 11.437C68.8955 10.9521 68.813 10.5048 68.6639 10.1023C68.2069 8.86798 67.1808 8.16152 65.5401 7.95126C64.6755 7.84059 63.5039 7.88898 62.5083 8.07685C60.0715 8.53701 57.9038 9.87736 56.086 12.0469C55.4642 12.7894 54.9963 13.499 54.6045 14.2932C54.0299 15.4577 53.7573 16.5469 53.7263 17.8062C53.7164 18.1958 53.7387 18.8282 53.7671 18.9473C53.7735 18.9769 53.7433 19.0037 53.6081 19.0902C53.375 19.2394 53.1411 19.3588 52.9713 19.4155C52.8327 19.4618 52.8157 19.4633 52.5562 19.4541C52.2491 19.443 52.0953 19.4093 51.9186 19.3161C51.6784 19.1882 51.581 18.9862 51.5355 18.5209C51.4779 17.9336 51.5497 17.4801 52.0398 15.3265C52.4301 13.6125 52.5727 12.7475 52.6193 11.8199C52.6839 10.5267 52.4135 9.61459 51.763 8.93232C51.3406 8.48863 50.7356 8.22972 49.9488 8.15509C49.6764 8.12935 49.1326 8.14273 48.8121 8.18314C47.4808 8.35094 46.2593 8.95008 45.1034 10.0022C44.816 10.2637 44.3386 10.7529 44.0931 11.0378C43.9654 11.1858 43.7816 11.367 43.5787 11.5446L43.2626 11.8212L43.251 11.4491C43.2262 10.6744 43.1109 10.1249 42.8662 9.61665C42.7423 9.35456 42.5743 9.11553 42.3694 8.90993C41.8251 8.36458 41.029 8.11056 39.9693 8.14376C38.8315 8.17954 37.6884 8.5051 36.6579 9.08674C36.4511 9.20358 35.9835 9.51293 35.7801 9.66786C35.0538 10.2207 34.402 10.8968 33.9375 11.5783C33.8706 11.6766 33.8156 11.7471 33.8156 11.7353C33.8156 11.7234 33.8298 11.6349 33.8466 11.5386C33.8939 11.2689 33.889 10.6175 33.8373 10.2842C33.7421 9.67173 33.5374 9.14285 33.2025 8.64356C32.8776 8.15946 32.485 7.87637 31.9843 7.76544C31.9084 7.74846 31.7649 7.73687 31.6235 7.7361C31.425 7.73482 31.3697 7.74099 31.2643 7.77574C31.0236 7.855 30.7401 8.02049 30.3744 8.29406C29.8921 8.6554 29.5455 8.96166 28.3842 10.0524C27.4344 10.9446 26.6427 11.6794 26.4863 11.8145C26.4302 11.8632 26.3834 11.9079 26.3824 11.9141C26.3814 11.9229 27.2578 12.9284 27.3646 13.0411C27.3837 13.0617 27.4315 13.0347 27.6468 12.8821C28.1679 12.5127 28.5434 12.284 28.7225 12.2258C28.98 12.1424 29.1847 12.3097 29.21 12.6244C29.2211 12.7621 29.1873 13.3355 29.141 13.7985C29.0839 14.3704 28.9872 15.0372 28.799 16.1616C28.7013 16.7448 28.5956 17.4201 28.5646 17.6621C28.5333 17.904 28.5044 18.1199 28.5 18.142C28.4853 18.2174 27.6137 18.884 27.2113 19.1277C26.989 19.2626 26.707 19.3957 26.5714 19.4309C26.3367 19.4919 25.9908 19.4525 25.7494 19.3383C25.6476 19.2899 25.5804 19.2399 25.4781 19.1375C25.2056 18.8647 25.079 18.4951 25.0531 17.8981C25.0428 17.6603 25.0456 17.6348 25.1526 16.9705C25.4755 14.9747 25.7696 13.3206 26.0573 11.8871C26.2123 11.1148 26.2397 10.9526 26.254 10.7133C26.3044 9.87813 26.1345 9.14954 25.7598 8.58849C25.3483 7.97313 24.7523 7.6993 23.8924 7.7307C23.6623 7.73945 23.5814 7.74974 23.4486 7.78835C22.7613 7.98883 21.9425 8.57124 20.5352 9.86063C20.1933 10.1738 19.8753 10.4644 19.8288 10.5066L19.744 10.5828L19.7322 10.4345C19.6089 8.89604 19.0431 8.00222 17.972 7.65375C17.1842 7.39741 15.9472 7.4548 15.0364 7.78989C14.6208 7.94302 14.1475 8.21248 13.7924 8.49867C13.5797 8.67007 13.2199 9.03861 13.038 9.27153C12.536 9.91416 12.1527 10.6543 11.826 11.6125C11.7718 11.7721 11.7294 11.9118 11.7322 11.9226C11.7353 11.9352 11.8054 11.9172 11.9196 11.8742C12.3264 11.7214 12.6836 11.6544 13.0907 11.6544C13.4383 11.6544 13.5851 11.682 13.8035 11.789C14.0736 11.9213 14.2465 12.1409 14.3391 12.4695C14.3659 12.5665 14.3716 12.6515 14.3711 12.9727C14.3703 13.3047 14.3644 13.3852 14.3292 13.5466C14.1886 14.1931 13.7924 15.0375 13.1385 16.0865C12.345 17.3586 11.7666 17.9876 11.3618 18.0185C11.2721 18.0249 11.2416 18.0185 11.1421 17.9696C10.7723 17.7882 10.4249 17.0665 10.1124 15.8296C9.84982 14.7899 9.68131 13.8896 9.28327 11.3927C9.13052 10.4356 9.08529 10.2006 8.98527 9.84853C8.56656 8.37488 7.79375 7.68 6.63015 7.73121C6.16776 7.75129 5.77334 7.90648 5.15045 8.31388C4.56761 8.69478 4.06258 9.10398 3.19156 9.90104C2.55547 10.4813 1.91646 11.0584 1.27454 11.6323C0.990745 11.885 0.956628 11.9213 0.978597 11.9468C1.12742 12.137 1.27527 12.328 1.42212 12.5197C1.6904 12.8679 1.84858 13.0589 1.86254 13.0512C1.87417 13.0442 1.97497 12.9755 2.08611 12.898C2.48414 12.6208 2.9486 12.3233 3.10962 12.2425C3.26367 12.1661 3.27969 12.1612 3.37894 12.1712C3.62371 12.1957 3.91267 12.4214 4.14322 12.7683C4.44329 13.2192 4.78705 14.0513 5.04861 14.9585C5.33088 15.9879 5.61053 17.018 5.88759 18.0489C6.4071 19.9739 6.68055 20.9548 6.73534 21.095C7.38435 22.7519 8.13285 23.6599 9.03437 23.8838C9.23856 23.9348 9.6428 23.9376 9.91444 23.8897C11.3691 23.6349 13.0183 22.3903 14.9403 20.0977C15.9219 18.926 17.0653 17.3643 17.8138 16.1709C18.4933 15.0877 19.0821 13.9131 19.3504 13.1057L19.3987 12.96L19.7275 12.7258C20.1134 12.4512 20.2711 12.3496 20.4701 12.2479C20.6045 12.1792 20.6262 12.1735 20.751 12.1751C21.1961 12.1813 21.4548 12.5514 21.46 13.1886C21.4615 13.3834 21.4556 13.4182 21.3602 13.7906C21.239 14.2636 21.0405 14.9914 20.751 16.0278C20.3481 17.4693 20.1744 18.1696 20.0043 19.0374C19.7453 20.3595 19.7125 21.2126 19.8934 21.9114C19.9873 22.2743 20.0906 22.5121 20.2767 22.7931C20.744 23.4988 21.4621 23.8442 22.4633 23.8442C23.1426 23.8442 23.9105 23.7124 24.6125 23.4754C25.8825 23.0466 27.079 22.2951 28.3979 21.0978C28.4899 21.0142 28.568 20.9493 28.5716 20.9532C28.5925 21.0116 28.611 21.0708 28.6269 21.1308C28.7768 21.6548 29.035 22.1461 29.3343 22.4768C29.7747 22.9635 30.4144 23.3202 31.2082 23.5209C31.744 23.6565 32.2232 23.7142 32.9572 23.7304C33.4478 23.7415 33.4607 23.7412 33.4478 23.7078C33.355 23.4671 33.2593 23.0098 33.2131 22.5864C33.1267 21.7968 33.126 20.5978 33.2115 19.756C33.3694 18.2007 33.8241 16.6764 34.5568 15.2462C35.2154 13.9602 35.8422 13.1978 36.4291 12.9675C36.546 12.9217 36.5997 12.9119 36.7667 12.9055C36.9044 12.9001 37.0058 12.9063 37.0975 12.9256C37.5501 13.0213 37.8052 13.3111 37.915 13.8541C37.9489 14.0204 37.9435 14.6427 37.9057 14.9762C37.8383 15.5692 37.7362 16.0893 37.5248 16.9167C37.296 17.8116 37.1908 18.4228 37.1378 19.1633C37.0608 20.238 37.1247 20.9612 37.356 21.6308C37.7395 22.7421 38.6193 23.3626 40.1732 23.6185C40.6025 23.6892 40.9957 23.7199 41.6191 23.7312C42.1792 23.7417 42.1947 23.7412 42.1838 23.7078C42.1779 23.689 42.1363 23.5683 42.0915 23.4401C41.9959 23.1652 41.9142 22.7774 41.8706 22.3888C41.832 22.0452 41.8269 20.9854 41.862 20.6096C42.0305 18.8125 42.6516 17.0637 43.7837 15.2009C44.6043 13.8505 45.3329 13.0898 45.9612 12.9274C46.113 12.8882 46.4187 12.898 46.5387 12.9464C46.8767 13.0818 47.0664 13.3757 47.1435 13.8845C47.1781 14.1143 47.1781 14.6085 47.1427 14.9456C47.0835 15.5141 46.9214 16.3958 46.7361 17.1556C46.389 18.5839 46.3045 19.0019 46.2063 19.7832C46.0419 21.0896 46.1246 21.9991 46.4683 22.6683C46.7674 23.2509 47.2931 23.6257 48.0173 23.7718C48.5376 23.8774 49.2817 23.8632 49.9765 23.7345C51.4174 23.4684 52.8723 22.7169 54.2742 21.5148L54.5301 21.2955L54.6148 21.4422C54.7425 21.6549 54.8827 21.8599 55.0349 22.056C55.1863 22.2485 55.6577 22.7061 55.8562 22.8538C56.6495 23.444 57.6301 23.7873 58.8371 23.8985C59.3796 23.9484 60.2656 23.9368 61.0203 23.8699C63.3796 23.6619 65.7161 22.9434 67.9862 21.7276C68.3323 21.5426 69.1472 21.0765 69.4173 20.9092C69.5398 20.8333 69.6458 20.7715 69.6525 20.7715C69.6597 20.7715 69.7006 20.8418 69.7432 20.9282C69.9965 21.4373 70.4346 22.0254 70.8494 22.4145ZM78.9719 18.1508C78.152 19.5107 77.1923 20.2612 76.1055 20.3924C75.7377 20.4364 75.4097 20.4063 75.1877 20.3075C74.892 20.1762 74.6191 19.8787 74.4087 19.46C74.1078 18.8606 73.99 18.2234 74.0383 17.4564C74.1288 16.0229 74.5338 14.749 75.3027 13.4809C75.8964 12.5024 76.5304 11.8714 77.2968 11.498C77.7 11.3011 78.1156 11.1917 78.5881 11.1582C79.0047 11.1284 79.2034 11.1801 79.4221 11.3744C79.6281 11.5579 79.7816 11.8294 79.9321 12.2785C80.0975 12.7714 80.1714 13.2141 80.1874 13.8086C80.2267 15.2735 79.8114 16.7585 78.9719 18.1508ZM59.3324 17.2381C61.0047 16.5726 62.5162 15.3944 63.4092 14.0604C63.6873 13.6448 63.863 13.2508 63.9183 12.9185C63.945 12.761 63.9318 12.463 63.8912 12.2942C63.8591 12.1596 63.7767 11.9912 63.7012 11.9058C63.626 11.8209 63.489 11.7362 63.3541 11.6922C63.2192 11.6477 62.8393 11.6387 62.6638 11.6757C61.9176 11.833 61.1828 12.4015 60.4436 13.3949C59.6405 14.4735 59.2016 15.4911 59.1003 16.51C59.074 16.7725 59.0755 17.321 59.1027 17.321C59.114 17.3212 59.2174 17.2837 59.3324 17.2381Z" fill="#212B36"/>
</svg>
