<svg width="163" height="57" viewBox="0 0 163 57" fill="none" xmlns="http://www.w3.org/2000/svg">
<rect x="0.5" y="0.333008" width="162" height="56" rx="8" fill="url(#paint0_linear_24423_22306)"/>
<path d="M32.8547 28.9811C32.8437 27.1162 33.6887 25.7107 35.3949 24.6744C34.4406 23.3072 32.9969 22.5553 31.0937 22.4104C29.2918 22.2682 27.3203 23.4604 26.5984 23.4604C25.8355 23.4604 24.091 22.4596 22.7184 22.4596C19.8855 22.5033 16.875 24.7182 16.875 29.2244C16.875 30.5561 17.1184 31.9314 17.6051 33.3479C18.2559 35.2127 20.602 39.7818 23.0492 39.708C24.3289 39.6779 25.234 38.8002 26.8992 38.8002C28.5152 38.8002 29.352 39.708 30.7793 39.708C33.2484 39.6725 35.3703 35.5189 35.9883 33.6486C32.677 32.0873 32.8547 29.0768 32.8547 28.9811ZM29.9809 20.6412C31.3672 18.9951 31.2414 17.4967 31.2004 16.958C29.9754 17.0291 28.559 17.792 27.7523 18.7299C26.8637 19.7361 26.3414 20.9803 26.4535 22.383C27.777 22.4842 28.9855 21.8033 29.9809 20.6412Z" fill="white"/>
<path opacity="0.72" d="M52.1452 11.969C53.0572 11.969 53.8452 12.141 54.5092 12.485C55.1812 12.821 55.6932 13.305 56.0452 13.937C56.4052 14.569 56.5852 15.313 56.5852 16.169C56.5852 17.025 56.4052 17.769 56.0452 18.401C55.6932 19.025 55.1812 19.505 54.5092 19.841C53.8452 20.169 53.0572 20.333 52.1452 20.333H49.5412V11.969H52.1452ZM52.1452 19.433C53.2252 19.433 54.0492 19.149 54.6172 18.581C55.1852 18.005 55.4692 17.201 55.4692 16.169C55.4692 15.129 55.1812 14.317 54.6052 13.733C54.0372 13.149 53.2172 12.857 52.1452 12.857H50.6332V19.433H52.1452ZM60.8936 20.441C60.2776 20.441 59.7176 20.301 59.2136 20.021C58.7176 19.741 58.3256 19.345 58.0376 18.833C57.7576 18.313 57.6176 17.713 57.6176 17.033C57.6176 16.361 57.7616 15.769 58.0496 15.257C58.3456 14.737 58.7456 14.341 59.2496 14.069C59.7536 13.789 60.3176 13.649 60.9416 13.649C61.5656 13.649 62.1296 13.789 62.6336 14.069C63.1376 14.341 63.5336 14.733 63.8216 15.245C64.1176 15.757 64.2656 16.353 64.2656 17.033C64.2656 17.713 64.1136 18.313 63.8096 18.833C63.5136 19.345 63.1096 19.741 62.5976 20.021C62.0856 20.301 61.5176 20.441 60.8936 20.441ZM60.8936 19.481C61.2856 19.481 61.6536 19.389 61.9976 19.205C62.3416 19.021 62.6176 18.745 62.8256 18.377C63.0416 18.009 63.1496 17.561 63.1496 17.033C63.1496 16.505 63.0456 16.057 62.8376 15.689C62.6296 15.321 62.3576 15.049 62.0216 14.873C61.6856 14.689 61.3216 14.597 60.9296 14.597C60.5296 14.597 60.1616 14.689 59.8256 14.873C59.4976 15.049 59.2336 15.321 59.0336 15.689C58.8336 16.057 58.7336 16.505 58.7336 17.033C58.7336 17.569 58.8296 18.021 59.0216 18.389C59.2216 18.757 59.4856 19.033 59.8136 19.217C60.1416 19.393 60.5016 19.481 60.8936 19.481ZM74.4613 13.757L72.4093 20.333H71.2813L69.6973 15.113L68.1133 20.333H66.9853L64.9213 13.757H66.0373L67.5493 19.277L69.1813 13.757H70.2973L71.8933 19.289L73.3813 13.757H74.4613ZM78.7491 13.637C79.5491 13.637 80.1971 13.881 80.6931 14.369C81.1891 14.849 81.4371 15.545 81.4371 16.457V20.333H80.3571V16.613C80.3571 15.957 80.1931 15.457 79.8651 15.113C79.5371 14.761 79.0891 14.585 78.5211 14.585C77.9451 14.585 77.4851 14.765 77.1411 15.125C76.8051 15.485 76.6371 16.009 76.6371 16.697V20.333H75.5451V13.757H76.6371V14.693C76.8531 14.357 77.1451 14.097 77.5131 13.913C77.8891 13.729 78.3011 13.637 78.7491 13.637ZM84.3129 11.453V20.333H83.2209V11.453H84.3129ZM89.042 20.441C88.426 20.441 87.866 20.301 87.362 20.021C86.866 19.741 86.474 19.345 86.186 18.833C85.906 18.313 85.766 17.713 85.766 17.033C85.766 16.361 85.91 15.769 86.198 15.257C86.494 14.737 86.894 14.341 87.398 14.069C87.902 13.789 88.466 13.649 89.09 13.649C89.714 13.649 90.278 13.789 90.782 14.069C91.286 14.341 91.682 14.733 91.97 15.245C92.266 15.757 92.414 16.353 92.414 17.033C92.414 17.713 92.262 18.313 91.958 18.833C91.662 19.345 91.258 19.741 90.746 20.021C90.234 20.301 89.666 20.441 89.042 20.441ZM89.042 19.481C89.434 19.481 89.802 19.389 90.146 19.205C90.49 19.021 90.766 18.745 90.974 18.377C91.19 18.009 91.298 17.561 91.298 17.033C91.298 16.505 91.194 16.057 90.986 15.689C90.778 15.321 90.506 15.049 90.17 14.873C89.834 14.689 89.47 14.597 89.078 14.597C88.678 14.597 88.31 14.689 87.974 14.873C87.646 15.049 87.382 15.321 87.182 15.689C86.982 16.057 86.882 16.505 86.882 17.033C86.882 17.569 86.978 18.021 87.17 18.389C87.37 18.757 87.634 19.033 87.962 19.217C88.29 19.393 88.65 19.481 89.042 19.481ZM93.4418 17.021C93.4418 16.349 93.5778 15.761 93.8498 15.257C94.1218 14.745 94.4938 14.349 94.9658 14.069C95.4458 13.789 95.9778 13.649 96.5618 13.649C97.1378 13.649 97.6378 13.773 98.0618 14.021C98.4858 14.269 98.8018 14.581 99.0098 14.957V13.757H100.114V20.333H99.0098V19.109C98.7938 19.493 98.4698 19.813 98.0378 20.069C97.6138 20.317 97.1178 20.441 96.5498 20.441C95.9658 20.441 95.4378 20.297 94.9658 20.009C94.4938 19.721 94.1218 19.317 93.8498 18.797C93.5778 18.277 93.4418 17.685 93.4418 17.021ZM99.0098 17.033C99.0098 16.537 98.9098 16.105 98.7098 15.737C98.5098 15.369 98.2378 15.089 97.8938 14.897C97.5578 14.697 97.1858 14.597 96.7778 14.597C96.3698 14.597 95.9978 14.693 95.6618 14.885C95.3258 15.077 95.0578 15.357 94.8578 15.725C94.6578 16.093 94.5578 16.525 94.5578 17.021C94.5578 17.525 94.6578 17.965 94.8578 18.341C95.0578 18.709 95.3258 18.993 95.6618 19.193C95.9978 19.385 96.3698 19.481 96.7778 19.481C97.1858 19.481 97.5578 19.385 97.8938 19.193C98.2378 18.993 98.5098 18.709 98.7098 18.341C98.9098 17.965 99.0098 17.529 99.0098 17.033ZM101.551 17.021C101.551 16.349 101.687 15.761 101.959 15.257C102.231 14.745 102.603 14.349 103.075 14.069C103.555 13.789 104.091 13.649 104.683 13.649C105.195 13.649 105.671 13.769 106.111 14.009C106.551 14.241 106.887 14.549 107.119 14.933V11.453H108.223V20.333H107.119V19.097C106.903 19.489 106.583 19.813 106.159 20.069C105.735 20.317 105.239 20.441 104.671 20.441C104.087 20.441 103.555 20.297 103.075 20.009C102.603 19.721 102.231 19.317 101.959 18.797C101.687 18.277 101.551 17.685 101.551 17.021ZM107.119 17.033C107.119 16.537 107.019 16.105 106.819 15.737C106.619 15.369 106.347 15.089 106.003 14.897C105.667 14.697 105.295 14.597 104.887 14.597C104.479 14.597 104.107 14.693 103.771 14.885C103.435 15.077 103.167 15.357 102.967 15.725C102.767 16.093 102.667 16.525 102.667 17.021C102.667 17.525 102.767 17.965 102.967 18.341C103.167 18.709 103.435 18.993 103.771 19.193C104.107 19.385 104.479 19.481 104.887 19.481C105.295 19.481 105.667 19.385 106.003 19.193C106.347 18.993 106.619 18.709 106.819 18.341C107.019 17.965 107.119 17.529 107.119 17.033ZM116.136 20.441C115.52 20.441 114.96 20.301 114.456 20.021C113.96 19.741 113.568 19.345 113.28 18.833C113 18.313 112.86 17.713 112.86 17.033C112.86 16.361 113.004 15.769 113.292 15.257C113.588 14.737 113.988 14.341 114.492 14.069C114.996 13.789 115.56 13.649 116.184 13.649C116.808 13.649 117.372 13.789 117.876 14.069C118.38 14.341 118.776 14.733 119.064 15.245C119.36 15.757 119.508 16.353 119.508 17.033C119.508 17.713 119.356 18.313 119.052 18.833C118.756 19.345 118.352 19.741 117.84 20.021C117.328 20.301 116.76 20.441 116.136 20.441ZM116.136 19.481C116.528 19.481 116.896 19.389 117.24 19.205C117.584 19.021 117.86 18.745 118.068 18.377C118.284 18.009 118.392 17.561 118.392 17.033C118.392 16.505 118.288 16.057 118.08 15.689C117.872 15.321 117.6 15.049 117.264 14.873C116.928 14.689 116.564 14.597 116.172 14.597C115.772 14.597 115.404 14.689 115.068 14.873C114.74 15.049 114.476 15.321 114.276 15.689C114.076 16.057 113.976 16.505 113.976 17.033C113.976 17.569 114.072 18.021 114.264 18.389C114.464 18.757 114.728 19.033 115.056 19.217C115.384 19.393 115.744 19.481 116.136 19.481ZM124.148 13.637C124.948 13.637 125.596 13.881 126.092 14.369C126.588 14.849 126.836 15.545 126.836 16.457V20.333H125.756V16.613C125.756 15.957 125.592 15.457 125.264 15.113C124.936 14.761 124.488 14.585 123.92 14.585C123.344 14.585 122.884 14.765 122.54 15.125C122.204 15.485 122.036 16.009 122.036 16.697V20.333H120.944V13.757H122.036V14.693C122.252 14.357 122.544 14.097 122.912 13.913C123.288 13.729 123.7 13.637 124.148 13.637ZM133.151 14.657V18.533C133.151 18.853 133.219 19.081 133.355 19.217C133.491 19.345 133.727 19.409 134.063 19.409H134.867V20.333H133.883C133.275 20.333 132.819 20.193 132.515 19.913C132.211 19.633 132.059 19.173 132.059 18.533V14.657H131.207V13.757H132.059V12.101H133.151V13.757H134.867V14.657H133.151ZM139.454 13.637C139.95 13.637 140.398 13.745 140.798 13.961C141.198 14.169 141.51 14.485 141.734 14.909C141.966 15.333 142.082 15.849 142.082 16.457V20.333H141.002V16.613C141.002 15.957 140.838 15.457 140.51 15.113C140.182 14.761 139.734 14.585 139.166 14.585C138.59 14.585 138.13 14.765 137.786 15.125C137.45 15.485 137.282 16.009 137.282 16.697V20.333H136.19V11.453H137.282V14.693C137.498 14.357 137.794 14.097 138.17 13.913C138.554 13.729 138.982 13.637 139.454 13.637ZM149.865 16.793C149.865 17.001 149.853 17.221 149.829 17.453H144.573C144.613 18.101 144.833 18.609 145.233 18.977C145.641 19.337 146.133 19.517 146.709 19.517C147.181 19.517 147.573 19.409 147.885 19.193C148.205 18.969 148.429 18.673 148.557 18.305H149.733C149.557 18.937 149.205 19.453 148.677 19.853C148.149 20.245 147.493 20.441 146.709 20.441C146.085 20.441 145.525 20.301 145.029 20.021C144.541 19.741 144.157 19.345 143.877 18.833C143.597 18.313 143.457 17.713 143.457 17.033C143.457 16.353 143.593 15.757 143.865 15.245C144.137 14.733 144.517 14.341 145.005 14.069C145.501 13.789 146.069 13.649 146.709 13.649C147.333 13.649 147.885 13.785 148.365 14.057C148.845 14.329 149.213 14.705 149.469 15.185C149.733 15.657 149.865 16.193 149.865 16.793ZM148.737 16.565C148.737 16.149 148.645 15.793 148.461 15.497C148.277 15.193 148.025 14.965 147.705 14.813C147.393 14.653 147.045 14.573 146.661 14.573C146.109 14.573 145.637 14.749 145.245 15.101C144.861 15.453 144.641 15.941 144.585 16.565H148.737Z" fill="white"/>
<path d="M58.0615 43.333C57.9415 43.333 57.8635 43.273 57.8275 43.153L57.2335 41.227C57.2095 41.179 57.1795 41.155 57.1435 41.155H52.3915C52.3555 41.155 52.3255 41.179 52.3015 41.227L51.7075 43.153C51.6715 43.273 51.5935 43.333 51.4735 43.333H49.6735C49.6015 43.333 49.5475 43.315 49.5115 43.279C49.4755 43.231 49.4695 43.165 49.4935 43.081L53.3995 30.913C53.4355 30.793 53.5135 30.733 53.6335 30.733H55.8835C56.0035 30.733 56.0815 30.793 56.1175 30.913L60.0415 43.081C60.0535 43.105 60.0595 43.135 60.0595 43.171C60.0595 43.279 59.9935 43.333 59.8615 43.333H58.0615ZM52.8595 39.409C52.8475 39.481 52.8715 39.517 52.9315 39.517H56.5855C56.6575 39.517 56.6815 39.481 56.6575 39.409L54.8035 33.379C54.7915 33.331 54.7735 33.307 54.7495 33.307C54.7255 33.307 54.7075 33.331 54.6955 33.379L52.8595 39.409ZM69.5174 36.511C69.7334 37.123 69.8414 37.873 69.8414 38.761C69.8414 39.613 69.7394 40.345 69.5354 40.957C69.2714 41.749 68.8454 42.367 68.2574 42.811C67.6814 43.255 66.9494 43.477 66.0614 43.477C65.2094 43.477 64.5254 43.171 64.0094 42.559C63.9854 42.535 63.9614 42.529 63.9374 42.541C63.9134 42.553 63.9014 42.577 63.9014 42.613V46.519C63.9014 46.579 63.8774 46.627 63.8294 46.663C63.7934 46.711 63.7454 46.735 63.6854 46.735H62.0294C61.9694 46.735 61.9154 46.711 61.8674 46.663C61.8314 46.627 61.8134 46.579 61.8134 46.519V34.351C61.8134 34.291 61.8314 34.243 61.8674 34.207C61.9154 34.159 61.9694 34.135 62.0294 34.135H63.6854C63.7454 34.135 63.7934 34.159 63.8294 34.207C63.8774 34.243 63.9014 34.291 63.9014 34.351V34.891C63.9014 34.927 63.9134 34.951 63.9374 34.963C63.9614 34.975 63.9854 34.963 64.0094 34.927C64.5374 34.303 65.2274 33.991 66.0794 33.991C66.9314 33.991 67.6514 34.213 68.2394 34.657C68.8274 35.101 69.2534 35.719 69.5174 36.511ZM67.1774 40.921C67.5374 40.369 67.7174 39.637 67.7174 38.725C67.7174 37.849 67.5734 37.159 67.2854 36.655C66.9494 36.067 66.4394 35.773 65.7554 35.773C65.1314 35.773 64.6634 36.061 64.3514 36.637C64.0754 37.105 63.9374 37.801 63.9374 38.725C63.9374 39.673 64.0874 40.393 64.3874 40.885C64.6994 41.413 65.1494 41.677 65.7374 41.677C66.3734 41.677 66.8534 41.425 67.1774 40.921ZM79.66 36.511C79.876 37.123 79.984 37.873 79.984 38.761C79.984 39.613 79.882 40.345 79.678 40.957C79.414 41.749 78.988 42.367 78.4 42.811C77.824 43.255 77.092 43.477 76.204 43.477C75.352 43.477 74.668 43.171 74.152 42.559C74.128 42.535 74.104 42.529 74.08 42.541C74.056 42.553 74.044 42.577 74.044 42.613V46.519C74.044 46.579 74.02 46.627 73.972 46.663C73.936 46.711 73.888 46.735 73.828 46.735H72.172C72.112 46.735 72.058 46.711 72.01 46.663C71.974 46.627 71.956 46.579 71.956 46.519V34.351C71.956 34.291 71.974 34.243 72.01 34.207C72.058 34.159 72.112 34.135 72.172 34.135H73.828C73.888 34.135 73.936 34.159 73.972 34.207C74.02 34.243 74.044 34.291 74.044 34.351V34.891C74.044 34.927 74.056 34.951 74.08 34.963C74.104 34.975 74.128 34.963 74.152 34.927C74.68 34.303 75.37 33.991 76.222 33.991C77.074 33.991 77.794 34.213 78.382 34.657C78.97 35.101 79.396 35.719 79.66 36.511ZM77.32 40.921C77.68 40.369 77.86 39.637 77.86 38.725C77.86 37.849 77.716 37.159 77.428 36.655C77.092 36.067 76.582 35.773 75.898 35.773C75.274 35.773 74.806 36.061 74.494 36.637C74.218 37.105 74.08 37.801 74.08 38.725C74.08 39.673 74.23 40.393 74.53 40.885C74.842 41.413 75.292 41.677 75.88 41.677C76.516 41.677 76.996 41.425 77.32 40.921ZM82.2246 43.333C82.1646 43.333 82.1106 43.315 82.0626 43.279C82.0266 43.231 82.0086 43.177 82.0086 43.117V30.949C82.0086 30.889 82.0266 30.841 82.0626 30.805C82.1106 30.757 82.1646 30.733 82.2246 30.733H83.8806C83.9406 30.733 83.9886 30.757 84.0246 30.805C84.0726 30.841 84.0966 30.889 84.0966 30.949V43.117C84.0966 43.177 84.0726 43.231 84.0246 43.279C83.9886 43.315 83.9406 43.333 83.8806 43.333H82.2246ZM94.0732 37.699C94.1212 37.999 94.1452 38.335 94.1452 38.707L94.1272 39.265C94.1272 39.409 94.0552 39.481 93.9112 39.481H88.2772C88.2172 39.481 88.1872 39.511 88.1872 39.571C88.2232 39.967 88.2772 40.237 88.3492 40.381C88.6372 41.245 89.3392 41.683 90.4552 41.695C91.2712 41.695 91.9192 41.359 92.3992 40.687C92.4472 40.615 92.5072 40.579 92.5792 40.579C92.6272 40.579 92.6692 40.597 92.7052 40.633L93.8212 41.551C93.9292 41.635 93.9472 41.731 93.8752 41.839C93.5032 42.367 93.0052 42.775 92.3812 43.063C91.7692 43.351 91.0852 43.495 90.3292 43.495C89.3932 43.495 88.5952 43.285 87.9352 42.865C87.2872 42.445 86.8132 41.857 86.5132 41.101C86.2372 40.453 86.0992 39.553 86.0992 38.401C86.0992 37.705 86.1712 37.141 86.3152 36.709C86.5552 35.869 87.0052 35.209 87.6652 34.729C88.3372 34.237 89.1412 33.991 90.0772 33.991C92.4412 33.991 93.7732 35.227 94.0732 37.699ZM90.0772 35.791C89.6332 35.791 89.2612 35.905 88.9612 36.133C88.6732 36.349 88.4692 36.655 88.3492 37.051C88.2772 37.255 88.2292 37.519 88.2052 37.843C88.1812 37.903 88.2052 37.933 88.2772 37.933H91.9312C91.9912 37.933 92.0212 37.903 92.0212 37.843C91.9972 37.543 91.9612 37.315 91.9132 37.159C91.8052 36.727 91.5892 36.391 91.2652 36.151C90.9532 35.911 90.5572 35.791 90.0772 35.791ZM103.923 43.477C102.987 43.477 102.171 43.327 101.475 43.027C100.779 42.727 100.239 42.307 99.855 41.767C99.483 41.227 99.297 40.591 99.297 39.859V39.409C99.297 39.349 99.315 39.301 99.351 39.265C99.399 39.217 99.453 39.193 99.513 39.193H101.115C101.175 39.193 101.223 39.217 101.259 39.265C101.307 39.301 101.331 39.349 101.331 39.409V39.751C101.331 40.303 101.577 40.765 102.069 41.137C102.561 41.497 103.233 41.677 104.085 41.677C104.817 41.677 105.369 41.521 105.741 41.209C106.113 40.897 106.299 40.495 106.299 40.003C106.299 39.667 106.197 39.385 105.993 39.157C105.789 38.917 105.495 38.701 105.111 38.509C104.739 38.317 104.175 38.077 103.419 37.789C102.567 37.477 101.877 37.183 101.349 36.907C100.821 36.631 100.377 36.259 100.017 35.791C99.669 35.311 99.495 34.717 99.495 34.009C99.495 32.953 99.879 32.119 100.647 31.507C101.415 30.895 102.441 30.589 103.725 30.589C104.625 30.589 105.417 30.745 106.101 31.057C106.797 31.369 107.337 31.807 107.721 32.371C108.105 32.923 108.297 33.565 108.297 34.297V34.603C108.297 34.663 108.273 34.717 108.225 34.765C108.189 34.801 108.141 34.819 108.081 34.819H106.461C106.401 34.819 106.347 34.801 106.299 34.765C106.263 34.717 106.245 34.663 106.245 34.603V34.405C106.245 33.841 106.011 33.367 105.543 32.983C105.087 32.587 104.451 32.389 103.635 32.389C102.975 32.389 102.459 32.527 102.087 32.803C101.727 33.079 101.547 33.469 101.547 33.973C101.547 34.333 101.643 34.627 101.835 34.855C102.027 35.083 102.315 35.293 102.699 35.485C103.083 35.665 103.677 35.899 104.481 36.187C105.333 36.511 106.011 36.805 106.515 37.069C107.031 37.333 107.469 37.705 107.829 38.185C108.201 38.653 108.387 39.241 108.387 39.949C108.387 41.029 107.985 41.887 107.181 42.523C106.389 43.159 105.303 43.477 103.923 43.477ZM115.17 35.611C115.17 35.671 115.146 35.725 115.098 35.773C115.062 35.809 115.014 35.827 114.954 35.827H113.118C113.058 35.827 113.028 35.857 113.028 35.917V40.255C113.028 40.711 113.124 41.041 113.316 41.245C113.52 41.449 113.838 41.551 114.27 41.551H114.81C114.87 41.551 114.918 41.575 114.954 41.623C115.002 41.659 115.026 41.707 115.026 41.767V43.117C115.026 43.249 114.954 43.327 114.81 43.351L113.874 43.369C112.926 43.369 112.218 43.207 111.75 42.883C111.282 42.559 111.042 41.947 111.03 41.047V35.917C111.03 35.857 111 35.827 110.94 35.827H109.914C109.854 35.827 109.8 35.809 109.752 35.773C109.716 35.725 109.698 35.671 109.698 35.611V34.351C109.698 34.291 109.716 34.243 109.752 34.207C109.8 34.159 109.854 34.135 109.914 34.135H110.94C111 34.135 111.03 34.105 111.03 34.045V31.939C111.03 31.879 111.048 31.831 111.084 31.795C111.132 31.747 111.186 31.723 111.246 31.723H112.812C112.872 31.723 112.92 31.747 112.956 31.795C113.004 31.831 113.028 31.879 113.028 31.939V34.045C113.028 34.105 113.058 34.135 113.118 34.135H114.954C115.014 34.135 115.062 34.159 115.098 34.207C115.146 34.243 115.17 34.291 115.17 34.351V35.611ZM120.754 43.477C119.806 43.477 118.99 43.237 118.306 42.757C117.634 42.277 117.16 41.611 116.884 40.759C116.68 40.111 116.578 39.427 116.578 38.707C116.578 37.939 116.674 37.255 116.866 36.655C117.142 35.815 117.622 35.161 118.306 34.693C118.99 34.225 119.812 33.991 120.772 33.991C121.684 33.991 122.47 34.225 123.13 34.693C123.802 35.161 124.276 35.809 124.552 36.637C124.768 37.213 124.876 37.897 124.876 38.689C124.876 39.445 124.774 40.129 124.57 40.741C124.294 41.593 123.82 42.265 123.148 42.757C122.476 43.237 121.678 43.477 120.754 43.477ZM120.754 41.677C121.198 41.677 121.576 41.551 121.888 41.299C122.212 41.047 122.446 40.693 122.59 40.237C122.71 39.841 122.77 39.337 122.77 38.725C122.77 38.077 122.71 37.573 122.59 37.213C122.458 36.757 122.23 36.409 121.906 36.169C121.582 35.917 121.186 35.791 120.718 35.791C120.274 35.791 119.89 35.917 119.566 36.169C119.242 36.409 119.008 36.757 118.864 37.213C118.744 37.633 118.684 38.137 118.684 38.725C118.684 39.313 118.744 39.817 118.864 40.237C118.996 40.693 119.224 41.047 119.548 41.299C119.884 41.551 120.286 41.677 120.754 41.677ZM131.134 34.027C131.518 34.027 131.854 34.105 132.142 34.261C132.238 34.309 132.274 34.399 132.25 34.531L131.944 36.151C131.932 36.295 131.848 36.337 131.692 36.277C131.512 36.217 131.302 36.187 131.062 36.187C130.906 36.187 130.786 36.193 130.702 36.205C130.198 36.229 129.778 36.409 129.442 36.745C129.106 37.069 128.938 37.495 128.938 38.023V43.117C128.938 43.177 128.914 43.231 128.866 43.279C128.83 43.315 128.782 43.333 128.722 43.333H127.066C127.006 43.333 126.952 43.315 126.904 43.279C126.868 43.231 126.85 43.177 126.85 43.117V34.351C126.85 34.291 126.868 34.243 126.904 34.207C126.952 34.159 127.006 34.135 127.066 34.135H128.722C128.782 34.135 128.83 34.159 128.866 34.207C128.914 34.243 128.938 34.291 128.938 34.351V35.161C128.938 35.209 128.944 35.239 128.956 35.251C128.98 35.251 129.004 35.233 129.028 35.197C129.532 34.417 130.234 34.027 131.134 34.027ZM141.2 37.699C141.248 37.999 141.272 38.335 141.272 38.707L141.254 39.265C141.254 39.409 141.182 39.481 141.038 39.481H135.404C135.344 39.481 135.314 39.511 135.314 39.571C135.35 39.967 135.404 40.237 135.476 40.381C135.764 41.245 136.466 41.683 137.582 41.695C138.398 41.695 139.046 41.359 139.526 40.687C139.574 40.615 139.634 40.579 139.706 40.579C139.754 40.579 139.796 40.597 139.832 40.633L140.948 41.551C141.056 41.635 141.074 41.731 141.002 41.839C140.63 42.367 140.132 42.775 139.508 43.063C138.896 43.351 138.212 43.495 137.456 43.495C136.52 43.495 135.722 43.285 135.062 42.865C134.414 42.445 133.94 41.857 133.64 41.101C133.364 40.453 133.226 39.553 133.226 38.401C133.226 37.705 133.298 37.141 133.442 36.709C133.682 35.869 134.132 35.209 134.792 34.729C135.464 34.237 136.268 33.991 137.204 33.991C139.568 33.991 140.9 35.227 141.2 37.699ZM137.204 35.791C136.76 35.791 136.388 35.905 136.088 36.133C135.8 36.349 135.596 36.655 135.476 37.051C135.404 37.255 135.356 37.519 135.332 37.843C135.308 37.903 135.332 37.933 135.404 37.933H139.058C139.118 37.933 139.148 37.903 139.148 37.843C139.124 37.543 139.088 37.315 139.04 37.159C138.932 36.727 138.716 36.391 138.392 36.151C138.08 35.911 137.684 35.791 137.204 35.791Z" fill="white"/>
<rect x="1" y="0.833008" width="161" height="55" rx="7.5" stroke="black" stroke-opacity="0.24"/>
<defs>
<linearGradient id="paint0_linear_24423_22306" x1="81.5" y1="0.333008" x2="81.5" y2="56.333" gradientUnits="userSpaceOnUse">
<stop stop-color="#161C24"/>
<stop offset="1"/>
</linearGradient>
</defs>
</svg>
