<svg width="154" height="57" viewBox="0 0 154 57" fill="none" xmlns="http://www.w3.org/2000/svg">
<rect x="0.5" y="0.333008" width="153" height="56" rx="8" fill="url(#paint0_linear_24423_22313)"/>
<path fill-rule="evenodd" clip-rule="evenodd" d="M16.4338 15.5806C16.1583 15.8767 16 16.3323 16 16.9244V37.9847C16 38.5768 16.1583 39.0325 16.4441 39.3182L16.5187 39.3813L28.3193 27.5807V27.3156L16.5084 15.5176L16.4338 15.5806Z" fill="url(#paint1_linear_24423_22313)"/>
<path fill-rule="evenodd" clip-rule="evenodd" d="M32.2452 31.5291L28.3091 27.5917V27.3163L32.2465 23.3789L32.3314 23.4317L36.9883 26.0781C38.3218 26.8297 38.3218 28.068 36.9883 28.83L32.3314 31.4764C32.3301 31.4764 32.2452 31.5291 32.2452 31.5291Z" fill="url(#paint2_linear_24423_22313)"/>
<path fill-rule="evenodd" clip-rule="evenodd" d="M32.3299 31.4764L28.3088 27.4541L16.4336 39.3293C16.8674 39.7953 17.5972 39.848 18.4132 39.3924L32.3299 31.4764Z" fill="url(#paint3_linear_24423_22313)"/>
<path fill-rule="evenodd" clip-rule="evenodd" d="M32.3299 23.4332L18.4132 15.5275C17.5985 15.0616 16.8674 15.1247 16.4336 15.5906L28.3075 27.4542L32.3299 23.4332Z" fill="url(#paint4_linear_24423_22313)"/>
<path opacity="0.72" d="M52.4323 11.969C53.3443 11.969 54.1323 12.141 54.7963 12.485C55.4683 12.821 55.9803 13.305 56.3323 13.937C56.6923 14.569 56.8723 15.313 56.8723 16.169C56.8723 17.025 56.6923 17.769 56.3323 18.401C55.9803 19.025 55.4683 19.505 54.7963 19.841C54.1323 20.169 53.3443 20.333 52.4323 20.333H49.8283V11.969H52.4323ZM52.4323 19.433C53.5123 19.433 54.3363 19.149 54.9043 18.581C55.4723 18.005 55.7563 17.201 55.7563 16.169C55.7563 15.129 55.4683 14.317 54.8923 13.733C54.3243 13.149 53.5043 12.857 52.4323 12.857H50.9203V19.433H52.4323ZM61.1807 20.441C60.5647 20.441 60.0047 20.301 59.5007 20.021C59.0047 19.741 58.6127 19.345 58.3247 18.833C58.0447 18.313 57.9047 17.713 57.9047 17.033C57.9047 16.361 58.0487 15.769 58.3367 15.257C58.6327 14.737 59.0327 14.341 59.5367 14.069C60.0407 13.789 60.6047 13.649 61.2287 13.649C61.8527 13.649 62.4167 13.789 62.9207 14.069C63.4247 14.341 63.8207 14.733 64.1087 15.245C64.4047 15.757 64.5527 16.353 64.5527 17.033C64.5527 17.713 64.4007 18.313 64.0967 18.833C63.8007 19.345 63.3967 19.741 62.8847 20.021C62.3727 20.301 61.8047 20.441 61.1807 20.441ZM61.1807 19.481C61.5727 19.481 61.9407 19.389 62.2847 19.205C62.6287 19.021 62.9047 18.745 63.1127 18.377C63.3287 18.009 63.4367 17.561 63.4367 17.033C63.4367 16.505 63.3327 16.057 63.1247 15.689C62.9167 15.321 62.6447 15.049 62.3087 14.873C61.9727 14.689 61.6087 14.597 61.2167 14.597C60.8167 14.597 60.4487 14.689 60.1127 14.873C59.7847 15.049 59.5207 15.321 59.3207 15.689C59.1207 16.057 59.0207 16.505 59.0207 17.033C59.0207 17.569 59.1167 18.021 59.3087 18.389C59.5087 18.757 59.7727 19.033 60.1007 19.217C60.4287 19.393 60.7887 19.481 61.1807 19.481ZM74.7485 13.757L72.6965 20.333H71.5685L69.9845 15.113L68.4005 20.333H67.2725L65.2085 13.757H66.3245L67.8365 19.277L69.4685 13.757H70.5845L72.1805 19.289L73.6685 13.757H74.7485ZM79.0362 13.637C79.8362 13.637 80.4842 13.881 80.9802 14.369C81.4762 14.849 81.7242 15.545 81.7242 16.457V20.333H80.6442V16.613C80.6442 15.957 80.4802 15.457 80.1522 15.113C79.8242 14.761 79.3762 14.585 78.8082 14.585C78.2322 14.585 77.7722 14.765 77.4282 15.125C77.0922 15.485 76.9242 16.009 76.9242 16.697V20.333H75.8322V13.757H76.9242V14.693C77.1402 14.357 77.4322 14.097 77.8002 13.913C78.1762 13.729 78.5882 13.637 79.0362 13.637ZM84.6 11.453V20.333H83.508V11.453H84.6ZM89.3291 20.441C88.7131 20.441 88.1531 20.301 87.6491 20.021C87.1531 19.741 86.7611 19.345 86.4731 18.833C86.1931 18.313 86.0531 17.713 86.0531 17.033C86.0531 16.361 86.1971 15.769 86.4851 15.257C86.7811 14.737 87.1811 14.341 87.6851 14.069C88.1891 13.789 88.7531 13.649 89.3771 13.649C90.0011 13.649 90.5651 13.789 91.0691 14.069C91.5731 14.341 91.9691 14.733 92.2571 15.245C92.5531 15.757 92.7011 16.353 92.7011 17.033C92.7011 17.713 92.5491 18.313 92.2451 18.833C91.9491 19.345 91.5451 19.741 91.0331 20.021C90.5211 20.301 89.9531 20.441 89.3291 20.441ZM89.3291 19.481C89.7211 19.481 90.0891 19.389 90.4331 19.205C90.7771 19.021 91.0531 18.745 91.2611 18.377C91.4771 18.009 91.5851 17.561 91.5851 17.033C91.5851 16.505 91.4811 16.057 91.2731 15.689C91.0651 15.321 90.7931 15.049 90.4571 14.873C90.1211 14.689 89.7571 14.597 89.3651 14.597C88.9651 14.597 88.5971 14.689 88.2611 14.873C87.9331 15.049 87.6691 15.321 87.4691 15.689C87.2691 16.057 87.1691 16.505 87.1691 17.033C87.1691 17.569 87.2651 18.021 87.4571 18.389C87.6571 18.757 87.9211 19.033 88.2491 19.217C88.5771 19.393 88.9371 19.481 89.3291 19.481ZM93.7289 17.021C93.7289 16.349 93.8649 15.761 94.1369 15.257C94.4089 14.745 94.7809 14.349 95.2529 14.069C95.7329 13.789 96.2649 13.649 96.8489 13.649C97.4249 13.649 97.9249 13.773 98.3489 14.021C98.7729 14.269 99.0889 14.581 99.2969 14.957V13.757H100.401V20.333H99.2969V19.109C99.0809 19.493 98.7569 19.813 98.3249 20.069C97.9009 20.317 97.4049 20.441 96.8369 20.441C96.2529 20.441 95.7249 20.297 95.2529 20.009C94.7809 19.721 94.4089 19.317 94.1369 18.797C93.8649 18.277 93.7289 17.685 93.7289 17.021ZM99.2969 17.033C99.2969 16.537 99.1969 16.105 98.9969 15.737C98.7969 15.369 98.5249 15.089 98.1809 14.897C97.8449 14.697 97.4729 14.597 97.0649 14.597C96.6569 14.597 96.2849 14.693 95.9489 14.885C95.6129 15.077 95.3449 15.357 95.1449 15.725C94.9449 16.093 94.8449 16.525 94.8449 17.021C94.8449 17.525 94.9449 17.965 95.1449 18.341C95.3449 18.709 95.6129 18.993 95.9489 19.193C96.2849 19.385 96.6569 19.481 97.0649 19.481C97.4729 19.481 97.8449 19.385 98.1809 19.193C98.5249 18.993 98.7969 18.709 98.9969 18.341C99.1969 17.965 99.2969 17.529 99.2969 17.033ZM101.838 17.021C101.838 16.349 101.974 15.761 102.246 15.257C102.518 14.745 102.89 14.349 103.362 14.069C103.842 13.789 104.378 13.649 104.97 13.649C105.482 13.649 105.958 13.769 106.398 14.009C106.838 14.241 107.174 14.549 107.406 14.933V11.453H108.51V20.333H107.406V19.097C107.19 19.489 106.87 19.813 106.446 20.069C106.022 20.317 105.526 20.441 104.958 20.441C104.374 20.441 103.842 20.297 103.362 20.009C102.89 19.721 102.518 19.317 102.246 18.797C101.974 18.277 101.838 17.685 101.838 17.021ZM107.406 17.033C107.406 16.537 107.306 16.105 107.106 15.737C106.906 15.369 106.634 15.089 106.29 14.897C105.954 14.697 105.582 14.597 105.174 14.597C104.766 14.597 104.394 14.693 104.058 14.885C103.722 15.077 103.454 15.357 103.254 15.725C103.054 16.093 102.954 16.525 102.954 17.021C102.954 17.525 103.054 17.965 103.254 18.341C103.454 18.709 103.722 18.993 104.058 19.193C104.394 19.385 104.766 19.481 105.174 19.481C105.582 19.481 105.954 19.385 106.29 19.193C106.634 18.993 106.906 18.709 107.106 18.341C107.306 17.965 107.406 17.529 107.406 17.033ZM116.231 14.657H114.851V20.333H113.759V14.657H112.907V13.757H113.759V13.289C113.759 12.553 113.947 12.017 114.323 11.681C114.707 11.337 115.319 11.165 116.159 11.165V12.077C115.679 12.077 115.339 12.173 115.139 12.365C114.947 12.549 114.851 12.857 114.851 13.289V13.757H116.231V14.657ZM118.596 14.825C118.788 14.449 119.06 14.157 119.412 13.949C119.772 13.741 120.208 13.637 120.72 13.637V14.765H120.432C119.208 14.765 118.596 15.429 118.596 16.757V20.333H117.504V13.757H118.596V14.825ZM124.849 20.441C124.233 20.441 123.673 20.301 123.169 20.021C122.673 19.741 122.281 19.345 121.993 18.833C121.713 18.313 121.573 17.713 121.573 17.033C121.573 16.361 121.717 15.769 122.005 15.257C122.301 14.737 122.701 14.341 123.205 14.069C123.709 13.789 124.273 13.649 124.897 13.649C125.521 13.649 126.085 13.789 126.589 14.069C127.093 14.341 127.489 14.733 127.777 15.245C128.073 15.757 128.221 16.353 128.221 17.033C128.221 17.713 128.069 18.313 127.765 18.833C127.469 19.345 127.065 19.741 126.553 20.021C126.041 20.301 125.473 20.441 124.849 20.441ZM124.849 19.481C125.241 19.481 125.609 19.389 125.953 19.205C126.297 19.021 126.573 18.745 126.781 18.377C126.997 18.009 127.105 17.561 127.105 17.033C127.105 16.505 127.001 16.057 126.793 15.689C126.585 15.321 126.313 15.049 125.977 14.873C125.641 14.689 125.277 14.597 124.885 14.597C124.485 14.597 124.117 14.689 123.781 14.873C123.453 15.049 123.189 15.321 122.989 15.689C122.789 16.057 122.689 16.505 122.689 17.033C122.689 17.569 122.785 18.021 122.977 18.389C123.177 18.757 123.441 19.033 123.769 19.217C124.097 19.393 124.457 19.481 124.849 19.481ZM137.564 13.637C138.076 13.637 138.532 13.745 138.932 13.961C139.332 14.169 139.648 14.485 139.88 14.909C140.112 15.333 140.228 15.849 140.228 16.457V20.333H139.148V16.613C139.148 15.957 138.984 15.457 138.656 15.113C138.336 14.761 137.9 14.585 137.348 14.585C136.78 14.585 136.328 14.769 135.992 15.137C135.656 15.497 135.488 16.021 135.488 16.709V20.333H134.408V16.613C134.408 15.957 134.244 15.457 133.916 15.113C133.596 14.761 133.16 14.585 132.608 14.585C132.04 14.585 131.588 14.769 131.252 15.137C130.916 15.497 130.748 16.021 130.748 16.709V20.333H129.656V13.757H130.748V14.705C130.964 14.361 131.252 14.097 131.612 13.913C131.98 13.729 132.384 13.637 132.824 13.637C133.376 13.637 133.864 13.761 134.288 14.009C134.712 14.257 135.028 14.621 135.236 15.101C135.42 14.637 135.724 14.277 136.148 14.021C136.572 13.765 137.044 13.637 137.564 13.637Z" fill="white"/>
<path d="M54.235 43.477C53.335 43.477 52.543 43.303 51.859 42.955C51.175 42.595 50.647 42.091 50.275 41.443C49.903 40.795 49.717 40.051 49.717 39.211V34.855C49.717 34.003 49.903 33.259 50.275 32.623C50.647 31.975 51.175 31.477 51.859 31.129C52.543 30.769 53.335 30.589 54.235 30.589C55.123 30.589 55.903 30.763 56.575 31.111C57.259 31.459 57.787 31.933 58.159 32.533C58.531 33.133 58.717 33.811 58.717 34.567V34.711C58.717 34.771 58.693 34.825 58.645 34.873C58.609 34.909 58.561 34.927 58.501 34.927H56.863C56.803 34.927 56.749 34.909 56.701 34.873C56.665 34.825 56.647 34.771 56.647 34.711V34.621C56.647 33.973 56.425 33.439 55.981 33.019C55.549 32.599 54.967 32.389 54.235 32.389C53.503 32.389 52.915 32.611 52.471 33.055C52.027 33.487 51.805 34.063 51.805 34.783V39.283C51.805 40.003 52.039 40.585 52.507 41.029C52.975 41.461 53.581 41.677 54.325 41.677C55.045 41.677 55.609 41.491 56.017 41.119C56.437 40.735 56.647 40.213 56.647 39.553V38.437C56.647 38.377 56.617 38.347 56.557 38.347H54.343C54.283 38.347 54.229 38.329 54.181 38.293C54.145 38.245 54.127 38.191 54.127 38.131V36.799C54.127 36.739 54.145 36.691 54.181 36.655C54.229 36.607 54.283 36.583 54.343 36.583H58.501C58.561 36.583 58.609 36.607 58.645 36.655C58.693 36.691 58.717 36.739 58.717 36.799V39.103C58.717 40.483 58.309 41.557 57.493 42.325C56.689 43.093 55.603 43.477 54.235 43.477ZM64.7525 43.477C63.8045 43.477 62.9885 43.237 62.3045 42.757C61.6325 42.277 61.1585 41.611 60.8825 40.759C60.6785 40.111 60.5765 39.427 60.5765 38.707C60.5765 37.939 60.6725 37.255 60.8645 36.655C61.1405 35.815 61.6205 35.161 62.3045 34.693C62.9885 34.225 63.8105 33.991 64.7705 33.991C65.6825 33.991 66.4685 34.225 67.1285 34.693C67.8005 35.161 68.2745 35.809 68.5505 36.637C68.7665 37.213 68.8745 37.897 68.8745 38.689C68.8745 39.445 68.7725 40.129 68.5685 40.741C68.2925 41.593 67.8185 42.265 67.1465 42.757C66.4745 43.237 65.6765 43.477 64.7525 43.477ZM64.7525 41.677C65.1965 41.677 65.5745 41.551 65.8865 41.299C66.2105 41.047 66.4445 40.693 66.5885 40.237C66.7085 39.841 66.7685 39.337 66.7685 38.725C66.7685 38.077 66.7085 37.573 66.5885 37.213C66.4565 36.757 66.2285 36.409 65.9045 36.169C65.5805 35.917 65.1845 35.791 64.7165 35.791C64.2725 35.791 63.8885 35.917 63.5645 36.169C63.2405 36.409 63.0065 36.757 62.8625 37.213C62.7425 37.633 62.6825 38.137 62.6825 38.725C62.6825 39.313 62.7425 39.817 62.8625 40.237C62.9945 40.693 63.2225 41.047 63.5465 41.299C63.8825 41.551 64.2845 41.677 64.7525 41.677ZM74.7544 43.477C73.8064 43.477 72.9904 43.237 72.3064 42.757C71.6344 42.277 71.1604 41.611 70.8844 40.759C70.6804 40.111 70.5784 39.427 70.5784 38.707C70.5784 37.939 70.6744 37.255 70.8664 36.655C71.1424 35.815 71.6224 35.161 72.3064 34.693C72.9904 34.225 73.8124 33.991 74.7724 33.991C75.6844 33.991 76.4704 34.225 77.1304 34.693C77.8024 35.161 78.2764 35.809 78.5524 36.637C78.7684 37.213 78.8764 37.897 78.8764 38.689C78.8764 39.445 78.7744 40.129 78.5704 40.741C78.2944 41.593 77.8204 42.265 77.1484 42.757C76.4764 43.237 75.6784 43.477 74.7544 43.477ZM74.7544 41.677C75.1984 41.677 75.5764 41.551 75.8884 41.299C76.2124 41.047 76.4464 40.693 76.5904 40.237C76.7104 39.841 76.7704 39.337 76.7704 38.725C76.7704 38.077 76.7104 37.573 76.5904 37.213C76.4584 36.757 76.2304 36.409 75.9064 36.169C75.5824 35.917 75.1864 35.791 74.7184 35.791C74.2744 35.791 73.8904 35.917 73.5664 36.169C73.2424 36.409 73.0084 36.757 72.8644 37.213C72.7444 37.633 72.6844 38.137 72.6844 38.725C72.6844 39.313 72.7444 39.817 72.8644 40.237C72.9964 40.693 73.2244 41.047 73.5484 41.299C73.8844 41.551 74.2864 41.677 74.7544 41.677ZM86.4844 34.351C86.4844 34.291 86.5024 34.243 86.5384 34.207C86.5864 34.159 86.6404 34.135 86.7004 34.135H88.3564C88.4164 34.135 88.4644 34.159 88.5004 34.207C88.5484 34.243 88.5724 34.291 88.5724 34.351V42.721C88.5724 44.221 88.1404 45.289 87.2764 45.925C86.4244 46.573 85.3024 46.897 83.9104 46.897C83.5384 46.897 83.1724 46.879 82.8124 46.843C82.6804 46.831 82.6144 46.753 82.6144 46.609L82.6684 45.133C82.6684 45.001 82.7524 44.935 82.9204 44.935C83.2684 44.971 83.5804 44.989 83.8564 44.989C84.7564 44.989 85.4164 44.809 85.8364 44.449C86.2684 44.101 86.4844 43.507 86.4844 42.667V42.523C86.4844 42.487 86.4724 42.469 86.4484 42.469C86.4244 42.457 86.4004 42.463 86.3764 42.487C85.8844 43.015 85.1884 43.279 84.2884 43.279C83.5084 43.279 82.7944 43.081 82.1464 42.685C81.4984 42.289 81.0484 41.683 80.7964 40.867C80.6404 40.303 80.5624 39.577 80.5624 38.689C80.5624 37.693 80.6584 36.931 80.8504 36.403C81.0904 35.671 81.5044 35.089 82.0924 34.657C82.6804 34.213 83.3704 33.991 84.1624 33.991C85.1104 33.991 85.8484 34.267 86.3764 34.819C86.4004 34.855 86.4244 34.867 86.4484 34.855C86.4724 34.843 86.4844 34.819 86.4844 34.783V34.351ZM86.3584 40.273C86.4064 40.093 86.4364 39.901 86.4484 39.697C86.4724 39.481 86.4844 39.139 86.4844 38.671C86.4844 38.215 86.4724 37.891 86.4484 37.699C86.4364 37.495 86.4004 37.297 86.3404 37.105C86.2444 36.709 86.0464 36.391 85.7464 36.151C85.4584 35.911 85.0864 35.791 84.6304 35.791C84.1984 35.791 83.8324 35.911 83.5324 36.151C83.2324 36.391 83.0164 36.709 82.8844 37.105C82.7404 37.441 82.6684 37.969 82.6684 38.689C82.6684 39.433 82.7284 39.955 82.8484 40.255C82.9684 40.639 83.1844 40.957 83.4964 41.209C83.8204 41.449 84.2044 41.569 84.6484 41.569C85.1164 41.569 85.4944 41.449 85.7824 41.209C86.0704 40.969 86.2624 40.657 86.3584 40.273ZM90.9453 43.333C90.8853 43.333 90.8313 43.315 90.7833 43.279C90.7473 43.231 90.7293 43.177 90.7293 43.117V30.949C90.7293 30.889 90.7473 30.841 90.7833 30.805C90.8313 30.757 90.8853 30.733 90.9453 30.733H92.6013C92.6613 30.733 92.7093 30.757 92.7453 30.805C92.7933 30.841 92.8173 30.889 92.8173 30.949V43.117C92.8173 43.177 92.7933 43.231 92.7453 43.279C92.7093 43.315 92.6613 43.333 92.6013 43.333H90.9453ZM102.794 37.699C102.842 37.999 102.866 38.335 102.866 38.707L102.848 39.265C102.848 39.409 102.776 39.481 102.632 39.481H96.9979C96.9379 39.481 96.9079 39.511 96.9079 39.571C96.9439 39.967 96.9979 40.237 97.0699 40.381C97.3579 41.245 98.0599 41.683 99.1759 41.695C99.9919 41.695 100.64 41.359 101.12 40.687C101.168 40.615 101.228 40.579 101.3 40.579C101.348 40.579 101.39 40.597 101.426 40.633L102.542 41.551C102.65 41.635 102.668 41.731 102.596 41.839C102.224 42.367 101.726 42.775 101.102 43.063C100.49 43.351 99.8059 43.495 99.0499 43.495C98.1139 43.495 97.3159 43.285 96.6559 42.865C96.0079 42.445 95.5339 41.857 95.2339 41.101C94.9579 40.453 94.8199 39.553 94.8199 38.401C94.8199 37.705 94.8919 37.141 95.0359 36.709C95.2759 35.869 95.7259 35.209 96.3859 34.729C97.0579 34.237 97.8619 33.991 98.7979 33.991C101.162 33.991 102.494 35.227 102.794 37.699ZM98.7979 35.791C98.3539 35.791 97.9819 35.905 97.6819 36.133C97.3939 36.349 97.1899 36.655 97.0699 37.051C96.9979 37.255 96.9499 37.519 96.9259 37.843C96.9019 37.903 96.9259 37.933 96.9979 37.933H100.652C100.712 37.933 100.742 37.903 100.742 37.843C100.718 37.543 100.682 37.315 100.634 37.159C100.526 36.727 100.31 36.391 99.9859 36.151C99.6739 35.911 99.2779 35.791 98.7979 35.791ZM113.634 30.715C114.39 30.715 115.056 30.871 115.632 31.183C116.208 31.495 116.652 31.939 116.964 32.515C117.288 33.079 117.45 33.733 117.45 34.477C117.45 35.209 117.288 35.857 116.964 36.421C116.64 36.985 116.178 37.423 115.578 37.735C114.99 38.035 114.306 38.185 113.526 38.185H110.646C110.586 38.185 110.556 38.215 110.556 38.275V43.117C110.556 43.177 110.532 43.231 110.484 43.279C110.448 43.315 110.4 43.333 110.34 43.333H108.684C108.624 43.333 108.57 43.315 108.522 43.279C108.486 43.231 108.468 43.177 108.468 43.117V30.931C108.468 30.871 108.486 30.823 108.522 30.787C108.57 30.739 108.624 30.715 108.684 30.715H113.634ZM113.328 36.493C113.94 36.493 114.432 36.313 114.804 35.953C115.176 35.593 115.362 35.119 115.362 34.531C115.362 33.931 115.176 33.445 114.804 33.073C114.432 32.701 113.94 32.515 113.328 32.515H110.646C110.586 32.515 110.556 32.545 110.556 32.605V36.403C110.556 36.463 110.586 36.493 110.646 36.493H113.328ZM119.299 43.333C119.239 43.333 119.185 43.315 119.137 43.279C119.101 43.231 119.083 43.177 119.083 43.117V30.949C119.083 30.889 119.101 30.841 119.137 30.805C119.185 30.757 119.239 30.733 119.299 30.733H120.955C121.015 30.733 121.063 30.757 121.099 30.805C121.147 30.841 121.171 30.889 121.171 30.949V43.117C121.171 43.177 121.147 43.231 121.099 43.279C121.063 43.315 121.015 43.333 120.955 43.333H119.299ZM126.899 33.991C127.655 33.991 128.321 34.123 128.897 34.387C129.473 34.651 129.917 35.017 130.229 35.485C130.541 35.941 130.697 36.463 130.697 37.051V43.117C130.697 43.177 130.673 43.231 130.625 43.279C130.589 43.315 130.541 43.333 130.481 43.333H128.825C128.765 43.333 128.711 43.315 128.663 43.279C128.627 43.231 128.609 43.177 128.609 43.117V42.541C128.609 42.505 128.597 42.487 128.573 42.487C128.549 42.475 128.525 42.481 128.501 42.505C127.913 43.153 127.061 43.477 125.945 43.477C125.045 43.477 124.301 43.249 123.713 42.793C123.137 42.337 122.849 41.659 122.849 40.759C122.849 39.823 123.173 39.097 123.821 38.581C124.481 38.053 125.405 37.789 126.593 37.789H128.519C128.579 37.789 128.609 37.759 128.609 37.699V37.267C128.609 36.799 128.471 36.439 128.195 36.187C127.919 35.923 127.505 35.791 126.953 35.791C126.497 35.791 126.125 35.875 125.837 36.043C125.561 36.199 125.387 36.421 125.315 36.709C125.279 36.853 125.195 36.913 125.063 36.889L123.317 36.673C123.257 36.661 123.203 36.643 123.155 36.619C123.119 36.583 123.107 36.541 123.119 36.493C123.215 35.761 123.605 35.161 124.289 34.693C124.985 34.225 125.855 33.991 126.899 33.991ZM126.467 41.821C127.055 41.821 127.559 41.665 127.979 41.353C128.399 41.041 128.609 40.645 128.609 40.165V39.319C128.609 39.259 128.579 39.229 128.519 39.229H127.007C126.371 39.229 125.867 39.349 125.495 39.589C125.135 39.829 124.955 40.171 124.955 40.615C124.955 40.999 125.093 41.299 125.369 41.515C125.657 41.719 126.023 41.821 126.467 41.821ZM132.42 46.915C132.384 46.915 132.354 46.891 132.33 46.843C132.306 46.807 132.294 46.759 132.294 46.699V45.403C132.294 45.343 132.312 45.289 132.348 45.241C132.396 45.205 132.45 45.187 132.51 45.187H132.528C133.02 45.175 133.404 45.121 133.68 45.025C133.956 44.941 134.184 44.773 134.364 44.521C134.544 44.269 134.706 43.891 134.85 43.387C134.862 43.363 134.862 43.327 134.85 43.279L131.88 34.369C131.868 34.345 131.862 34.315 131.862 34.279C131.862 34.171 131.922 34.117 132.042 34.117H133.806C133.938 34.117 134.022 34.177 134.058 34.297L135.858 40.633C135.87 40.669 135.888 40.687 135.912 40.687C135.936 40.687 135.954 40.669 135.966 40.633L137.766 34.297C137.802 34.177 137.886 34.117 138.018 34.117H139.728C139.8 34.117 139.848 34.141 139.872 34.189C139.908 34.225 139.914 34.285 139.89 34.369L136.722 43.837C136.422 44.689 136.128 45.325 135.84 45.745C135.552 46.165 135.156 46.465 134.652 46.645C134.16 46.825 133.458 46.915 132.546 46.915H132.42Z" fill="white"/>
<rect x="1" y="0.833008" width="152" height="55" rx="7.5" stroke="black" stroke-opacity="0.24"/>
<defs>
<linearGradient id="paint0_linear_24423_22313" x1="77" y1="0.333008" x2="77" y2="56.333" gradientUnits="userSpaceOnUse">
<stop stop-color="#161C24"/>
<stop offset="1"/>
</linearGradient>
<linearGradient id="paint1_linear_24423_22313" x1="27.2597" y1="16.6981" x2="8.35718" y2="21.7346" gradientUnits="userSpaceOnUse">
<stop stop-color="#00A0FF"/>
<stop offset="0.007" stop-color="#00A1FF"/>
<stop offset="0.26" stop-color="#00BEFF"/>
<stop offset="0.512" stop-color="#00D2FF"/>
<stop offset="0.76" stop-color="#00DFFF"/>
<stop offset="1" stop-color="#00E3FF"/>
</linearGradient>
<linearGradient id="paint2_linear_24423_22313" x1="38.7235" y1="27.4546" x2="15.676" y2="27.4546" gradientUnits="userSpaceOnUse">
<stop stop-color="#FFE000"/>
<stop offset="0.409" stop-color="#FFBD00"/>
<stop offset="0.775" stop-color="#FFA500"/>
<stop offset="1" stop-color="#FF9C00"/>
</linearGradient>
<linearGradient id="paint3_linear_24423_22313" x1="30.1433" y1="29.6423" x2="14.9684" y2="55.1828" gradientUnits="userSpaceOnUse">
<stop stop-color="#FF3A44"/>
<stop offset="1" stop-color="#C31162"/>
</linearGradient>
<linearGradient id="paint4_linear_24423_22313" x1="13.4443" y1="8.57461" x2="20.2143" y2="19.9814" gradientUnits="userSpaceOnUse">
<stop stop-color="#32A071"/>
<stop offset="0.069" stop-color="#2DA771"/>
<stop offset="0.476" stop-color="#15CF74"/>
<stop offset="0.801" stop-color="#06E775"/>
<stop offset="1" stop-color="#00F076"/>
</linearGradient>
</defs>
</svg>
