<svg width="120" height="121" viewBox="0 0 120 121" fill="none" xmlns="http://www.w3.org/2000/svg">
<path d="M95 10.333C103.27 10.333 110 17.063 110 25.333V95.333C110 103.603 103.27 110.333 95 110.333H25C16.73 110.333 10 103.603 10 95.333V25.333C10 17.063 16.73 10.333 25 10.333H95ZM95 0.333008H25C11.195 0.333008 0 11.528 0 25.333V95.333C0 109.138 11.195 120.333 25 120.333H95C108.81 120.333 120 109.138 120 95.333V25.333C120 11.528 108.81 0.333008 95 0.333008ZM55 40.333H50V30.333H55V35.333H65V40.333H60V45.333H55V40.333ZM65 100.333V95.333H60V100.333H65ZM60 25.333V20.333H50V25.333H55V30.333H60V25.333ZM100 20.333V50.333H95V45.333H75V20.333H100ZM95 40.333V25.333H80V40.333H95ZM25 50.333H20V55.333H30V50.333H25ZM25 65.333H30V70.333H35V55.333H30V60.333H20V70.333H25V65.333ZM50 70.333V80.333H55V70.333H50ZM70 20.333H65V35.333H70V20.333ZM70 45.333V40.333H65V45.333H70ZM85 35.333H90V30.333H85V35.333ZM35 30.333H30V35.333H35V30.333ZM45 20.333V45.333H20V20.333H45ZM40 25.333H25V40.333H40V25.333ZM85 50.333V55.333H80V50.333H70V55.333H65V50.333H50V45.333H45V50.333H40V55.333H45V65.333H50V60.333H55V70.333H60V60.333H75V65.333H65V70.333H75V75.333H80V60.333H85V65.333H90V75.333H95V70.333H100V65.333H95V60.333H90V55.333H95V50.333H85ZM30 90.333H35V85.333H30V90.333ZM20 75.333H45V100.333H20V75.333ZM25 95.333H40V80.333H25V95.333ZM85 80.333V75.333H80V80.333H85ZM85 85.333H80V90.333H75V85.333H70V80.333H75V75.333H65V70.333H60V80.333H55V85.333H50V100.333H55V95.333H60V90.333H70V100.333H75V95.333H80V100.333H90V95.333H95V90.333H85V85.333ZM40 70.333H45V65.333H40V70.333ZM90 80.333V85.333H95V90.333H100V75.333H95V80.333H90ZM100 100.333V95.333H95V100.333H100ZM100 60.333V55.333H95V60.333H100Z" fill="#212B36"/>
</svg>
