<svg width="18" height="19" viewBox="0 0 18 19" fill="none" xmlns="http://www.w3.org/2000/svg">
<path d="M9 18.083C7.26942 18.083 5.57769 17.5698 4.13876 16.6084C2.69983 15.6469 1.57832 14.2803 0.916058 12.6815C0.253791 11.0826 0.080512 9.32331 0.418133 7.62597C0.755753 5.92864 1.58911 4.36954 2.81282 3.14583C4.03653 1.92212 5.59563 1.08876 7.29296 0.751141C8.9903 0.41352 10.7496 0.586799 12.3485 1.24907C13.9473 1.91133 15.3139 3.03284 16.2754 4.47177C17.2368 5.9107 17.75 7.60243 17.75 9.33301C17.75 11.6537 16.8281 13.8793 15.1872 15.5202C13.5462 17.1611 11.3206 18.083 9 18.083ZM9 1.83301C7.51664 1.83301 6.0666 2.27288 4.83323 3.09699C3.59986 3.9211 2.63856 5.09244 2.07091 6.46289C1.50325 7.83333 1.35473 9.34133 1.64411 10.7962C1.9335 12.251 2.64781 13.5874 3.6967 14.6363C4.7456 15.6852 6.08197 16.3995 7.53683 16.6889C8.99168 16.9783 10.4997 16.8298 11.8701 16.2621C13.2406 15.6945 14.4119 14.7332 15.236 13.4998C16.0601 12.2664 16.5 10.8164 16.5 9.33301C16.5 7.34389 15.7098 5.43623 14.3033 4.02971C12.8968 2.62319 10.9891 1.83301 9 1.83301Z" fill="#919EAB"/>
<path d="M11.8688 13.083L8.37501 9.58926V3.70801H9.62501V9.07051L12.75 12.2018L11.8688 13.083Z" fill="#919EAB"/>
</svg>
