<svg width="18" height="16" viewBox="0 0 18 16" fill="none" xmlns="http://www.w3.org/2000/svg">
<path d="M13.6331 15.9437C13.4999 15.9442 13.3684 15.9128 13.2498 15.852L8.9998 13.627L4.7498 15.852C4.6118 15.9246 4.4562 15.957 4.3007 15.9455C4.1452 15.9341 3.99603 15.8792 3.87016 15.7872C3.74429 15.6952 3.64675 15.5697 3.58865 15.425C3.53054 15.2803 3.5142 15.1222 3.54147 14.9687L4.3748 10.277L0.941469 6.94369C0.83435 6.8368 0.758362 6.70275 0.721659 6.55594C0.684955 6.40912 0.688923 6.25509 0.733135 6.11036C0.781435 5.96225 0.870282 5.83065 0.989594 5.73049C1.10891 5.63033 1.2539 5.56561 1.40814 5.54369L6.15814 4.85203L8.2498 0.577025C8.31804 0.436133 8.42458 0.31731 8.55723 0.23417C8.68987 0.15103 8.84326 0.106934 8.9998 0.106934C9.15635 0.106934 9.30973 0.15103 9.44238 0.23417C9.57502 0.31731 9.68156 0.436133 9.7498 0.577025L11.8665 4.84369L16.6165 5.53536C16.7707 5.55728 16.9157 5.62199 17.035 5.72216C17.1543 5.82232 17.2432 5.95392 17.2915 6.10203C17.3357 6.24675 17.3396 6.40079 17.3029 6.5476C17.2662 6.69442 17.1903 6.82846 17.0831 6.93536L13.6498 10.2687L14.4831 14.9604C14.5129 15.1166 14.4973 15.2781 14.4382 15.4257C14.3792 15.5734 14.2791 15.7011 14.1498 15.7937C13.9989 15.8994 13.8172 15.9522 13.6331 15.9437Z" fill="#FFC81A"/>
</svg>
