<svg width="368" height="369" viewBox="0 0 368 369" fill="none" xmlns="http://www.w3.org/2000/svg">
<path d="M283.455 330.276H68.9201C66.8604 330.276 64.8209 329.87 62.9181 329.082C61.0152 328.294 59.2861 327.139 57.8297 325.683C56.3733 324.226 55.218 322.498 54.4298 320.595C53.6415 318.692 53.2358 316.652 53.2358 314.593V174.898C53.2359 170.89 54.7708 167.033 57.5252 164.121C60.2796 161.209 64.0445 159.463 68.0467 159.24L290.859 146.821C300.188 146.3 307.899 154.002 307.389 163.332L299.112 315.444C298.894 319.45 297.15 323.22 294.237 325.978C291.325 328.737 287.466 330.275 283.455 330.276Z" fill="#FA541C"/>
<path opacity="0.48" d="M181.199 245.983L298.47 148.316C296.101 147.184 293.484 146.67 290.862 146.821L68.0499 159.24C64.3591 159.442 60.8594 160.946 58.1724 163.484L145.939 245.109C155.467 253.97 171.141 254.358 181.199 245.983Z" fill="#B3200E"/>
<path d="M164.893 241.142C158.884 241.137 153.086 238.93 148.594 234.938L115.533 205.745C115.077 205.331 114.802 204.754 114.768 204.139C114.734 203.524 114.944 202.921 115.351 202.459C115.759 201.997 116.331 201.714 116.946 201.671C117.56 201.629 118.166 201.829 118.634 202.23L151.704 231.425C155.085 234.433 159.393 236.196 163.913 236.422C168.433 236.649 172.895 235.324 176.56 232.668L193.696 220.352C196.203 218.599 198.918 222.312 196.431 224.159C188.316 229.296 175.24 242.189 164.893 241.142Z" fill="#FDAB76"/>
<path d="M104.774 195.47C103.417 195.726 99.783 191.605 98.7715 190.953C96.4979 188.877 99.5289 185.438 101.874 187.439L106.326 191.369C107.958 192.71 106.847 195.547 104.774 195.47Z" fill="#FDAB76"/>
<path d="M137.113 100.348L128.164 148.269L156.068 123.736L137.113 100.348Z" fill="#FDAB76"/>
<path d="M340.211 114.799L146.268 124.212C145.087 124.269 143.907 124.086 142.8 123.674C141.692 123.262 140.68 122.629 139.824 121.814C138.968 120.999 138.287 120.018 137.821 118.932C137.356 117.845 137.115 116.676 137.115 115.494V35.7048C137.115 31.5332 138.739 27.5255 141.643 24.5306C144.547 21.5357 148.503 19.789 152.673 19.6604L327.47 14.251C340.482 14.251 351.032 24.8033 351.032 37.8193V103.442C351.031 106.362 349.907 109.17 347.893 111.284C345.878 113.399 343.128 114.657 340.211 114.799Z" fill="#FDAB76"/>
<path d="M152.067 120.792C145.765 120.916 140.165 115.339 140.308 109.015V37.1025C140.308 28.7448 147.012 21.9957 155.571 21.7366L324.808 16.627C337.514 16.627 347.84 26.7081 347.84 39.0998V101.098C347.84 106.949 343.152 111.754 337.165 112.037C336.588 112.053 152.599 120.807 152.067 120.792ZM324.814 17.0365L155.582 22.1462C147.247 22.3929 140.719 28.9668 140.719 37.1013V109.015C140.72 110.553 141.032 112.074 141.638 113.487C142.244 114.901 143.13 116.176 144.242 117.237C145.355 118.298 146.672 119.123 148.112 119.66C149.553 120.197 151.088 120.437 152.624 120.364L337.146 111.625C342.911 111.353 347.429 106.728 347.429 101.096V39.0998C347.429 26.9351 337.285 17.0365 324.814 17.0365Z" fill="#FEE9D1"/>
<path d="M167.857 52.9471C168.608 53.0051 169.036 53.4406 169.531 54.0179L191.145 79.6044C190.712 77.992 190.116 54.4065 189.965 52.1107L196.418 51.8776L197.835 91.2497C196.799 91.1992 193.49 91.6334 192.597 91.1658C192.21 90.9981 191.825 90.6847 191.446 90.2258L169.917 64.7467C170.272 65.9384 170.946 90.2517 171.069 92.2132L164.616 92.4463L163.199 53.0742C163.802 53.0668 167.347 52.8854 167.857 52.9471Z" fill="#FEE9D1"/>
<path d="M229.2 50.6983L229.409 56.5247L211.956 57.1526L212.35 68.0713L226.1 67.5779L226.303 73.2143L212.552 73.7077L212.953 84.8436L230.406 84.2157L230.617 90.0692L205.785 90.9636L204.368 51.5927L229.2 50.6983Z" fill="#FEE9D1"/>
<path d="M231.895 50.6008C233.139 50.7599 238.667 49.9137 239.657 50.771C240.087 51.0464 240.406 51.4643 240.558 51.9516C241.38 54.7729 248.904 76.9065 249.095 79.2898C249.194 77.0113 256.164 54.124 256.867 51.3644C257.439 49.403 259.728 49.5732 261.381 49.5399C262.561 49.4832 263.5 50.0407 263.891 51.1115C264.772 53.728 273.266 76.0886 273.592 78.2166C273.592 76.1638 279.555 53.1063 280.119 50.528C280.244 50.0486 280.526 49.6252 280.921 49.3265C281.813 48.3396 287.036 48.7973 288.228 48.5727L277.42 88.384L270.804 88.6234L261.231 62.0315C261.108 61.691 260.985 61.3222 260.85 60.9274C260.716 60.5327 260.59 60.1095 260.464 59.6593C260.429 60.5228 252.524 87.7857 252.153 89.2944L245.536 89.5325L231.895 50.6008Z" fill="#FEE9D1"/>
<path d="M313.89 54.8198C312.328 58.1394 309.013 52.9582 304.268 53.5294C301.888 53.6034 299.537 54.4571 298.656 56.6899C298.148 58.0074 298.204 59.9516 299.206 60.9916C301.303 63.201 304.778 63.5599 307.65 64.5444C311.042 65.572 314.583 67.0548 316.178 70.4657C318.067 74.5984 317.078 80.4864 313.849 83.7888C307.966 89.8965 296.735 88.7825 290.781 83.1609C294.563 75.5779 294.298 79.2528 300.384 81.4338C302.728 82.2752 307.037 81.9544 308.695 80.2076C310.348 78.8395 310.908 75.1806 309.391 73.3796C306.414 70.2856 301.343 70.6002 297.595 68.7066C292.339 66.7328 290.234 60.318 292.212 55.1047C295.594 46.1228 309.047 45.4973 315.562 51.2929L313.89 54.8198Z" fill="#FEE9D1"/>
<path d="M74.2471 206.819C74.1398 207.022 67.3599 212.011 67.3599 212.011C69.1807 225.281 78.4624 234.463 91.0614 223.122C91.0614 223.122 98.5741 224.909 102.57 209.27C103.486 205.681 98.1954 205.378 91.8102 206.039C83.5745 206.888 74.2471 206.819 74.2471 206.819Z" fill="#063963"/>
<path d="M57.1053 248.57C68.2547 241.339 67.6601 244.499 80.977 245.454C106.44 239.754 118.548 248.522 125.349 273.171C120.354 278.299 114.068 280.572 114.068 280.572L112.907 327.648L85.0689 341.9L53.2971 325.945L54.4345 279.939C54.4345 279.939 44.3459 275.241 43.6058 273.532C42.8656 271.823 48.2035 254.69 57.1053 248.57Z" fill="#22B8CF"/>
<path d="M44.0744 273.326C44.0744 273.326 30.5552 310.813 61.3857 326.216C67.7919 325.37 65.3247 314.734 65.3247 314.734C65.3247 314.734 51.9276 311.773 55.9492 280.501C52.2483 277.453 44.0744 273.326 44.0744 273.326Z" fill="#FDBAB9"/>
<path d="M124.7 273.326C124.7 273.326 134.003 312.454 107.393 326.216C100.991 325.365 103.452 314.734 103.452 314.734C103.452 314.734 114.25 309.417 112.828 280.501C116.521 277.453 124.7 273.326 124.7 273.326Z" fill="#FDBAB9"/>
<path d="M111.288 287.623H55.6189C54.1351 287.623 52.9321 288.826 52.9321 290.31V326.161C52.9321 327.645 54.1351 328.848 55.6189 328.848H111.288C112.772 328.848 113.975 327.645 113.975 326.161V290.31C113.975 288.826 112.772 287.623 111.288 287.623Z" fill="#116E95"/>
<path d="M141.437 341.246C134.64 339.385 117.677 340.34 117.612 340.329C116.806 341.338 116.088 349.596 115.868 350.947C116.157 350.772 133.823 354.629 140.951 353.394C146.638 351.625 147.312 342.897 141.437 341.246Z" fill="#063963"/>
<path d="M112.977 339.83C115.26 339.881 118.035 339.818 119.551 341.933C121.324 344.031 121.568 347.756 119.481 349.739C117.856 351.686 114.218 350.681 112.099 350.655L112.977 339.83Z" fill="#FDBAB9"/>
<path d="M44.7987 341.986L44.1819 340.187C44.0906 340.211 27.2061 338.707 20.3435 340.373C14.432 341.844 14.8872 350.588 20.5261 352.532C27.5059 353.983 45.5241 350.674 45.6598 350.856L44.7987 341.986Z" fill="#063963"/>
<path opacity="0.48" d="M44.7987 341.986L44.1819 340.187C44.0906 340.211 27.2061 338.707 20.3435 340.373C14.432 341.844 14.8872 350.588 20.5261 352.532C27.5059 353.983 45.5241 350.674 45.6598 350.856L44.7987 341.986Z" fill="black"/>
<path d="M48.8348 339.833C46.5563 339.813 43.777 339.664 42.2103 341.734C40.3809 343.781 40.054 347.5 42.087 349.538C43.6598 351.533 47.32 350.648 49.443 350.681L48.8348 339.833Z" fill="#FDBAB9"/>
<path d="M142.7 313.358C139.532 306.066 131.784 304.883 125.183 308.291C125.068 308.442 83.3014 329.849 46.4668 339.23C47.7214 343.353 48.3456 347.768 48.1445 352.075C76.3943 350.624 107.046 341.203 133.387 332.925C141.561 330.29 146.212 321.439 142.7 313.358Z" fill="#063963"/>
<path opacity="0.48" d="M142.7 313.358C139.532 306.066 131.784 304.883 125.183 308.291C125.068 308.442 83.3014 329.849 46.4668 339.23C47.7214 343.353 48.3456 347.768 48.1445 352.075C76.3943 350.624 107.046 341.203 133.387 332.925C141.561 330.29 146.212 321.439 142.7 313.358Z" fill="black"/>
<path d="M113.178 350.297C113.009 346.016 114.042 342.155 115.713 338.441C88.7648 329.983 62.3136 318.461 42.171 307.303C24.2836 297.889 15.5249 326.155 33.5678 331.554C66.2081 344.853 79.4682 347.801 113.222 351.184C113.206 350.888 113.19 350.592 113.178 350.297Z" fill="#063963"/>
<path d="M67.4507 243.757C70.3596 258.855 96.8108 260.217 99.0708 243.718L89.984 241.774L89.224 231.649L75.5568 232.661L75.3039 242.283L67.4507 243.757Z" fill="#FDBAB9"/>
<path d="M78.695 205.026C60.414 237.323 95.7411 253.72 97.0105 214.011C93.8241 205.092 91.7269 206.15 91.7269 206.15L78.695 205.026Z" fill="#FDBAB9"/>
<path d="M100.176 202.706C106.68 204.493 101.121 218.598 91.33 215.262C81.5387 211.927 77.6898 211.976 76.1639 214.664C74.6379 217.352 74.3134 226.902 70.9999 222.182C67.3694 217.008 65.3463 206.622 69.7959 203.274C73.7743 200.283 74.702 195.643 79.4724 195.803C85.8046 196.017 90.6983 193.213 93.5591 195.235C96.8418 197.566 95.391 201.391 100.176 202.706Z" fill="#063963"/>
<path d="M75.5648 216.858C70.0135 211.117 72.3883 227.733 74.9912 223.238C76.6751 220.667 75.5648 216.858 75.5648 216.858Z" fill="#FDBAB9"/>
</svg>
