<svg width="14" height="18" viewBox="0 0 14 18" fill="none" xmlns="http://www.w3.org/2000/svg">
<path d="M13.0625 4.8125L8.6875 0.4375C8.5625 0.3125 8.4375 0.25 8.25 0.25H2C1.3125 0.25 0.75 0.8125 0.75 1.5V16.5C0.75 17.1875 1.3125 17.75 2 17.75H12C12.6875 17.75 13.25 17.1875 13.25 16.5V5.25C13.25 5.0625 13.1875 4.9375 13.0625 4.8125ZM8.25 1.75L11.75 5.25H8.25V1.75ZM12 16.5H2V1.5H7V5.25C7 5.9375 7.5625 6.5 8.25 6.5H12V16.5Z" fill="#212B36"/>
<path d="M10.75 12.75H3.25V14H10.75V12.75Z" fill="#212B36"/>
<path d="M10.75 9H3.25V10.25H10.75V9Z" fill="#212B36"/>
</svg>
