<svg width="64" height="64" viewBox="0 0 64 64" fill="none" xmlns="http://www.w3.org/2000/svg">
<rect width="64" height="64" rx="32" fill="white"/>
<path d="M25.25 40.9999C25.0511 40.9999 24.8603 40.9209 24.7197 40.7803C24.579 40.6396 24.5 40.4488 24.5 40.2499V23.7499C24.5 23.6196 24.5339 23.4915 24.5985 23.3783C24.6631 23.2651 24.7561 23.1706 24.8682 23.1043C24.9804 23.038 25.108 23.002 25.2383 23C25.3686 22.9979 25.4972 23.0299 25.6114 23.0927L40.6114 31.3427C40.7291 31.4074 40.8273 31.5026 40.8956 31.6182C40.964 31.7338 41 31.8656 41 31.9999C41 32.1342 40.964 32.266 40.8956 32.3816C40.8273 32.4972 40.7291 32.5924 40.6114 32.6571L25.6114 40.9071C25.5007 40.968 25.3764 40.9999 25.25 40.9999Z" fill="#FA541C"/>
</svg>
