<svg width="18" height="18" viewBox="0 0 18 18" fill="none" xmlns="http://www.w3.org/2000/svg">
<path d="M9 0.25C7.26942 0.25 5.57769 0.763179 4.13876 1.72464C2.69983 2.6861 1.57832 4.05267 0.916058 5.65152C0.253791 7.25037 0.080512 9.00971 0.418133 10.707C0.755753 12.4044 1.58911 13.9635 2.81282 15.1872C4.03653 16.4109 5.59563 17.2443 7.29296 17.5819C8.9903 17.9195 10.7496 17.7462 12.3485 17.0839C13.9473 16.4217 15.3139 15.3002 16.2754 13.8612C17.2368 12.4223 17.75 10.7306 17.75 9C17.75 6.67936 16.8281 4.45376 15.1872 2.81282C13.5462 1.17187 11.3206 0.25 9 0.25ZM9 16.5C7.51664 16.5 6.0666 16.0601 4.83323 15.236C3.59986 14.4119 2.63856 13.2406 2.07091 11.8701C1.50325 10.4997 1.35473 8.99168 1.64411 7.53682C1.9335 6.08197 2.64781 4.74559 3.6967 3.6967C4.7456 2.64781 6.08197 1.9335 7.53683 1.64411C8.99168 1.35472 10.4997 1.50325 11.8701 2.0709C13.2406 2.63856 14.4119 3.59986 15.236 4.83322C16.0601 6.06659 16.5 7.51664 16.5 9C16.5 10.9891 15.7098 12.8968 14.3033 14.3033C12.8968 15.7098 10.9891 16.5 9 16.5Z" fill="#212B36"/>
<path d="M9.00001 14.625C9.51777 14.625 9.93751 14.2053 9.93751 13.6875C9.93751 13.1697 9.51777 12.75 9.00001 12.75C8.48224 12.75 8.06251 13.1697 8.06251 13.6875C8.06251 14.2053 8.48224 14.625 9.00001 14.625Z" fill="#212B36"/>
<path d="M9.625 4H8.6875C8.31793 3.99917 7.95183 4.07136 7.61023 4.21241C7.26863 4.35346 6.95826 4.56059 6.69693 4.82192C6.4356 5.08325 6.22846 5.39363 6.08741 5.73523C5.94636 6.07683 5.87418 6.44292 5.875 6.8125V7.125H7.125V6.8125C7.125 6.3981 7.28962 6.00067 7.58265 5.70764C7.87567 5.41462 8.2731 5.25 8.6875 5.25H9.625C10.0394 5.25 10.4368 5.41462 10.7299 5.70764C11.0229 6.00067 11.1875 6.3981 11.1875 6.8125C11.1875 7.2269 11.0229 7.62433 10.7299 7.91735C10.4368 8.21038 10.0394 8.375 9.625 8.375H8.375V11.1875H9.625V9.625C10.3709 9.625 11.0863 9.32868 11.6137 8.80124C12.1412 8.27379 12.4375 7.55842 12.4375 6.8125C12.4375 6.06658 12.1412 5.35121 11.6137 4.82376C11.0863 4.29631 10.3709 4 9.625 4Z" fill="#212B36"/>
</svg>
