<svg width="18" height="17" viewBox="0 0 18 17" fill="none" xmlns="http://www.w3.org/2000/svg">
<path d="M13.6334 16.5C13.5001 16.5005 13.3687 16.4691 13.25 16.4083L9.00005 14.1833L4.75005 16.4083C4.61204 16.4809 4.45644 16.5133 4.30094 16.5018C4.14544 16.4903 3.99628 16.4355 3.8704 16.3435C3.74453 16.2514 3.647 16.126 3.58889 15.9813C3.53079 15.8366 3.51444 15.6785 3.54171 15.525L4.37505 10.8333L0.941713 7.49997C0.834594 7.39307 0.758606 7.25902 0.721903 7.11221C0.6852 6.9654 0.689167 6.81136 0.73338 6.66663C0.78168 6.51853 0.870527 6.38693 0.989838 6.28677C1.10915 6.1866 1.25415 6.12189 1.40838 6.09997L6.15838 5.4083L8.25005 1.1333C8.31828 0.992407 8.42483 0.873585 8.55747 0.790444C8.69012 0.707304 8.8435 0.663208 9.00005 0.663208C9.15659 0.663208 9.30997 0.707304 9.44262 0.790444C9.57526 0.873585 9.68181 0.992407 9.75005 1.1333L11.8667 5.39997L16.6167 6.09163C16.7709 6.11356 16.9159 6.17827 17.0353 6.27843C17.1546 6.3786 17.2434 6.5102 17.2917 6.6583C17.3359 6.80303 17.3399 6.95707 17.3032 7.10388C17.2665 7.25069 17.1905 7.38474 17.0834 7.49163L13.65 10.825L14.4834 15.5166C14.5131 15.6729 14.4976 15.8343 14.4385 15.982C14.3794 16.1297 14.2793 16.2574 14.15 16.35C13.9991 16.4557 13.8174 16.5085 13.6334 16.5Z" fill="#FFC81A"/>
</svg>
