<svg width="36" height="29" viewBox="0 0 36 29" fill="none" xmlns="http://www.w3.org/2000/svg">
<path d="M12 13.833H3.165C3.44378 11.9765 4.10668 10.1986 5.11138 8.61276C6.11608 7.02693 7.44049 5.66808 9 4.62301L11.685 2.82301L10.035 0.333008L7.35 2.13301C5.08992 3.63912 3.23656 5.67985 1.9544 8.07409C0.672234 10.4683 0.00091063 13.1421 0 15.858V25.833C0 26.6287 0.31607 27.3917 0.87868 27.9543C1.44129 28.5169 2.20435 28.833 3 28.833H12C12.7956 28.833 13.5587 28.5169 14.1213 27.9543C14.6839 27.3917 15 26.6287 15 25.833V16.833C15 16.0374 14.6839 15.2743 14.1213 14.7117C13.5587 14.1491 12.7956 13.833 12 13.833Z" fill="#FA541C"/>
<path d="M33 13.833H24.165C24.4438 11.9765 25.1067 10.1986 26.1114 8.61276C27.1161 7.02693 28.4405 5.66808 30 4.62301L32.685 2.82301L31.05 0.333008L28.35 2.13301C26.0899 3.63912 24.2366 5.67985 22.9544 8.07409C21.6722 10.4683 21.0009 13.1421 21 15.858V25.833C21 26.6287 21.3161 27.3917 21.8787 27.9543C22.4413 28.5169 23.2044 28.833 24 28.833H33C33.7956 28.833 34.5587 28.5169 35.1213 27.9543C35.6839 27.3917 36 26.6287 36 25.833V16.833C36 16.0374 35.6839 15.2743 35.1213 14.7117C34.5587 14.1491 33.7956 13.833 33 13.833Z" fill="#FA541C"/>
</svg>
