<svg width="17" height="18" viewBox="0 0 17 18" fill="none" xmlns="http://www.w3.org/2000/svg">
<path d="M13.3751 11.2999C12.9072 11.3023 12.4459 11.4096 12.0251 11.6141C11.6043 11.8185 11.2348 12.1149 10.9438 12.4812L6.37505 9.62493C6.54156 9.08754 6.54156 8.51233 6.37505 7.97493L10.9438 5.11868C11.4075 5.69288 12.0595 6.08442 12.7843 6.22394C13.509 6.36346 14.2598 6.24195 14.9035 5.88095C15.5473 5.51994 16.0425 4.94274 16.3014 4.25159C16.5603 3.56043 16.5662 2.79994 16.3182 2.10483C16.0701 1.40971 15.5839 0.824844 14.9459 0.453826C14.3079 0.0828079 13.5591 -0.0504115 12.8323 0.0777673C12.1054 0.205946 11.4474 0.58725 10.9748 1.15413C10.5021 1.72101 10.2454 2.43689 10.2501 3.17493C10.253 3.45442 10.2951 3.73212 10.3751 3.99993L5.8063 6.85618C5.40296 6.34842 4.85164 5.97871 4.22877 5.79831C3.60591 5.6179 2.94234 5.63572 2.33006 5.84932C1.71778 6.06291 1.18711 6.46169 0.811608 6.99037C0.436107 7.51906 0.234375 8.15147 0.234375 8.79993C0.234375 9.4484 0.436107 10.0808 0.811608 10.6095C1.18711 11.1382 1.71778 11.537 2.33006 11.7506C2.94234 11.9641 3.60591 11.982 4.22877 11.8016C4.85164 11.6212 5.40296 11.2514 5.8063 10.7437L10.3751 13.5999C10.2951 13.8678 10.253 14.1454 10.2501 14.4249C10.2501 15.043 10.4333 15.6472 10.7767 16.1611C11.1201 16.675 11.6081 17.0755 12.1792 17.3121C12.7502 17.5486 13.3785 17.6105 13.9847 17.4899C14.5909 17.3693 15.1477 17.0717 15.5848 16.6346C16.0218 16.1976 16.3194 15.6408 16.44 15.0346C16.5606 14.4284 16.4987 13.8001 16.2622 13.229C16.0257 12.658 15.6251 12.17 15.1112 11.8266C14.5973 11.4832 13.9931 11.2999 13.3751 11.2999ZM13.3751 1.29993C13.7459 1.29993 14.1084 1.4099 14.4167 1.61593C14.7251 1.82195 14.9654 2.11479 15.1073 2.4574C15.2492 2.80001 15.2864 3.17701 15.214 3.54073C15.1417 3.90444 14.9631 4.23853 14.7009 4.50076C14.4387 4.76298 14.1046 4.94156 13.7408 5.01391C13.3771 5.08625 13.0001 5.04912 12.6575 4.90721C12.3149 4.76529 12.0221 4.52497 11.816 4.21663C11.61 3.90828 11.5001 3.54577 11.5001 3.17493C11.5001 2.67765 11.6976 2.20074 12.0492 1.84911C12.4009 1.49748 12.8778 1.29993 13.3751 1.29993ZM3.37505 10.6749C3.00421 10.6749 2.6417 10.565 2.33336 10.3589C2.02502 10.1529 1.78469 9.86008 1.64278 9.51746C1.50087 9.17485 1.46373 8.79785 1.53608 8.43414C1.60843 8.07042 1.78701 7.73633 2.04923 7.47411C2.31145 7.21188 2.64555 7.03331 3.00926 6.96096C3.37297 6.88861 3.74997 6.92574 4.09259 7.06766C4.4352 7.20957 4.72803 7.4499 4.93406 7.75824C5.14009 8.06658 5.25005 8.42909 5.25005 8.79993C5.25005 9.29721 5.05251 9.77413 4.70088 10.1258C4.34925 10.4774 3.87234 10.6749 3.37505 10.6749ZM13.3751 16.2999C13.0042 16.2999 12.6417 16.19 12.3334 15.9839C12.025 15.7779 11.7847 15.4851 11.6428 15.1425C11.5009 14.7999 11.4637 14.4229 11.5361 14.0591C11.6084 13.6954 11.787 13.3613 12.0492 13.0991C12.3115 12.8369 12.6455 12.6583 13.0093 12.586C13.373 12.5136 13.75 12.5507 14.0926 12.6927C14.4352 12.8346 14.728 13.0749 14.9341 13.3832C15.1401 13.6916 15.2501 14.0541 15.2501 14.4249C15.2501 14.9222 15.0525 15.3991 14.7009 15.7508C14.3492 16.1024 13.8723 16.2999 13.3751 16.2999Z" fill="#637381"/>
</svg>
