<svg width="18" height="16" viewBox="0 0 18 16" fill="none" xmlns="http://www.w3.org/2000/svg">
<path d="M13.032 1.55005C13.487 1.54967 13.9376 1.64013 14.3572 1.81614C14.7768 1.99215 15.1571 2.25016 15.4757 2.57505C16.1322 3.24154 16.5002 4.13952 16.5002 5.07505C16.5002 6.01058 16.1322 6.90856 15.4757 7.57505L9.00071 14.1313L2.52571 7.57505C1.8692 6.90856 1.50121 6.01058 1.50121 5.07505C1.50121 4.13952 1.8692 3.24154 2.52571 2.57505C2.84452 2.25039 3.22482 1.99252 3.64441 1.81648C4.06399 1.64045 4.51445 1.54978 4.96946 1.54978C5.42448 1.54978 5.87493 1.64045 6.29452 1.81648C6.7141 1.99252 7.09441 2.25039 7.41321 2.57505L9.00071 4.20005L10.582 2.58755C10.8996 2.25879 11.2803 1.99746 11.7013 1.8192C12.1222 1.64094 12.5748 1.54939 13.032 1.55005ZM13.032 0.300051C12.4105 0.299524 11.7951 0.423085 11.222 0.663489C10.6489 0.903894 10.1296 1.2563 9.69446 1.70005L9.00071 2.40005L8.30696 1.70005C7.87131 1.2571 7.35184 0.905306 6.77883 0.66517C6.20583 0.425033 5.59075 0.30136 4.96946 0.30136C4.34817 0.30136 3.7331 0.425033 3.1601 0.66517C2.58709 0.905306 2.06762 1.2571 1.63196 1.70005C0.745638 2.60232 0.249023 3.81652 0.249023 5.0813C0.249023 6.34608 0.745638 7.56028 1.63196 8.46255L9.00071 15.9251L16.3695 8.46255C17.2558 7.56028 17.7524 6.34608 17.7524 5.0813C17.7524 3.81652 17.2558 2.60232 16.3695 1.70005C15.9339 1.25687 15.4145 0.904827 14.8415 0.664464C14.2685 0.4241 13.6533 0.300221 13.032 0.300051Z" fill="#637381"/>
</svg>
