<svg width="17" height="19" viewBox="0 0 17 19" fill="none" xmlns="http://www.w3.org/2000/svg">
<path d="M1.25 18.332C1.05109 18.332 0.860322 18.2529 0.71967 18.1123C0.579018 17.9716 0.5 17.7809 0.5 17.582V1.08196C0.49999 0.951628 0.533947 0.823539 0.598521 0.710324C0.663096 0.597109 0.75606 0.502677 0.868249 0.436335C0.980438 0.369994 1.10798 0.334034 1.2383 0.332C1.36862 0.329967 1.49722 0.361931 1.61143 0.42474L16.6114 8.67474C16.7291 8.73945 16.8273 8.83458 16.8956 8.95018C16.964 9.06579 17 9.19763 17 9.33193C17 9.46623 16.964 9.59807 16.8956 9.71367C16.8273 9.82927 16.7291 9.9244 16.6114 9.98911L1.61143 18.2391C1.50069 18.3 1.37637 18.3319 1.25 18.332ZM2 2.35014V16.3136L14.6936 9.33197L2 2.35014Z" fill="white"/>
</svg>
