<svg width="18" height="13" viewBox="0 0 18 13" fill="none" xmlns="http://www.w3.org/2000/svg">
<path d="M16.5 0.0615234H1.5C1.16848 0.0615234 0.850537 0.193219 0.616116 0.42764C0.381696 0.66206 0.25 0.980003 0.25 1.31152V11.3115C0.25 11.643 0.381696 11.961 0.616116 12.1954C0.850537 12.4298 1.16848 12.5615 1.5 12.5615H16.5C16.8315 12.5615 17.1495 12.4298 17.3839 12.1954C17.6183 11.961 17.75 11.643 17.75 11.3115V1.31152C17.75 0.980003 17.6183 0.66206 17.3839 0.42764C17.1495 0.193219 16.8315 0.0615234 16.5 0.0615234ZM15.125 1.31152L9 5.54902L2.875 1.31152H15.125ZM1.5 11.3115V1.88027L8.64375 6.82402C8.74837 6.8966 8.87267 6.9355 9 6.9355C9.12733 6.9355 9.25163 6.8966 9.35625 6.82402L16.5 1.88027V11.3115H1.5Z" fill="#212B36"/>
</svg>
