<svg width="16" height="16" viewBox="0 0 16 16" fill="none" xmlns="http://www.w3.org/2000/svg">
<path d="M14.375 0.951172H1.625C1 0.951172 0.5 1.45117 0.5 2.01367V14.8262C0.5 15.3887 1 15.8887 1.625 15.8887H14.375C15 15.8887 15.5 15.3887 15.5 14.8262V2.01367C15.5 1.45117 15 0.951172 14.375 0.951172ZM4.9375 13.7012H2.75V6.57617H4.9375V13.7012ZM3.875 5.57617C3.1875 5.57617 2.5625 5.01367 2.5625 4.26367C2.5625 3.51367 3.125 2.95117 3.875 2.95117C4.5625 2.95117 5.1875 3.51367 5.1875 4.26367C5.1875 5.01367 4.5625 5.57617 3.875 5.57617ZM13.3125 13.6387H11.125V10.1387C11.125 9.32617 11.125 8.20117 9.9375 8.20117C8.75 8.20117 8.625 9.13867 8.625 10.0137V13.5762H6.4375V6.57617H8.5V7.51367H8.5625C8.875 6.95117 9.625 6.32617 10.6875 6.32617C12.9375 6.32617 13.375 7.82617 13.375 9.76367V13.6387H13.3125Z" fill="#212B36"/>
</svg>
