<svg width="16" height="16" viewBox="0 0 16 16" fill="none" xmlns="http://www.w3.org/2000/svg">
<path d="M12.0037 5.34769C12.5007 5.34769 12.9037 4.94475 12.9037 4.44769C12.9037 3.95064 12.5007 3.54769 12.0037 3.54769C11.5066 3.54769 11.1037 3.95064 11.1037 4.44769C11.1037 4.94475 11.5066 5.34769 12.0037 5.34769Z" fill="#212B36"/>
<path d="M8.00039 4.59978C7.23866 4.59978 6.49403 4.82566 5.86068 5.24885C5.22732 5.67205 4.73368 6.27355 4.44218 6.9773C4.15068 7.68104 4.07441 8.45542 4.22302 9.20252C4.37162 9.94961 4.73843 10.6359 5.27705 11.1745C5.81568 11.7131 6.50193 12.0799 7.24902 12.2285C7.99611 12.3771 8.7705 12.3009 9.47425 12.0094C10.178 11.7179 10.7795 11.2242 11.2027 10.5909C11.6259 9.95751 11.8518 9.21288 11.8518 8.45115C11.8518 7.4297 11.446 6.45009 10.7237 5.72782C10.0014 5.00555 9.02184 4.59978 8.00039 4.59978ZM8.00039 10.9512C7.50593 10.9512 7.02258 10.8045 6.61146 10.5298C6.20034 10.2551 5.87991 9.86468 5.69069 9.40786C5.50147 8.95105 5.45196 8.44838 5.54842 7.96343C5.64489 7.47847 5.88299 7.03302 6.23262 6.68339C6.58225 6.33375 7.02771 6.09565 7.51266 5.99919C7.99761 5.90273 8.50028 5.95223 8.9571 6.14145C9.41391 6.33067 9.80436 6.6511 10.0791 7.06223C10.3538 7.47335 10.5004 7.9567 10.5004 8.45115C10.5004 9.11419 10.237 9.75008 9.76815 10.2189C9.29931 10.6878 8.66343 10.9512 8.00039 10.9512Z" fill="#212B36"/>
<path d="M8 2.30255C10.0026 2.30255 10.2398 2.31017 11.0306 2.3463C11.5062 2.35196 11.9773 2.43931 12.4233 2.60455C12.7467 2.72935 13.0405 2.92047 13.2856 3.16561C13.5308 3.41075 13.7219 3.70448 13.8467 4.02792C14.0119 4.47393 14.0993 4.94501 14.1049 5.42061C14.141 6.21142 14.1487 6.44867 14.1487 8.45123C14.1487 10.4538 14.1411 10.691 14.1049 11.4819C14.0993 11.9575 14.0119 12.4285 13.8467 12.8745C13.7219 13.198 13.5308 13.4917 13.2856 13.7369C13.0405 13.982 12.7467 14.1731 12.4233 14.2979C11.9773 14.4632 11.5062 14.5505 11.0306 14.5562C10.2399 14.5922 10.0027 14.5999 8 14.5999C5.99725 14.5999 5.76012 14.5923 4.96937 14.5562C4.49378 14.5505 4.02269 14.4632 3.57669 14.2979C3.25325 14.1731 2.95951 13.982 2.71437 13.7369C2.46923 13.4917 2.27812 13.198 2.15331 12.8745C1.98808 12.4285 1.90072 11.9575 1.89506 11.4819C1.859 10.691 1.85131 10.4538 1.85131 8.45123C1.85131 6.44867 1.85894 6.21142 1.89506 5.42061C1.90072 4.94501 1.98808 4.47393 2.15331 4.02792C2.27811 3.70447 2.46922 3.41073 2.71436 3.16557C2.95951 2.92042 3.25324 2.72929 3.57669 2.60448C4.02269 2.43925 4.49378 2.3519 4.96937 2.34623C5.76019 2.31017 5.99744 2.30255 8 2.30255ZM8 0.951172C5.96312 0.951172 5.70769 0.959797 4.90775 0.996297C4.28566 1.00879 3.67018 1.12667 3.0875 1.34492C2.58921 1.53762 2.13667 1.8323 1.7589 2.21007C1.38112 2.58784 1.08645 3.04038 0.89375 3.53867C0.675459 4.12145 0.557579 4.73704 0.545125 5.35923C0.508625 6.15886 0.5 6.4143 0.5 8.45117C0.5 10.488 0.508625 10.7435 0.545125 11.5434C0.557586 12.1656 0.675466 12.7812 0.89375 13.364C1.08645 13.8623 1.38112 14.3148 1.7589 14.6926C2.13667 15.0704 2.58921 15.365 3.0875 15.5577C3.67028 15.776 4.28586 15.8939 4.90806 15.9064C5.70769 15.9425 5.96312 15.9512 8 15.9512C10.0369 15.9512 10.2923 15.9425 11.0922 15.906C11.7144 15.8936 12.33 15.7757 12.9128 15.5574C13.4111 15.3647 13.8636 15.07 14.2414 14.6923C14.6192 14.3145 14.9139 13.862 15.1066 13.3637C15.3248 12.7809 15.4427 12.1653 15.4552 11.5431C15.4914 10.7435 15.5 10.488 15.5 8.45117C15.5 6.4143 15.4914 6.15886 15.4549 5.35892C15.4424 4.73683 15.3245 4.12136 15.1062 3.53867C14.9135 3.04044 14.6188 2.58796 14.2411 2.21024C13.8633 1.83253 13.4108 1.5379 12.9125 1.34523C12.3297 1.12695 11.7141 1.00907 11.0919 0.996609C10.2923 0.959797 10.0369 0.951172 8 0.951172Z" fill="#212B36"/>
</svg>
