<svg width="14" height="19" viewBox="0 0 14 19" fill="none" xmlns="http://www.w3.org/2000/svg">
<path d="M7.00001 10.7012C6.38194 10.7012 5.77776 10.5179 5.26385 10.1745C4.74995 9.83113 4.34941 9.34308 4.11288 8.77206C3.87636 8.20104 3.81448 7.5727 3.93505 6.96651C4.05563 6.36032 4.35326 5.8035 4.7903 5.36646C5.22734 4.92942 5.78416 4.6318 6.39035 4.51122C6.99654 4.39064 7.62488 4.45252 8.1959 4.68905C8.76691 4.92557 9.25497 5.32611 9.59835 5.84001C9.94173 6.35392 10.125 6.9581 10.125 7.57617C10.1241 8.40468 9.79452 9.19899 9.20868 9.78484C8.62283 10.3707 7.82852 10.7002 7.00001 10.7012ZM7.00001 5.70117C6.62917 5.70117 6.26666 5.81114 5.95831 6.01717C5.64997 6.22319 5.40965 6.51603 5.26773 6.85864C5.12582 7.20125 5.08869 7.57825 5.16104 7.94197C5.23338 8.30568 5.41196 8.63977 5.67418 8.902C5.93641 9.16422 6.2705 9.3428 6.63421 9.41514C6.99793 9.48749 7.37493 9.45036 7.71754 9.30845C8.06015 9.16653 8.35299 8.92621 8.55901 8.61787C8.76504 8.30952 8.87501 7.94701 8.87501 7.57617C8.87446 7.07906 8.67674 6.60246 8.32523 6.25095C7.97372 5.89944 7.49712 5.70172 7.00001 5.70117Z" fill="#212B36"/>
<path d="M7.00001 18.2012L1.72782 11.9832C1.69788 11.9475 1.51019 11.701 1.51019 11.701C0.609508 10.5147 0.122896 9.06567 0.125007 7.57617C0.125007 5.75281 0.849335 4.00413 2.13865 2.71481C3.42796 1.4255 5.17664 0.701172 7.00001 0.701172C8.82337 0.701172 10.5721 1.4255 11.8614 2.71481C13.1507 4.00413 13.875 5.75281 13.875 7.57617C13.8772 9.06506 13.391 10.5136 12.4908 11.6995L12.4898 11.701C12.4898 11.701 12.3023 11.9475 12.2744 11.9807L7.00001 18.2012ZM2.50782 10.948C2.50844 10.9485 2.65369 11.1407 2.68694 11.182L7.00001 16.2686L11.3188 11.1749C11.3462 11.1404 11.4927 10.9468 11.493 10.9463C12.2288 9.97697 12.6264 8.79312 12.625 7.57617C12.625 6.08433 12.0324 4.65359 10.9775 3.5987C9.92259 2.5438 8.49185 1.95117 7.00001 1.95117C5.50816 1.95117 4.07742 2.5438 3.02253 3.5987C1.96764 4.65359 1.37501 6.08433 1.37501 7.57617C1.37362 8.79378 1.77156 9.97825 2.50782 10.948Z" fill="#212B36"/>
</svg>
