<svg width="74" height="21" viewBox="0 0 74 21" fill="none" xmlns="http://www.w3.org/2000/svg">
<ellipse cx="68.1421" cy="14.6178" rx="4.10497" ry="4.16666" fill="#FA541C"/>
<path d="M48.712 18.7848H44.6882L37.9582 8.50468V18.7848H33.9343V2.11816H37.9582L44.6882 12.4458V2.11816H48.712V18.7848Z" fill="#212B36"/>
<path d="M54.8192 5.37078V8.7421H60.2059V11.876H54.8192V15.5322H60.7532V18.7848H50.9013V2.11816H60.7532V5.37078H54.8192Z" fill="#212B36"/>
<path d="M23.5579 18.7848C22.0528 18.7848 20.6692 18.4294 19.4073 17.7185C18.1607 17.0077 17.1648 16.0186 16.4199 14.7515C15.6901 13.4688 15.3252 12.0316 15.3252 10.4399C15.3252 8.84819 15.6901 7.41874 16.4199 6.15154C17.1648 4.88435 18.1607 3.89532 19.4073 3.18446C20.6692 2.4736 22.0528 2.11816 23.5579 2.11816C25.063 2.11816 26.439 2.4736 27.6856 3.18446C28.9475 3.89532 29.9358 4.88435 30.6503 6.15154C31.3801 7.41874 31.745 8.84819 31.745 10.4399C31.745 12.0316 31.3801 13.4688 30.6503 14.7515C29.9206 16.0186 28.9323 17.0077 27.6856 17.7185C26.439 18.4294 25.063 18.7848 23.5579 18.7848ZM23.5579 15.1687C24.835 15.1687 25.8536 14.736 26.6138 13.8706C27.3892 13.0052 27.7769 11.8616 27.7769 10.4399C27.7769 9.00273 27.3892 7.85916 26.6138 7.00922C25.8536 6.14382 24.835 5.71112 23.5579 5.71112C22.2656 5.71112 21.2318 6.13609 20.4564 6.98604C19.6962 7.83598 19.3161 8.98727 19.3161 10.4399C19.3161 11.8771 19.6962 13.0284 20.4564 13.8938C21.2318 14.7437 22.2656 15.1687 23.5579 15.1687Z" fill="#212B36"/>
<path d="M6.13766 15.461H13.1359V18.7848H1.64209V15.6984L8.594 5.442H1.64209V2.11816H13.1359V5.20458L6.13766 15.461Z" fill="#212B36"/>
</svg>
