<svg width="14" height="13" viewBox="0 0 14 13" fill="none" xmlns="http://www.w3.org/2000/svg">
<path d="M4.45 12.0383C5.50571 12.0449 6.55224 11.8419 7.52887 11.4409C8.50551 11.04 9.39282 10.4491 10.1393 9.70259C10.8858 8.95607 11.4767 8.06876 11.8777 7.09213C12.2786 6.11549 12.4816 5.06897 12.475 4.01326C12.475 3.88826 12.475 3.76951 12.475 3.64451C13.0222 3.24356 13.4959 2.75086 13.875 2.18826C13.3597 2.41363 12.8144 2.5631 12.2563 2.63201C12.8481 2.27937 13.2921 1.7243 13.5063 1.06951C12.9547 1.40041 12.3499 1.63303 11.7188 1.75701C11.2937 1.30411 10.7313 1.00392 10.1184 0.902871C9.50558 0.801828 8.87653 0.905567 8.32859 1.19804C7.78065 1.49051 7.34437 1.95541 7.08725 2.5208C6.83014 3.0862 6.76652 3.72057 6.90625 4.32576C5.78502 4.27072 4.68794 3.98014 3.68647 3.47295C2.685 2.96575 1.80159 2.25331 1.09375 1.38201C0.736827 2.00149 0.628642 2.73346 0.7911 3.42971C0.953558 4.12596 1.37452 4.73446 1.96875 5.13201C1.53038 5.1151 1.10216 4.9952 0.71875 4.78201V4.81326C0.714855 5.46065 0.932951 6.08983 1.33669 6.59592C1.74043 7.10202 2.30542 7.45446 2.9375 7.59451C2.52977 7.70417 2.10268 7.72125 1.6875 7.64451C1.87049 8.19662 2.2198 8.67861 2.68753 9.02437C3.15526 9.37013 3.71849 9.56273 4.3 9.57576C3.30576 10.3761 2.07006 10.8166 0.79375 10.8258C0.569971 10.8193 0.346717 10.8005 0.125 10.7695C1.41685 11.5926 2.91825 12.0265 4.45 12.0195" fill="#212B36"/>
</svg>
