<svg width="260" height="472" viewBox="0 0 260 472" fill="none" xmlns="http://www.w3.org/2000/svg">
<path fill-rule="evenodd" clip-rule="evenodd" d="M151.754 316.659L123.547 283.904L201.858 299.02L151.754 316.659Z" fill="#116E95"/>
<path fill-rule="evenodd" clip-rule="evenodd" d="M215.392 241.238C217.328 241.327 218.664 243.216 218.104 245.075L201.857 299.02L132.859 288.817L145.424 240.385C145.778 239.022 147.036 238.094 148.44 238.158L215.392 241.238Z" fill="#22B8CF"/>
<path fill-rule="evenodd" clip-rule="evenodd" d="M211.03 245.008L196.882 294.773L137.445 285.542L149.709 241.413L211.03 245.008Z" fill="#77F0ED"/>
<path fill-rule="evenodd" clip-rule="evenodd" d="M117.557 391.762L118.084 449.375C109.191 449.547 102.038 451.098 100.825 453.079L100.806 453.057C97.8593 453.234 94.8552 453.424 92.1093 454.506C89.3633 455.587 86.8682 457.73 86.144 460.586C85.4192 463.442 86.9976 466.91 89.8649 467.612C92.7323 468.314 95.9633 465.168 94.819 462.453C94.5962 461.924 94.2485 461.461 93.9014 460.998C93.5026 460.466 93.1047 459.935 92.8985 459.309C92.2522 457.345 93.4436 455.743 95.3838 455.02C96.7524 454.511 99.4375 454.408 100.902 454.39C102.146 456.084 107.747 457.444 115.011 457.862C111.932 458.52 109.289 461.428 109.385 464.631C109.504 468.641 113.883 471.936 117.78 470.948C121.66 469.964 123.909 464.835 121.761 461.463C120.476 459.446 117.838 458.674 115.53 459.131L117.2 457.958C118.028 457.982 118.872 457.995 119.73 457.995C128.329 457.995 135.6 456.709 137.987 454.94C141.96 454.891 145.429 455.422 147.422 457.659C146.274 457.972 145.186 458.448 144.243 459.171C142.389 460.592 141.241 463.114 141.969 465.331C142.97 468.376 147.348 469.418 149.941 467.526C152.533 465.633 153.096 461.707 151.632 458.854C151.318 458.242 150.398 457.082 150.398 457.082C148.757 455.261 146.359 454.106 143.907 453.716C142.169 453.439 140.406 453.162 138.665 453.128C137.586 451.205 130.914 449.676 122.453 449.403L121.927 391.722L117.557 391.762Z" fill="#637381"/>
<path fill-rule="evenodd" clip-rule="evenodd" d="M96.4922 391.555L138.673 385.034C142.352 397.317 108.452 405.357 96.4922 391.555Z" fill="#454F5B"/>
<path fill-rule="evenodd" clip-rule="evenodd" d="M154.002 453.819L171.785 452.181L161.974 447.882L162.893 434.575L154.002 437.237V453.819Z" fill="#770508"/>
<path fill-rule="evenodd" clip-rule="evenodd" d="M188.75 464.669L210.416 462.007L197.539 456.685L199.583 439.693L190.794 442.764L188.75 464.669Z" fill="#770508"/>
<path fill-rule="evenodd" clip-rule="evenodd" d="M165.039 437.237H154.001L149.709 364.153L178.53 357.397L165.039 437.237Z" fill="#161C24"/>
<path fill-rule="evenodd" clip-rule="evenodd" d="M93.9072 391.175C111.077 394.246 164.426 390.757 164.119 365.786L77.7596 375.208C77.7596 375.208 76.7374 388.105 93.9072 391.175Z" fill="#637381"/>
<path fill-rule="evenodd" clip-rule="evenodd" d="M130.087 379.507C198.153 358.011 194.473 358.625 194.473 358.625L190.794 442.764H204.285C204.285 442.764 241.281 327.508 220.841 316.249C200.401 304.99 140.102 329.556 140.102 329.556L38.7188 343.886C38.7188 343.886 62.0206 401.002 130.087 379.507Z" fill="#212B36"/>
<path fill-rule="evenodd" clip-rule="evenodd" d="M77.7611 156.775L75.2886 158.618C75.2886 158.618 78.1701 165.783 76.9437 166.397C75.7173 167.011 72.2422 169.058 72.2422 169.058L74.2866 178.885L57.7301 180.932L56.2988 168.649L57.5252 149.2L70.8116 142.854L77.7611 156.775Z" fill="#FDBAB9"/>
<path fill-rule="evenodd" clip-rule="evenodd" d="M63.4529 165.987C63.4529 165.987 58.7515 163.53 59.5689 160.869C60.3869 158.208 64.0661 158.822 65.701 162.098L68.767 161.483L64.1201 148.177C64.1201 148.177 76.965 144.574 75.1039 138.146C72.5793 129.425 63.3285 132.614 63.5915 140.066C63.5915 140.066 49.1443 141.626 50.3708 149.405C51.5972 157.184 55.7179 171.687 55.7179 171.687L64.2703 170.081L63.4529 165.987Z" fill="#212B36"/>
<path fill-rule="evenodd" clip-rule="evenodd" d="M71.2097 152.291C70.6504 152.291 70.1973 152.745 70.1973 153.305C70.1973 153.865 70.6504 154.319 71.2097 154.319C71.7689 154.319 72.2221 153.865 72.2221 153.305C72.2221 152.745 71.7689 152.291 71.2097 152.291Z" fill="#212B36"/>
<path fill-rule="evenodd" clip-rule="evenodd" d="M68.0868 151.346C67.9292 151.286 67.8501 151.108 67.9114 150.95C68.1788 150.254 68.7595 149.675 69.5027 149.359C70.2471 149.043 71.067 149.029 71.7513 149.319C71.9077 149.385 71.98 149.565 71.9144 149.721C71.8488 149.879 71.6667 149.95 71.5128 149.885C70.9799 149.659 70.3342 149.673 69.7424 149.925C69.1507 150.176 68.6914 150.63 68.4829 151.171C68.4363 151.292 68.3204 151.367 68.1972 151.367C68.1604 151.367 68.123 151.361 68.0868 151.346Z" fill="#212B36"/>
<path fill-rule="evenodd" clip-rule="evenodd" d="M138.672 248.693C138.672 248.693 120.921 190.246 100.04 180.932C81.224 172.538 32.5875 170.696 16.6441 213.686C0.700664 256.677 38.7195 343.886 38.7195 343.886C38.7195 343.886 108.012 358.011 149.71 327.304L109.955 259.478L138.672 248.693Z" fill="#FA541C"/>
<path fill-rule="evenodd" clip-rule="evenodd" d="M158.908 306.423L190.182 299.053L196.927 289.841L198.153 290.25L196.314 296.801L208.782 294.754V296.596L198.767 299.463L208.782 298.029V299.667L199.584 302.328L208.782 301.509V303.556L200.402 304.99L207.147 305.399L206.534 306.423L193.657 308.265C193.657 308.265 147.666 341.429 140.103 329.556C132.54 317.682 109.955 259.478 109.955 259.478L138.672 248.693L158.908 306.423Z" fill="#FDBAB9"/>
<path fill-rule="evenodd" clip-rule="evenodd" d="M106.99 252.173L136.004 240.642L138.673 248.693L109.956 259.478L106.99 252.173Z" fill="#FFFFFE"/>
<path fill-rule="evenodd" clip-rule="evenodd" d="M208.781 354.326L194.16 365.786L194.474 358.625L208.781 354.326Z" fill="#161C24"/>
<path fill-rule="evenodd" clip-rule="evenodd" d="M63.5238 381.943C37.8911 363.439 31.2464 321.423 30.9766 319.643L35.22 318.996C35.2837 319.414 41.8763 361.027 66.0441 378.463C75.2446 385.101 85.942 387.426 97.8364 385.372L98.5655 389.609C95.5075 390.137 92.5199 390.4 89.6072 390.4C80.0626 390.4 71.3189 387.571 63.5238 381.943Z" fill="#637381"/>
<path fill-rule="evenodd" clip-rule="evenodd" d="M4.99246 310.722C1.28807 299.061 -4.20566 280.628 8.6717 276.944C21.5491 273.259 50.983 265.889 58.9547 276.944C66.9264 287.998 69.5834 319.32 56.2977 321.776C43.0113 324.233 26.4547 324.233 26.4547 324.233C26.4547 324.233 9.28491 324.233 4.99246 310.722Z" fill="#454F5B"/>
<path fill-rule="evenodd" clip-rule="evenodd" d="M178.531 191.781H211.031L208.783 217.166L175.547 211.434L178.531 191.781Z" fill="#FDAB76"/>
<path fill-rule="evenodd" clip-rule="evenodd" d="M211.031 106.62L259.679 114.808L249.867 153.305L201.857 141.012L211.031 106.62Z" fill="#FDAB76"/>
<path fill-rule="evenodd" clip-rule="evenodd" d="M179.962 80.0062L243.736 57.4878L227.384 0.166748L160.34 34.9687L179.962 80.0062Z" fill="#FDAB76"/>
<path fill-rule="evenodd" clip-rule="evenodd" d="M243.406 56.3319L206.013 39.6584L227.737 1.40733L227.383 0.166748L225.883 0.945489L201.578 43.7406L161.593 34.3177L160.34 34.9687L160.799 36.0232L194.204 43.8954L179.455 78.8417L179.962 80.0062L181.136 79.5916L196.021 44.3235L202.497 45.8496L205.099 41.2675L242.473 57.933L243.735 57.4878L243.406 56.3319Z" fill="#B3200E"/>
<path fill-rule="evenodd" clip-rule="evenodd" d="M258.082 114.539L227.692 128.8L212.305 106.833L211.031 106.619L210.721 107.78L222.94 125.222L202.225 139.635L201.857 141.012L203.035 141.314L223.997 126.731L227.074 131.124L234.957 127.426L248.657 152.995L249.867 153.304L250.204 151.985L236.624 126.643L259.384 115.963L259.679 114.808L258.082 114.539Z" fill="#B3200E"/>
<path fill-rule="evenodd" clip-rule="evenodd" d="M209.78 191.782L191.482 202.09L179.473 191.782H178.531L178.423 192.497L188.279 200.959L175.679 210.562L175.547 211.435L176.372 211.577L189.231 201.776L191.336 203.583L194.645 201.718L207.83 217.003L208.783 217.167L208.859 216.315L195.736 201.104L210.966 192.524L211.031 191.782H209.78Z" fill="#B3200E"/>
</svg>
