<svg width="22" height="16" viewBox="0 0 22 16" fill="none" xmlns="http://www.w3.org/2000/svg">
<path d="M20 0.332031H2C1.60218 0.332031 1.22064 0.490066 0.93934 0.771371C0.658035 1.05268 0.5 1.43421 0.5 1.83203V13.832C0.5 14.2299 0.658035 14.6114 0.93934 14.8927C1.22064 15.174 1.60218 15.332 2 15.332H20C20.3978 15.332 20.7794 15.174 21.0607 14.8927C21.342 14.6114 21.5 14.2299 21.5 13.832V1.83203C21.5 1.43421 21.342 1.05268 21.0607 0.771371C20.7794 0.490066 20.3978 0.332031 20 0.332031ZM18.35 1.83203L11 6.91703L3.65 1.83203H18.35ZM2 13.832V2.51453L10.5725 8.44703C10.698 8.53413 10.8472 8.5808 11 8.5808C11.1528 8.5808 11.302 8.53413 11.4275 8.44703L20 2.51453V13.832H2Z" fill="#212B36"/>
</svg>
