<svg width="12" height="20" viewBox="0 0 12 20" fill="none" xmlns="http://www.w3.org/2000/svg">
<path d="M10.5 0H1.5C1.1023 0.000397108 0.720997 0.15856 0.439779 0.439779C0.15856 0.720997 0.000397108 1.1023 0 1.5V18C0.00045655 18.3977 0.158639 18.7789 0.439844 19.0602C0.72105 19.3414 1.10232 19.4995 1.5 19.5H10.5C10.8977 19.4995 11.2789 19.3413 11.5601 19.0601C11.8413 18.7789 11.9995 18.3977 12 18V1.5C11.9995 1.10232 11.8414 0.72105 11.5602 0.439844C11.279 0.158638 10.8977 0.00045655 10.5 0ZM10.5 1.5V3H1.5V1.5H10.5ZM1.5 18V4.5H10.5V18H1.5Z" fill="#212B36"/>
</svg>
