<svg width="33" height="14" viewBox="0 0 33 14" fill="none" xmlns="http://www.w3.org/2000/svg">
<path d="M8.568 10L7.294 8.712C6.818 9.20667 6.30933 9.57533 5.768 9.818C5.22667 10.0513 4.61533 10.168 3.934 10.168C3.262 10.168 2.66467 10.0467 2.142 9.804C1.62867 9.56133 1.22733 9.216 0.938 8.768C0.658 8.32 0.518 7.79733 0.518 7.2C0.518 6.51867 0.709333 5.92133 1.092 5.408C1.484 4.88533 2.058 4.47467 2.814 4.176C2.51533 3.82133 2.30067 3.49467 2.17 3.196C2.03933 2.89733 1.974 2.57067 1.974 2.216C1.974 1.80533 2.07667 1.43667 2.282 1.11C2.49667 0.774 2.8 0.512666 3.192 0.325999C3.584 0.139333 4.03667 0.0459996 4.55 0.0459996C5.054 0.0459996 5.49267 0.143999 5.866 0.339999C6.23933 0.535999 6.51933 0.811333 6.706 1.166C6.89267 1.51133 6.97667 1.89867 6.958 2.328H5.684C5.69333 1.94533 5.586 1.64667 5.362 1.432C5.138 1.208 4.84867 1.096 4.494 1.096C4.12067 1.096 3.81733 1.20333 3.584 1.418C3.36 1.62333 3.248 1.88933 3.248 2.216C3.248 2.496 3.32267 2.76667 3.472 3.028C3.63067 3.28933 3.892 3.61133 4.256 3.994L7.168 6.92L7.42 6.528L8.372 4.932H9.744L8.596 6.92C8.43733 7.2 8.25067 7.494 8.036 7.802L10.234 10H8.568ZM3.934 9.076C4.438 9.076 4.89067 8.978 5.292 8.782C5.70267 8.586 6.09 8.28267 6.454 7.872L3.584 4.988C2.38933 5.44533 1.792 6.16867 1.792 7.158C1.792 7.70867 1.988 8.166 2.38 8.53C2.78133 8.894 3.29933 9.076 3.934 9.076ZM16.406 0.242V6.416C16.406 7.284 16.616 7.928 17.036 8.348C17.4654 8.768 18.058 8.978 18.814 8.978C19.5607 8.978 20.144 8.768 20.564 8.348C20.9934 7.928 21.208 7.284 21.208 6.416V0.242H22.482V6.402C22.482 7.214 22.3187 7.9 21.992 8.46C21.6654 9.01067 21.222 9.42133 20.662 9.692C20.1114 9.96267 19.4907 10.098 18.8 10.098C18.1094 10.098 17.484 9.96267 16.924 9.692C16.3734 9.42133 15.9347 9.01067 15.608 8.46C15.2907 7.9 15.132 7.214 15.132 6.402V0.242H16.406ZM25.8813 3.742C26.1333 3.30333 26.5066 2.93933 27.0013 2.65C27.5053 2.35133 28.0886 2.202 28.7513 2.202C29.4326 2.202 30.0486 2.36533 30.5993 2.692C31.1593 3.01867 31.598 3.48067 31.9153 4.078C32.2326 4.666 32.3913 5.352 32.3913 6.136C32.3913 6.91067 32.2326 7.60133 31.9153 8.208C31.598 8.81467 31.1593 9.286 30.5993 9.622C30.0486 9.958 29.4326 10.126 28.7513 10.126C28.098 10.126 27.5193 9.98133 27.0153 9.692C26.5206 9.39333 26.1426 9.02467 25.8813 8.586V13.64H24.6073V2.328H25.8813V3.742ZM31.0893 6.136C31.0893 5.55733 30.9726 5.05333 30.7393 4.624C30.506 4.19467 30.1886 3.868 29.7873 3.644C29.3953 3.42 28.9613 3.308 28.4853 3.308C28.0186 3.308 27.5846 3.42467 27.1833 3.658C26.7913 3.882 26.474 4.21333 26.2313 4.652C25.998 5.08133 25.8813 5.58067 25.8813 6.15C25.8813 6.72867 25.998 7.23733 26.2313 7.676C26.474 8.10533 26.7913 8.43667 27.1833 8.67C27.5846 8.894 28.0186 9.006 28.4853 9.006C28.9613 9.006 29.3953 8.894 29.7873 8.67C30.1886 8.43667 30.506 8.10533 30.7393 7.676C30.9726 7.23733 31.0893 6.724 31.0893 6.136Z" fill="#212B36"/>
</svg>
