<svg width="286" height="28" viewBox="0 0 286 28" fill="none" xmlns="http://www.w3.org/2000/svg">
<path d="M14.6334 21.5C14.5001 21.5005 14.3687 21.4691 14.25 21.4083L10 19.1833L5.75005 21.4083C5.61204 21.4809 5.45644 21.5133 5.30094 21.5018C5.14544 21.4903 4.99628 21.4355 4.8704 21.3435C4.74453 21.2514 4.647 21.126 4.58889 20.9813C4.53079 20.8366 4.51444 20.6785 4.54171 20.525L5.37505 15.8333L1.94171 12.5C1.83459 12.3931 1.75861 12.259 1.7219 12.1122C1.6852 11.9654 1.68917 11.8114 1.73338 11.6666C1.78168 11.5185 1.87053 11.3869 1.98984 11.2868C2.10915 11.1866 2.25415 11.1219 2.40838 11.1L7.15838 10.4083L9.25005 6.1333C9.31828 5.99241 9.42483 5.87358 9.55747 5.79044C9.69012 5.7073 9.8435 5.66321 10 5.66321C10.1566 5.66321 10.31 5.7073 10.4426 5.79044C10.5753 5.87358 10.6818 5.99241 10.75 6.1333L12.8667 10.4L17.6167 11.0916C17.7709 11.1136 17.9159 11.1783 18.0353 11.2784C18.1546 11.3786 18.2434 11.5102 18.2917 11.6583C18.3359 11.803 18.3399 11.9571 18.3032 12.1039C18.2665 12.2507 18.1905 12.3847 18.0834 12.4916L14.65 15.825L15.4834 20.5166C15.5131 20.6729 15.4976 20.8343 15.4385 20.982C15.3794 21.1297 15.2793 21.2574 15.15 21.35C14.9991 21.4557 14.8174 21.5085 14.6334 21.5Z" fill="#FFC81A"/>
<path d="M33.8716 15.816C33.9316 15.816 33.9796 15.84 34.0156 15.888C34.0636 15.924 34.0876 15.972 34.0876 16.032V17.472C34.0876 17.532 34.0636 17.586 34.0156 17.634C33.9796 17.67 33.9316 17.688 33.8716 17.688H33.1156C33.0556 17.688 33.0256 17.718 33.0256 17.778V20.784C33.0256 20.844 33.0016 20.898 32.9536 20.946C32.9176 20.982 32.8696 21 32.8096 21H31.1536C31.0936 21 31.0396 20.982 30.9916 20.946C30.9556 20.898 30.9376 20.844 30.9376 20.784V17.778C30.9376 17.718 30.9076 17.688 30.8476 17.688H25.3756C25.3156 17.688 25.2616 17.67 25.2136 17.634C25.1776 17.586 25.1596 17.532 25.1596 17.472V16.32C25.1596 16.248 25.1776 16.158 25.2136 16.05L28.6156 8.562C28.6636 8.454 28.7476 8.4 28.8676 8.4H30.6316C30.7156 8.4 30.7696 8.424 30.7936 8.472C30.8296 8.508 30.8296 8.568 30.7936 8.652L27.5896 15.708C27.5776 15.732 27.5776 15.756 27.5896 15.78C27.6016 15.804 27.6196 15.816 27.6436 15.816H30.8476C30.9076 15.816 30.9376 15.786 30.9376 15.726V13.278C30.9376 13.218 30.9556 13.17 30.9916 13.134C31.0396 13.086 31.0936 13.062 31.1536 13.062H32.8096C32.8696 13.062 32.9176 13.086 32.9536 13.134C33.0016 13.17 33.0256 13.218 33.0256 13.278V15.726C33.0256 15.786 33.0556 15.816 33.1156 15.816H33.8716ZM37.3989 21.036C37.0269 21.036 36.7209 20.916 36.4809 20.676C36.2409 20.436 36.1209 20.13 36.1209 19.758C36.1209 19.386 36.2409 19.08 36.4809 18.84C36.7209 18.6 37.0269 18.48 37.3989 18.48C37.7709 18.48 38.0709 18.6 38.2989 18.84C38.5389 19.08 38.6589 19.386 38.6589 19.758C38.6589 20.13 38.5389 20.436 38.2989 20.676C38.0589 20.916 37.7589 21.036 37.3989 21.036ZM48.2968 15.546C48.5608 16.074 48.6928 16.68 48.6928 17.364C48.6928 18.084 48.5368 18.738 48.2248 19.326C47.9128 19.89 47.4568 20.334 46.8568 20.658C46.2568 20.982 45.5488 21.144 44.7328 21.144C43.9288 21.144 43.2148 20.988 42.5908 20.676C41.9668 20.352 41.4988 19.884 41.1868 19.272C40.8748 18.708 40.7188 18.066 40.7188 17.346C40.7188 16.698 40.8568 16.086 41.1328 15.51C41.3728 15.018 41.7148 14.646 42.1588 14.394C42.2188 14.358 42.2248 14.316 42.1768 14.268C41.8768 14.052 41.6068 13.752 41.3668 13.368C41.0548 12.864 40.8988 12.306 40.8988 11.694C40.8988 10.938 41.1208 10.26 41.5648 9.66C41.8888 9.192 42.3268 8.832 42.8788 8.58C43.4308 8.316 44.0488 8.184 44.7328 8.184C45.4408 8.184 46.0588 8.316 46.5868 8.58C47.1268 8.832 47.5588 9.192 47.8828 9.66C48.3028 10.272 48.5128 10.95 48.5128 11.694C48.5128 12.354 48.3508 12.93 48.0268 13.422C47.7988 13.758 47.5348 14.034 47.2348 14.25C47.1868 14.298 47.1868 14.34 47.2348 14.376C47.6908 14.64 48.0448 15.03 48.2968 15.546ZM43.1848 10.902C43.0408 11.214 42.9688 11.49 42.9688 11.73C42.9688 12.138 43.0708 12.504 43.2748 12.828C43.5628 13.32 44.0428 13.566 44.7148 13.566C45.3628 13.566 45.8548 13.314 46.1908 12.81C46.3708 12.546 46.4608 12.18 46.4608 11.712C46.4608 11.448 46.3948 11.172 46.2628 10.884C46.1068 10.608 45.8968 10.392 45.6328 10.236C45.3688 10.068 45.0568 9.984 44.6968 9.984C44.3608 9.984 44.0608 10.068 43.7968 10.236C43.5328 10.392 43.3288 10.614 43.1848 10.902ZM46.2088 18.606C46.4608 18.258 46.5868 17.784 46.5868 17.184C46.5868 16.632 46.4908 16.2 46.2988 15.888C45.9988 15.336 45.4708 15.06 44.7148 15.06C44.0068 15.06 43.4908 15.324 43.1668 15.852C42.9628 16.176 42.8608 16.626 42.8608 17.202C42.8608 17.754 42.9688 18.204 43.1848 18.552C43.5088 19.08 44.0248 19.344 44.7328 19.344C45.4048 19.344 45.8968 19.098 46.2088 18.606Z" fill="#212B36"/>
<path d="M58.646 21.604C57.75 20.7267 57.05 19.6113 56.546 18.258C56.0513 16.9047 55.804 15.444 55.804 13.876C55.804 12.2707 56.0653 10.7727 56.588 9.382C57.12 7.982 57.876 6.82933 58.856 5.924H60.186V6.05C59.1407 7.03 58.352 8.21067 57.82 9.592C57.2973 10.964 57.036 12.392 57.036 13.876C57.036 15.3227 57.2833 16.704 57.778 18.02C58.282 19.336 59.0147 20.4887 59.976 21.478V21.604H58.646ZM61.1814 10.04V8.878H63.8134V19H62.5254V10.04H61.1814ZM66.0018 13.834C66.0018 12.2287 66.2631 10.978 66.7858 10.082C67.3085 9.17667 68.2231 8.724 69.5298 8.724C70.8271 8.724 71.7371 9.17667 72.2598 10.082C72.7825 10.978 73.0438 12.2287 73.0438 13.834C73.0438 15.4673 72.7825 16.7367 72.2598 17.642C71.7371 18.5473 70.8271 19 69.5298 19C68.2231 19 67.3085 18.5473 66.7858 17.642C66.2631 16.7367 66.0018 15.4673 66.0018 13.834ZM71.7838 13.834C71.7838 13.022 71.7278 12.336 71.6158 11.776C71.5131 11.2067 71.2938 10.7493 70.9578 10.404C70.6311 10.0587 70.1551 9.886 69.5298 9.886C68.8951 9.886 68.4098 10.0587 68.0738 10.404C67.7471 10.7493 67.5278 11.2067 67.4158 11.776C67.3131 12.336 67.2618 13.022 67.2618 13.834C67.2618 14.674 67.3131 15.3787 67.4158 15.948C67.5278 16.5173 67.7471 16.9747 68.0738 17.32C68.4098 17.6653 68.8951 17.838 69.5298 17.838C70.1551 17.838 70.6311 17.6653 70.9578 17.32C71.2938 16.9747 71.5131 16.5173 71.6158 15.948C71.7278 15.3787 71.7838 14.674 71.7838 13.834ZM76.3188 17.236L74.7508 21.002H73.8968L74.9188 17.236H76.3188ZM77.5402 11.426C77.6055 10.5673 77.9369 9.89533 78.5342 9.41C79.1315 8.92467 79.9062 8.682 80.8582 8.682C81.4929 8.682 82.0389 8.79867 82.4962 9.032C82.9629 9.256 83.3129 9.564 83.5462 9.956C83.7889 10.348 83.9102 10.7913 83.9102 11.286C83.9102 11.8647 83.7422 12.364 83.4062 12.784C83.0795 13.204 82.6502 13.4747 82.1182 13.596V13.666C82.7249 13.8153 83.2055 14.1093 83.5602 14.548C83.9149 14.9867 84.0922 15.5607 84.0922 16.27C84.0922 16.802 83.9709 17.2827 83.7282 17.712C83.4855 18.132 83.1215 18.4633 82.6362 18.706C82.1509 18.9487 81.5675 19.07 80.8862 19.07C79.8969 19.07 79.0849 18.8133 78.4502 18.3C77.8155 17.7773 77.4609 17.04 77.3862 16.088H78.6182C78.6835 16.648 78.9122 17.1053 79.3042 17.46C79.6962 17.8147 80.2189 17.992 80.8722 17.992C81.5255 17.992 82.0202 17.824 82.3562 17.488C82.7015 17.1427 82.8742 16.6993 82.8742 16.158C82.8742 15.458 82.6409 14.954 82.1742 14.646C81.7075 14.338 81.0029 14.184 80.0602 14.184H79.7382V13.12H80.0742C80.9329 13.1107 81.5815 12.9707 82.0202 12.7C82.4589 12.42 82.6782 11.9907 82.6782 11.412C82.6782 10.9173 82.5149 10.5207 82.1882 10.222C81.8709 9.92333 81.4135 9.774 80.8162 9.774C80.2375 9.774 79.7709 9.92333 79.4162 10.222C79.0615 10.5207 78.8515 10.922 78.7862 11.426H77.5402ZM92.2663 9.984H87.3523V13.176C87.567 12.8773 87.8843 12.6347 88.3043 12.448C88.7243 12.252 89.177 12.154 89.6623 12.154C90.437 12.154 91.067 12.3173 91.5523 12.644C92.0377 12.9613 92.383 13.3767 92.5883 13.89C92.803 14.394 92.9103 14.9307 92.9103 15.5C92.9103 16.172 92.7843 16.774 92.5323 17.306C92.2803 17.838 91.893 18.258 91.3703 18.566C90.857 18.874 90.2177 19.028 89.4523 19.028C88.4723 19.028 87.679 18.776 87.0723 18.272C86.4657 17.768 86.097 17.096 85.9663 16.256H87.2123C87.3337 16.788 87.5903 17.2033 87.9823 17.502C88.3743 17.8007 88.869 17.95 89.4663 17.95C90.2037 17.95 90.759 17.7307 91.1323 17.292C91.5057 16.844 91.6923 16.256 91.6923 15.528C91.6923 14.8 91.5057 14.24 91.1323 13.848C90.759 13.4467 90.2083 13.246 89.4803 13.246C88.9857 13.246 88.5517 13.3673 88.1783 13.61C87.8143 13.8433 87.5483 14.1653 87.3803 14.576H86.1763V8.864H92.2663V9.984ZM99.0974 19L96.0874 15.612V19H94.8134V8.64H96.0874V14.73L99.0414 11.328H100.819L97.2074 15.15L100.833 19H99.0974ZM107.025 12.574C107.249 12.1353 107.566 11.7947 107.977 11.552C108.397 11.3093 108.906 11.188 109.503 11.188V12.504H109.167C107.739 12.504 107.025 13.2787 107.025 14.828V19H105.751V11.328H107.025V12.574ZM117.974 14.87C117.974 15.1127 117.96 15.3693 117.932 15.64H111.8C111.846 16.396 112.103 16.9887 112.57 17.418C113.046 17.838 113.62 18.048 114.292 18.048C114.842 18.048 115.3 17.922 115.664 17.67C116.037 17.4087 116.298 17.0633 116.448 16.634H117.82C117.614 17.3713 117.204 17.9733 116.588 18.44C115.972 18.8973 115.206 19.126 114.292 19.126C113.564 19.126 112.91 18.9627 112.332 18.636C111.762 18.3093 111.314 17.8473 110.988 17.25C110.661 16.6433 110.498 15.9433 110.498 15.15C110.498 14.3567 110.656 13.6613 110.974 13.064C111.291 12.4667 111.734 12.0093 112.304 11.692C112.882 11.3653 113.545 11.202 114.292 11.202C115.02 11.202 115.664 11.3607 116.224 11.678C116.784 11.9953 117.213 12.434 117.512 12.994C117.82 13.5447 117.974 14.17 117.974 14.87ZM116.658 14.604C116.658 14.1187 116.55 13.7033 116.336 13.358C116.121 13.0033 115.827 12.7373 115.454 12.56C115.09 12.3733 114.684 12.28 114.236 12.28C113.592 12.28 113.041 12.4853 112.584 12.896C112.136 13.3067 111.879 13.876 111.814 14.604H116.658ZM122.511 17.824L124.891 11.328H126.249L123.239 19H121.755L118.745 11.328H120.117L122.511 17.824ZM128.161 10.082C127.918 10.082 127.713 9.998 127.545 9.83C127.377 9.662 127.293 9.45667 127.293 9.214C127.293 8.97133 127.377 8.766 127.545 8.598C127.713 8.43 127.918 8.346 128.161 8.346C128.394 8.346 128.59 8.43 128.749 8.598C128.917 8.766 129.001 8.97133 129.001 9.214C129.001 9.45667 128.917 9.662 128.749 9.83C128.59 9.998 128.394 10.082 128.161 10.082ZM128.777 11.328V19H127.503V11.328H128.777ZM137.948 14.87C137.948 15.1127 137.934 15.3693 137.906 15.64H131.774C131.821 16.396 132.077 16.9887 132.544 17.418C133.02 17.838 133.594 18.048 134.266 18.048C134.817 18.048 135.274 17.922 135.638 17.67C136.011 17.4087 136.273 17.0633 136.422 16.634H137.794C137.589 17.3713 137.178 17.9733 136.562 18.44C135.946 18.8973 135.181 19.126 134.266 19.126C133.538 19.126 132.885 18.9627 132.306 18.636C131.737 18.3093 131.289 17.8473 130.962 17.25C130.635 16.6433 130.472 15.9433 130.472 15.15C130.472 14.3567 130.631 13.6613 130.948 13.064C131.265 12.4667 131.709 12.0093 132.278 11.692C132.857 11.3653 133.519 11.202 134.266 11.202C134.994 11.202 135.638 11.3607 136.198 11.678C136.758 11.9953 137.187 12.434 137.486 12.994C137.794 13.5447 137.948 14.17 137.948 14.87ZM136.632 14.604C136.632 14.1187 136.525 13.7033 136.31 13.358C136.095 13.0033 135.801 12.7373 135.428 12.56C135.064 12.3733 134.658 12.28 134.21 12.28C133.566 12.28 133.015 12.4853 132.558 12.896C132.11 13.3067 131.853 13.876 131.788 14.604H136.632ZM149.85 11.328L147.456 19H146.14L144.292 12.91L142.444 19H141.128L138.72 11.328H140.022L141.786 17.768L143.69 11.328H144.992L146.854 17.782L148.59 11.328H149.85ZM153.83 19.126C153.242 19.126 152.715 19.028 152.248 18.832C151.781 18.6267 151.413 18.3467 151.142 17.992C150.871 17.628 150.722 17.2127 150.694 16.746H152.01C152.047 17.1287 152.225 17.4413 152.542 17.684C152.869 17.9267 153.293 18.048 153.816 18.048C154.301 18.048 154.684 17.9407 154.964 17.726C155.244 17.5113 155.384 17.2407 155.384 16.914C155.384 16.578 155.235 16.3307 154.936 16.172C154.637 16.004 154.175 15.8407 153.55 15.682C152.981 15.5327 152.514 15.3833 152.15 15.234C151.795 15.0753 151.487 14.8467 151.226 14.548C150.974 14.24 150.848 13.8387 150.848 13.344C150.848 12.952 150.965 12.5927 151.198 12.266C151.431 11.9393 151.763 11.6827 152.192 11.496C152.621 11.3 153.111 11.202 153.662 11.202C154.511 11.202 155.197 11.4167 155.72 11.846C156.243 12.2753 156.523 12.8633 156.56 13.61H155.286C155.258 13.2087 155.095 12.8867 154.796 12.644C154.507 12.4013 154.115 12.28 153.62 12.28C153.163 12.28 152.799 12.378 152.528 12.574C152.257 12.77 152.122 13.0267 152.122 13.344C152.122 13.596 152.201 13.806 152.36 13.974C152.528 14.1327 152.733 14.2633 152.976 14.366C153.228 14.4593 153.573 14.5667 154.012 14.688C154.563 14.8373 155.011 14.9867 155.356 15.136C155.701 15.276 155.995 15.4907 156.238 15.78C156.49 16.0693 156.621 16.4473 156.63 16.914C156.63 17.334 156.513 17.712 156.28 18.048C156.047 18.384 155.715 18.65 155.286 18.846C154.866 19.0327 154.381 19.126 153.83 19.126ZM158.023 21.604V21.478C158.984 20.4887 159.712 19.336 160.207 18.02C160.711 16.704 160.963 15.3227 160.963 13.876C160.963 12.392 160.697 10.964 160.165 9.592C159.642 8.21067 158.858 7.03 157.813 6.05V5.924H159.143C160.123 6.82933 160.874 7.982 161.397 9.382C161.929 10.7727 162.195 12.2707 162.195 13.876C162.195 15.444 161.943 16.9047 161.439 18.258C160.944 19.6113 160.249 20.7267 159.353 21.604H158.023Z" fill="#637381"/>
<rect x="176" y="4" width="1" height="20" fill="#919EAB" fill-opacity="0.24"/>
<path d="M189.857 10.6V8.794H193.231V19H191.215V10.6H189.857ZM196.875 13.596C195.941 13.1107 195.475 12.3593 195.475 11.342C195.475 10.838 195.601 10.3807 195.853 9.97C196.114 9.55 196.501 9.21867 197.015 8.976C197.537 8.724 198.172 8.598 198.919 8.598C199.665 8.598 200.295 8.724 200.809 8.976C201.331 9.21867 201.719 9.55 201.971 9.97C202.232 10.3807 202.363 10.838 202.363 11.342C202.363 11.8553 202.237 12.308 201.985 12.7C201.733 13.0827 201.397 13.3813 200.977 13.596C201.49 13.82 201.891 14.1467 202.181 14.576C202.47 15.0053 202.615 15.514 202.615 16.102C202.615 16.7367 202.451 17.292 202.125 17.768C201.807 18.2347 201.369 18.594 200.809 18.846C200.249 19.098 199.619 19.224 198.919 19.224C198.219 19.224 197.589 19.098 197.029 18.846C196.478 18.594 196.039 18.2347 195.713 17.768C195.395 17.292 195.237 16.7367 195.237 16.102C195.237 15.514 195.381 15.0053 195.671 14.576C195.96 14.1373 196.361 13.8107 196.875 13.596ZM200.459 11.622C200.459 11.1647 200.319 10.81 200.039 10.558C199.768 10.306 199.395 10.18 198.919 10.18C198.452 10.18 198.079 10.306 197.799 10.558C197.528 10.81 197.393 11.1693 197.393 11.636C197.393 12.056 197.533 12.392 197.813 12.644C198.102 12.896 198.471 13.022 198.919 13.022C199.367 13.022 199.735 12.896 200.025 12.644C200.314 12.3827 200.459 12.042 200.459 11.622ZM198.919 14.45C198.387 14.45 197.953 14.5853 197.617 14.856C197.29 15.1267 197.127 15.514 197.127 16.018C197.127 16.4847 197.285 16.8673 197.603 17.166C197.929 17.4553 198.368 17.6 198.919 17.6C199.469 17.6 199.903 17.4507 200.221 17.152C200.538 16.8533 200.697 16.4753 200.697 16.018C200.697 15.5233 200.533 15.1407 200.207 14.87C199.88 14.59 199.451 14.45 198.919 14.45ZM204.163 13.764C204.163 12.1493 204.452 10.8847 205.031 9.97C205.619 9.05533 206.59 8.598 207.943 8.598C209.296 8.598 210.262 9.05533 210.841 9.97C211.429 10.8847 211.723 12.1493 211.723 13.764C211.723 15.388 211.429 16.662 210.841 17.586C210.262 18.51 209.296 18.972 207.943 18.972C206.59 18.972 205.619 18.51 205.031 17.586C204.452 16.662 204.163 15.388 204.163 13.764ZM209.791 13.764C209.791 13.0733 209.744 12.4947 209.651 12.028C209.567 11.552 209.39 11.1647 209.119 10.866C208.858 10.5673 208.466 10.418 207.943 10.418C207.42 10.418 207.024 10.5673 206.753 10.866C206.492 11.1647 206.314 11.552 206.221 12.028C206.137 12.4947 206.095 13.0733 206.095 13.764C206.095 14.4733 206.137 15.0707 206.221 15.556C206.305 16.032 206.482 16.4193 206.753 16.718C207.024 17.0073 207.42 17.152 207.943 17.152C208.466 17.152 208.862 17.0073 209.133 16.718C209.404 16.4193 209.581 16.032 209.665 15.556C209.749 15.0707 209.791 14.4733 209.791 13.764ZM218.03 19L215.398 15.696V19H213.438V8.64H215.398V14.534L218.002 11.244H220.55L217.134 15.136L220.578 19H218.03Z" fill="#212B36"/>
<path d="M228.72 19.126C228.132 19.126 227.604 19.028 227.138 18.832C226.671 18.6267 226.302 18.3467 226.032 17.992C225.761 17.628 225.612 17.2127 225.584 16.746H226.9C226.937 17.1287 227.114 17.4413 227.432 17.684C227.758 17.9267 228.183 18.048 228.706 18.048C229.191 18.048 229.574 17.9407 229.854 17.726C230.134 17.5113 230.274 17.2407 230.274 16.914C230.274 16.578 230.124 16.3307 229.826 16.172C229.527 16.004 229.065 15.8407 228.44 15.682C227.87 15.5327 227.404 15.3833 227.04 15.234C226.685 15.0753 226.377 14.8467 226.116 14.548C225.864 14.24 225.738 13.8387 225.738 13.344C225.738 12.952 225.854 12.5927 226.088 12.266C226.321 11.9393 226.652 11.6827 227.082 11.496C227.511 11.3 228.001 11.202 228.552 11.202C229.401 11.202 230.087 11.4167 230.61 11.846C231.132 12.2753 231.412 12.8633 231.45 13.61H230.176C230.148 13.2087 229.984 12.8867 229.686 12.644C229.396 12.4013 229.004 12.28 228.51 12.28C228.052 12.28 227.688 12.378 227.418 12.574C227.147 12.77 227.012 13.0267 227.012 13.344C227.012 13.596 227.091 13.806 227.25 13.974C227.418 14.1327 227.623 14.2633 227.866 14.366C228.118 14.4593 228.463 14.5667 228.902 14.688C229.452 14.8373 229.9 14.9867 230.246 15.136C230.591 15.276 230.885 15.4907 231.128 15.78C231.38 16.0693 231.51 16.4473 231.52 16.914C231.52 17.334 231.403 17.712 231.17 18.048C230.936 18.384 230.605 18.65 230.176 18.846C229.756 19.0327 229.27 19.126 228.72 19.126ZM234.872 12.378V16.9C234.872 17.2733 234.952 17.5393 235.11 17.698C235.269 17.8473 235.544 17.922 235.936 17.922H236.874V19H235.726C235.017 19 234.485 18.8367 234.13 18.51C233.776 18.1833 233.598 17.6467 233.598 16.9V12.378H232.604V11.328H233.598V9.396H234.872V11.328H236.874V12.378H234.872ZM245.222 11.328V19H243.948V17.866C243.705 18.258 243.365 18.566 242.926 18.79C242.497 19.0047 242.021 19.112 241.498 19.112C240.901 19.112 240.364 18.9907 239.888 18.748C239.412 18.496 239.034 18.1227 238.754 17.628C238.483 17.1333 238.348 16.5313 238.348 15.822V11.328H239.608V15.654C239.608 16.41 239.799 16.9933 240.182 17.404C240.565 17.8053 241.087 18.006 241.75 18.006C242.431 18.006 242.968 17.796 243.36 17.376C243.752 16.956 243.948 16.3447 243.948 15.542V11.328H245.222ZM246.897 15.136C246.897 14.352 247.056 13.666 247.373 13.078C247.69 12.4807 248.124 12.0187 248.675 11.692C249.235 11.3653 249.86 11.202 250.551 11.202C251.148 11.202 251.704 11.342 252.217 11.622C252.73 11.8927 253.122 12.252 253.393 12.7V8.64H254.681V19H253.393V17.558C253.141 18.0153 252.768 18.3933 252.273 18.692C251.778 18.9813 251.2 19.126 250.537 19.126C249.856 19.126 249.235 18.958 248.675 18.622C248.124 18.286 247.69 17.8147 247.373 17.208C247.056 16.6013 246.897 15.9107 246.897 15.136ZM253.393 15.15C253.393 14.5713 253.276 14.0673 253.043 13.638C252.81 13.2087 252.492 12.882 252.091 12.658C251.699 12.4247 251.265 12.308 250.789 12.308C250.313 12.308 249.879 12.42 249.487 12.644C249.095 12.868 248.782 13.1947 248.549 13.624C248.316 14.0533 248.199 14.5573 248.199 15.136C248.199 15.724 248.316 16.2373 248.549 16.676C248.782 17.1053 249.095 17.4367 249.487 17.67C249.879 17.894 250.313 18.006 250.789 18.006C251.265 18.006 251.699 17.894 252.091 17.67C252.492 17.4367 252.81 17.1053 253.043 16.676C253.276 16.2373 253.393 15.7287 253.393 15.15ZM263.834 14.87C263.834 15.1127 263.82 15.3693 263.792 15.64H257.66C257.707 16.396 257.963 16.9887 258.43 17.418C258.906 17.838 259.48 18.048 260.152 18.048C260.703 18.048 261.16 17.922 261.524 17.67C261.897 17.4087 262.159 17.0633 262.308 16.634H263.68C263.475 17.3713 263.064 17.9733 262.448 18.44C261.832 18.8973 261.067 19.126 260.152 19.126C259.424 19.126 258.771 18.9627 258.192 18.636C257.623 18.3093 257.175 17.8473 256.848 17.25C256.521 16.6433 256.358 15.9433 256.358 15.15C256.358 14.3567 256.517 13.6613 256.834 13.064C257.151 12.4667 257.595 12.0093 258.164 11.692C258.743 11.3653 259.405 11.202 260.152 11.202C260.88 11.202 261.524 11.3607 262.084 11.678C262.644 11.9953 263.073 12.434 263.372 12.994C263.68 13.5447 263.834 14.17 263.834 14.87ZM262.518 14.604C262.518 14.1187 262.411 13.7033 262.196 13.358C261.981 13.0033 261.687 12.7373 261.314 12.56C260.95 12.3733 260.544 12.28 260.096 12.28C259.452 12.28 258.901 12.4853 258.444 12.896C257.996 13.3067 257.739 13.876 257.674 14.604H262.518ZM269.254 11.188C270.187 11.188 270.943 11.4727 271.522 12.042C272.1 12.602 272.39 13.414 272.39 14.478V19H271.13V14.66C271.13 13.8947 270.938 13.3113 270.556 12.91C270.173 12.4993 269.65 12.294 268.988 12.294C268.316 12.294 267.779 12.504 267.378 12.924C266.986 13.344 266.79 13.9553 266.79 14.758V19H265.516V11.328H266.79V12.42C267.042 12.028 267.382 11.7247 267.812 11.51C268.25 11.2953 268.731 11.188 269.254 11.188ZM276.025 12.378V16.9C276.025 17.2733 276.104 17.5393 276.263 17.698C276.421 17.8473 276.697 17.922 277.089 17.922H278.027V19H276.879C276.169 19 275.637 18.8367 275.283 18.51C274.928 18.1833 274.751 17.6467 274.751 16.9V12.378H273.757V11.328H274.751V9.396H276.025V11.328H278.027V12.378H276.025ZM282.286 19.126C281.698 19.126 281.171 19.028 280.704 18.832C280.238 18.6267 279.869 18.3467 279.598 17.992C279.328 17.628 279.178 17.2127 279.15 16.746H280.466C280.504 17.1287 280.681 17.4413 280.998 17.684C281.325 17.9267 281.75 18.048 282.272 18.048C282.758 18.048 283.14 17.9407 283.42 17.726C283.7 17.5113 283.84 17.2407 283.84 16.914C283.84 16.578 283.691 16.3307 283.392 16.172C283.094 16.004 282.632 15.8407 282.006 15.682C281.437 15.5327 280.97 15.3833 280.606 15.234C280.252 15.0753 279.944 14.8467 279.682 14.548C279.43 14.24 279.304 13.8387 279.304 13.344C279.304 12.952 279.421 12.5927 279.654 12.266C279.888 11.9393 280.219 11.6827 280.648 11.496C281.078 11.3 281.568 11.202 282.118 11.202C282.968 11.202 283.654 11.4167 284.176 11.846C284.699 12.2753 284.979 12.8633 285.016 13.61H283.742C283.714 13.2087 283.551 12.8867 283.252 12.644C282.963 12.4013 282.571 12.28 282.076 12.28C281.619 12.28 281.255 12.378 280.984 12.574C280.714 12.77 280.578 13.0267 280.578 13.344C280.578 13.596 280.658 13.806 280.816 13.974C280.984 14.1327 281.19 14.2633 281.432 14.366C281.684 14.4593 282.03 14.5667 282.468 14.688C283.019 14.8373 283.467 14.9867 283.812 15.136C284.158 15.276 284.452 15.4907 284.694 15.78C284.946 16.0693 285.077 16.4473 285.086 16.914C285.086 17.334 284.97 17.712 284.736 18.048C284.503 18.384 284.172 18.65 283.742 18.846C283.322 19.0327 282.837 19.126 282.286 19.126Z" fill="#212B36"/>
</svg>
