<svg width="208" height="26" viewBox="0 0 208 26" fill="none" xmlns="http://www.w3.org/2000/svg">
<path d="M11 22.625C9.09636 22.625 7.23546 22.0605 5.65264 21.0029C4.06982 19.9453 2.83616 18.4421 2.10766 16.6833C1.37917 14.9246 1.18856 12.9893 1.55995 11.1223C1.93133 9.25519 2.84802 7.54018 4.1941 6.1941C5.54018 4.84802 7.25519 3.93133 9.12226 3.55995C10.9893 3.18856 12.9246 3.37917 14.6833 4.10766C16.4421 4.83616 17.9453 6.06982 19.0029 7.65264C20.0605 9.23546 20.625 11.0964 20.625 13C20.625 15.5527 19.6109 18.0009 17.8059 19.8059C16.0009 21.6109 13.5527 22.625 11 22.625ZM11 4.75C9.36831 4.75 7.77326 5.23386 6.41655 6.14038C5.05984 7.0469 4.00242 8.33538 3.378 9.84287C2.75358 11.3504 2.5902 13.0092 2.90853 14.6095C3.22685 16.2098 4.01259 17.6799 5.16637 18.8336C6.32016 19.9874 7.79017 20.7732 9.39051 21.0915C10.9909 21.4098 12.6497 21.2464 14.1571 20.622C15.6646 19.9976 16.9531 18.9402 17.8596 17.5835C18.7661 16.2268 19.25 14.6317 19.25 13C19.25 10.812 18.3808 8.71355 16.8336 7.16637C15.2865 5.6192 13.188 4.75 11 4.75Z" fill="#919EAB"/>
<path d="M14.1556 17.125L10.3125 13.2819V6.81251H11.6875V12.7113L15.125 16.1556L14.1556 17.125Z" fill="#919EAB"/>
<path d="M30.9314 9.04V7.878H33.5634V18H32.2754V9.04H30.9314ZM35.7518 12.834C35.7518 11.2287 36.0131 9.978 36.5358 9.082C37.0585 8.17667 37.9731 7.724 39.2798 7.724C40.5771 7.724 41.4871 8.17667 42.0098 9.082C42.5325 9.978 42.7938 11.2287 42.7938 12.834C42.7938 14.4673 42.5325 15.7367 42.0098 16.642C41.4871 17.5473 40.5771 18 39.2798 18C37.9731 18 37.0585 17.5473 36.5358 16.642C36.0131 15.7367 35.7518 14.4673 35.7518 12.834ZM41.5338 12.834C41.5338 12.022 41.4778 11.336 41.3658 10.776C41.2631 10.2067 41.0438 9.74933 40.7078 9.404C40.3811 9.05867 39.9051 8.886 39.2798 8.886C38.6451 8.886 38.1598 9.05867 37.8238 9.404C37.4971 9.74933 37.2778 10.2067 37.1658 10.776C37.0631 11.336 37.0118 12.022 37.0118 12.834C37.0118 13.674 37.0631 14.3787 37.1658 14.948C37.2778 15.5173 37.4971 15.9747 37.8238 16.32C38.1598 16.6653 38.6451 16.838 39.2798 16.838C39.9051 16.838 40.3811 16.6653 40.7078 16.32C41.0438 15.9747 41.2631 15.5173 41.3658 14.948C41.4778 14.3787 41.5338 13.674 41.5338 12.834ZM44.5428 12.834C44.5428 11.2287 44.8041 9.978 45.3268 9.082C45.8495 8.17667 46.7641 7.724 48.0708 7.724C49.3681 7.724 50.2781 8.17667 50.8008 9.082C51.3235 9.978 51.5848 11.2287 51.5848 12.834C51.5848 14.4673 51.3235 15.7367 50.8008 16.642C50.2781 17.5473 49.3681 18 48.0708 18C46.7641 18 45.8495 17.5473 45.3268 16.642C44.8041 15.7367 44.5428 14.4673 44.5428 12.834ZM50.3248 12.834C50.3248 12.022 50.2688 11.336 50.1568 10.776C50.0541 10.2067 49.8348 9.74933 49.4988 9.404C49.1721 9.05867 48.6961 8.886 48.0708 8.886C47.4361 8.886 46.9508 9.05867 46.6148 9.404C46.2881 9.74933 46.0688 10.2067 45.9568 10.776C45.8541 11.336 45.8028 12.022 45.8028 12.834C45.8028 13.674 45.8541 14.3787 45.9568 14.948C46.0688 15.5173 46.2881 15.9747 46.6148 16.32C46.9508 16.6653 47.4361 16.838 48.0708 16.838C48.6961 16.838 49.1721 16.6653 49.4988 16.32C49.8348 15.9747 50.0541 15.5173 50.1568 14.948C50.2688 14.3787 50.3248 13.674 50.3248 12.834ZM61.0842 10.188C61.6629 10.188 62.1856 10.314 62.6522 10.566C63.1189 10.8087 63.4829 11.1773 63.7442 11.672C64.0149 12.1667 64.1502 12.7687 64.1502 13.478V18H62.8902V13.66C62.8902 12.8947 62.6989 12.3113 62.3162 11.91C61.9336 11.4993 61.4109 11.294 60.7482 11.294C60.0762 11.294 59.5396 11.504 59.1382 11.924C58.7462 12.344 58.5502 12.9553 58.5502 13.758V18H57.2762V7.64H58.5502V11.42C58.8022 11.028 59.1476 10.7247 59.5862 10.51C60.0342 10.2953 60.5336 10.188 61.0842 10.188ZM69.5773 18.126C68.8587 18.126 68.2053 17.9627 67.6173 17.636C67.0387 17.3093 66.5813 16.8473 66.2453 16.25C65.9187 15.6433 65.7553 14.9433 65.7553 14.15C65.7553 13.366 65.9233 12.6753 66.2593 12.078C66.6047 11.4713 67.0713 11.0093 67.6593 10.692C68.2473 10.3653 68.9053 10.202 69.6333 10.202C70.3613 10.202 71.0193 10.3653 71.6073 10.692C72.1953 11.0093 72.6573 11.4667 72.9933 12.064C73.3387 12.6613 73.5113 13.3567 73.5113 14.15C73.5113 14.9433 73.334 15.6433 72.9793 16.25C72.634 16.8473 72.1627 17.3093 71.5653 17.636C70.968 17.9627 70.3053 18.126 69.5773 18.126ZM69.5773 17.006C70.0347 17.006 70.464 16.8987 70.8653 16.684C71.2667 16.4693 71.5887 16.1473 71.8313 15.718C72.0833 15.2887 72.2093 14.766 72.2093 14.15C72.2093 13.534 72.088 13.0113 71.8453 12.582C71.6027 12.1527 71.2853 11.8353 70.8933 11.63C70.5013 11.4153 70.0767 11.308 69.6193 11.308C69.1527 11.308 68.7233 11.4153 68.3313 11.63C67.9487 11.8353 67.6407 12.1527 67.4073 12.582C67.174 13.0113 67.0573 13.534 67.0573 14.15C67.0573 14.7753 67.1693 15.3027 67.3933 15.732C67.6267 16.1613 67.9347 16.4833 68.3173 16.698C68.7 16.9033 69.12 17.006 69.5773 17.006ZM81.9904 10.328V18H80.7164V16.866C80.4737 17.258 80.1331 17.566 79.6944 17.79C79.2651 18.0047 78.7891 18.112 78.2664 18.112C77.6691 18.112 77.1324 17.9907 76.6564 17.748C76.1804 17.496 75.8024 17.1227 75.5224 16.628C75.2517 16.1333 75.1164 15.5313 75.1164 14.822V10.328H76.3764V14.654C76.3764 15.41 76.5677 15.9933 76.9504 16.404C77.3331 16.8053 77.8557 17.006 78.5184 17.006C79.1997 17.006 79.7364 16.796 80.1284 16.376C80.5204 15.956 80.7164 15.3447 80.7164 14.542V10.328H81.9904ZM85.4155 11.574C85.6395 11.1353 85.9568 10.7947 86.3675 10.552C86.7875 10.3093 87.2961 10.188 87.8935 10.188V11.504H87.5575C86.1295 11.504 85.4155 12.2787 85.4155 13.828V18H84.1415V10.328H85.4155V11.574ZM92.0801 18.126C91.4921 18.126 90.9648 18.028 90.4981 17.832C90.0315 17.6267 89.6628 17.3467 89.3921 16.992C89.1215 16.628 88.9721 16.2127 88.9441 15.746H90.2601C90.2975 16.1287 90.4748 16.4413 90.7921 16.684C91.1188 16.9267 91.5435 17.048 92.0661 17.048C92.5515 17.048 92.9341 16.9407 93.2141 16.726C93.4941 16.5113 93.6341 16.2407 93.6341 15.914C93.6341 15.578 93.4848 15.3307 93.1861 15.172C92.8875 15.004 92.4255 14.8407 91.8001 14.682C91.2308 14.5327 90.7641 14.3833 90.4001 14.234C90.0455 14.0753 89.7375 13.8467 89.4761 13.548C89.2241 13.24 89.0981 12.8387 89.0981 12.344C89.0981 11.952 89.2148 11.5927 89.4481 11.266C89.6815 10.9393 90.0128 10.6827 90.4421 10.496C90.8715 10.3 91.3615 10.202 91.9121 10.202C92.7615 10.202 93.4475 10.4167 93.9701 10.846C94.4928 11.2753 94.7728 11.8633 94.8101 12.61H93.5361C93.5081 12.2087 93.3448 11.8867 93.0461 11.644C92.7568 11.4013 92.3648 11.28 91.8701 11.28C91.4128 11.28 91.0488 11.378 90.7781 11.574C90.5075 11.77 90.3721 12.0267 90.3721 12.344C90.3721 12.596 90.4515 12.806 90.6101 12.974C90.7781 13.1327 90.9835 13.2633 91.2261 13.366C91.4781 13.4593 91.8235 13.5667 92.2621 13.688C92.8128 13.8373 93.2608 13.9867 93.6061 14.136C93.9515 14.276 94.2455 14.4907 94.4881 14.78C94.7401 15.0693 94.8708 15.4473 94.8801 15.914C94.8801 16.334 94.7635 16.712 94.5301 17.048C94.2968 17.384 93.9655 17.65 93.5361 17.846C93.1161 18.0327 92.6308 18.126 92.0801 18.126Z" fill="#919EAB"/>
<g clip-path="url(#clip0_25430_3878)">
<path d="M136.625 22.625H131.125V4.75H136.625V22.625Z" fill="#919EAB"/>
<path d="M129.75 22.625H124.25V10.25H129.75V22.625Z" fill="#919EAB"/>
<path d="M122.875 22.625H117.375V14.375H122.875V22.625Z" fill="#919EAB"/>
</g>
<path d="M151.97 12.974C152.325 13.03 152.647 13.1747 152.936 13.408C153.235 13.6413 153.468 13.9307 153.636 14.276C153.813 14.6213 153.902 14.99 153.902 15.382C153.902 15.8767 153.776 16.3247 153.524 16.726C153.272 17.118 152.903 17.4307 152.418 17.664C151.942 17.888 151.377 18 150.724 18H147.084V8.242H150.584C151.247 8.242 151.811 8.354 152.278 8.578C152.745 8.79267 153.095 9.08667 153.328 9.46C153.561 9.83333 153.678 10.2533 153.678 10.72C153.678 11.2987 153.519 11.7793 153.202 12.162C152.894 12.5353 152.483 12.806 151.97 12.974ZM148.358 12.456H150.5C151.097 12.456 151.559 12.316 151.886 12.036C152.213 11.756 152.376 11.3687 152.376 10.874C152.376 10.3793 152.213 9.992 151.886 9.712C151.559 9.432 151.088 9.292 150.472 9.292H148.358V12.456ZM150.612 16.95C151.247 16.95 151.741 16.8007 152.096 16.502C152.451 16.2033 152.628 15.788 152.628 15.256C152.628 14.7147 152.441 14.29 152.068 13.982C151.695 13.6647 151.195 13.506 150.57 13.506H148.358V16.95H150.612ZM162.67 13.87C162.67 14.1127 162.656 14.3693 162.628 14.64H156.496C156.542 15.396 156.799 15.9887 157.266 16.418C157.742 16.838 158.316 17.048 158.988 17.048C159.538 17.048 159.996 16.922 160.36 16.67C160.733 16.4087 160.994 16.0633 161.144 15.634H162.516C162.31 16.3713 161.9 16.9733 161.284 17.44C160.668 17.8973 159.902 18.126 158.988 18.126C158.26 18.126 157.606 17.9627 157.028 17.636C156.458 17.3093 156.01 16.8473 155.684 16.25C155.357 15.6433 155.194 14.9433 155.194 14.15C155.194 13.3567 155.352 12.6613 155.67 12.064C155.987 11.4667 156.43 11.0093 157 10.692C157.578 10.3653 158.241 10.202 158.988 10.202C159.716 10.202 160.36 10.3607 160.92 10.678C161.48 10.9953 161.909 11.434 162.208 11.994C162.516 12.5447 162.67 13.17 162.67 13.87ZM161.354 13.604C161.354 13.1187 161.246 12.7033 161.032 12.358C160.817 12.0033 160.523 11.7373 160.15 11.56C159.786 11.3733 159.38 11.28 158.932 11.28C158.288 11.28 157.737 11.4853 157.28 11.896C156.832 12.3067 156.575 12.876 156.51 13.604H161.354ZM167.515 10.202C168.178 10.202 168.757 10.3467 169.251 10.636C169.755 10.9253 170.129 11.2893 170.371 11.728V10.328H171.659V18.168C171.659 18.868 171.51 19.4887 171.211 20.03C170.913 20.5807 170.483 21.01 169.923 21.318C169.373 21.626 168.729 21.78 167.991 21.78C166.983 21.78 166.143 21.542 165.471 21.066C164.799 20.59 164.403 19.9413 164.281 19.12H165.541C165.681 19.5867 165.971 19.96 166.409 20.24C166.848 20.5293 167.375 20.674 167.991 20.674C168.691 20.674 169.261 20.4547 169.699 20.016C170.147 19.5773 170.371 18.9613 170.371 18.168V16.558C170.119 17.006 169.746 17.3793 169.251 17.678C168.757 17.9767 168.178 18.126 167.515 18.126C166.834 18.126 166.213 17.958 165.653 17.622C165.103 17.286 164.669 16.8147 164.351 16.208C164.034 15.6013 163.875 14.9107 163.875 14.136C163.875 13.352 164.034 12.666 164.351 12.078C164.669 11.4807 165.103 11.0187 165.653 10.692C166.213 10.3653 166.834 10.202 167.515 10.202ZM170.371 14.15C170.371 13.5713 170.255 13.0673 170.021 12.638C169.788 12.2087 169.471 11.882 169.069 11.658C168.677 11.4247 168.243 11.308 167.767 11.308C167.291 11.308 166.857 11.42 166.465 11.644C166.073 11.868 165.761 12.1947 165.527 12.624C165.294 13.0533 165.177 13.5573 165.177 14.136C165.177 14.724 165.294 15.2373 165.527 15.676C165.761 16.1053 166.073 16.4367 166.465 16.67C166.857 16.894 167.291 17.006 167.767 17.006C168.243 17.006 168.677 16.894 169.069 16.67C169.471 16.4367 169.788 16.1053 170.021 15.676C170.255 15.2373 170.371 14.7287 170.371 14.15ZM174.47 9.082C174.228 9.082 174.022 8.998 173.854 8.83C173.686 8.662 173.602 8.45667 173.602 8.214C173.602 7.97133 173.686 7.766 173.854 7.598C174.022 7.43 174.228 7.346 174.47 7.346C174.704 7.346 174.9 7.43 175.058 7.598C175.226 7.766 175.31 7.97133 175.31 8.214C175.31 8.45667 175.226 8.662 175.058 8.83C174.9 8.998 174.704 9.082 174.47 9.082ZM175.086 10.328V18H173.812V10.328H175.086ZM180.996 10.188C181.929 10.188 182.685 10.4727 183.264 11.042C183.842 11.602 184.132 12.414 184.132 13.478V18H182.872V13.66C182.872 12.8947 182.68 12.3113 182.298 11.91C181.915 11.4993 181.392 11.294 180.73 11.294C180.058 11.294 179.521 11.504 179.12 11.924C178.728 12.344 178.532 12.9553 178.532 13.758V18H177.258V10.328H178.532V11.42C178.784 11.028 179.124 10.7247 179.554 10.51C179.992 10.2953 180.473 10.188 180.996 10.188ZM189.951 10.188C190.884 10.188 191.64 10.4727 192.219 11.042C192.797 11.602 193.087 12.414 193.087 13.478V18H191.827V13.66C191.827 12.8947 191.635 12.3113 191.253 11.91C190.87 11.4993 190.347 11.294 189.685 11.294C189.013 11.294 188.476 11.504 188.075 11.924C187.683 12.344 187.487 12.9553 187.487 13.758V18H186.213V10.328H187.487V11.42C187.739 11.028 188.079 10.7247 188.509 10.51C188.947 10.2953 189.428 10.188 189.951 10.188ZM202.168 13.87C202.168 14.1127 202.154 14.3693 202.126 14.64H195.994C196.041 15.396 196.297 15.9887 196.764 16.418C197.24 16.838 197.814 17.048 198.486 17.048C199.037 17.048 199.494 16.922 199.858 16.67C200.231 16.4087 200.493 16.0633 200.642 15.634H202.014C201.809 16.3713 201.398 16.9733 200.782 17.44C200.166 17.8973 199.401 18.126 198.486 18.126C197.758 18.126 197.105 17.9627 196.526 17.636C195.957 17.3093 195.509 16.8473 195.182 16.25C194.855 15.6433 194.692 14.9433 194.692 14.15C194.692 13.3567 194.851 12.6613 195.168 12.064C195.485 11.4667 195.929 11.0093 196.498 10.692C197.077 10.3653 197.739 10.202 198.486 10.202C199.214 10.202 199.858 10.3607 200.418 10.678C200.978 10.9953 201.407 11.434 201.706 11.994C202.014 12.5447 202.168 13.17 202.168 13.87ZM200.852 13.604C200.852 13.1187 200.745 12.7033 200.53 12.358C200.315 12.0033 200.021 11.7373 199.648 11.56C199.284 11.3733 198.878 11.28 198.43 11.28C197.786 11.28 197.235 11.4853 196.778 11.896C196.33 12.3067 196.073 12.876 196.008 13.604H200.852ZM205.123 11.574C205.347 11.1353 205.665 10.7947 206.075 10.552C206.495 10.3093 207.004 10.188 207.601 10.188V11.504H207.265C205.837 11.504 205.123 12.2787 205.123 13.828V18H203.849V10.328H205.123V11.574Z" fill="#919EAB"/>
<defs>
<clipPath id="clip0_25430_3878">
<rect width="22" height="22" fill="white" transform="translate(116 2)"/>
</clipPath>
</defs>
</svg>
